M48
; DRILL file {KiCad (5.1.10)-1} date 12/09/21 13:10:15
; FORMAT={-:-/ absolute / metric / decimal}
; #@! TF.CreationDate,2021-12-09T13:10:15+07:00
; #@! TF.GenerationSoftware,Kicad,Pcbnew,(5.1.10)-1
; #@! TF.FileFunction,NonPlated,1,2,NPTH
FMAT,2
METRIC
T1C1.750
T2C1.800
T3C2.200
T4C3.000
T5C3.048
T6C3.988
%
G90
G05
T1
X181.848Y-129.778
X181.848Y-148.828
X181.848Y-110.728
X181.868Y-167.878
X192.008Y-129.778
X192.008Y-148.828
X192.008Y-110.728
X192.028Y-167.878
X205.66Y-110.728
X208.042Y-129.778
X212.804Y-148.828
X215.82Y-110.728
X218.202Y-129.778
X222.964Y-148.828
X224.71Y-110.728
X229.473Y-129.778
X229.473Y-167.878
X234.87Y-110.728
X238.998Y-148.828
X239.633Y-129.778
X239.633Y-167.878
X243.76Y-110.728
X248.523Y-129.778
X249.158Y-148.828
X250.884Y-167.878
X253.92Y-110.728
X258.048Y-148.828
X258.683Y-129.778
X261.044Y-167.878
X262.81Y-110.728
X267.573Y-129.778
X268.208Y-148.828
X272.97Y-110.728
X273.05Y-167.869
X277.098Y-148.828
X277.733Y-129.778
X281.86Y-110.728
X283.21Y-167.869
X286.623Y-129.778
X287.258Y-148.828
X292.02Y-110.728
X296.148Y-148.828
X296.783Y-129.778
X300.91Y-110.728
X303.174Y-167.869
X305.673Y-129.778
X306.308Y-148.828
X307.975Y-167.894
X311.07Y-110.728
X313.334Y-167.869
X315.198Y-148.828
X315.833Y-129.778
X318.135Y-167.894
X324.723Y-129.778
X325.358Y-148.828
X329.485Y-167.878
X334.248Y-148.828
X334.883Y-129.778
X339.01Y-110.728
X339.645Y-167.878
X343.773Y-129.778
X344.408Y-148.828
X349.17Y-110.728
X350.799Y-167.869
X353.298Y-148.828
X353.933Y-129.778
X355.6Y-167.894
X358.06Y-110.728
X360.959Y-167.869
X362.823Y-129.778
X363.458Y-148.828
X365.76Y-167.894
X368.22Y-110.728
X372.348Y-148.828
X372.983Y-129.778
X377.11Y-110.728
X381.873Y-129.778
X382.508Y-148.828
X386.512Y-167.843
X387.27Y-110.728
X391.398Y-148.828
X392.033Y-129.778
X396.16Y-110.728
X396.672Y-167.843
X400.923Y-129.778
X401.558Y-148.828
X406.32Y-110.728
X408.067Y-167.878
X410.448Y-148.828
X411.083Y-129.778
X415.21Y-110.728
X418.227Y-167.878
X419.973Y-129.778
X420.608Y-148.828
X425.37Y-110.728
X429.498Y-167.878
X430.133Y-129.778
X431.879Y-148.828
X434.26Y-110.728
X439.658Y-167.878
X442.039Y-148.828
X444.42Y-110.728
X446.166Y-129.778
X453.31Y-110.728
X453.31Y-148.828
X456.326Y-129.778
X463.47Y-110.728
X463.47Y-148.828
T2
X319.96Y-110.728
X330.12Y-110.728
T3
X210.731Y-120.167
X244.056Y-158.28
X310.744Y-139.23
X377.406Y-160.63
X382.168Y-120.18
X451.244Y-139.23
T4
X183.118Y-127.238
X183.118Y-146.288
X183.118Y-108.188
X183.138Y-165.338
X189.468Y-124.698
X189.468Y-143.748
X189.468Y-105.648
X189.488Y-162.798
X206.93Y-108.188
X209.312Y-127.238
X213.28Y-105.648
X214.074Y-146.288
X215.662Y-124.698
X220.424Y-143.748
X225.98Y-108.188
X230.743Y-127.238
X230.743Y-165.338
X232.33Y-105.648
X237.093Y-124.698
X237.093Y-162.798
X240.268Y-146.288
X245.03Y-108.188
X246.618Y-143.748
X249.793Y-127.238
X251.38Y-105.648
X252.154Y-165.338
X256.143Y-124.698
X258.504Y-162.798
X259.318Y-146.288
X264.08Y-108.188
X265.668Y-143.748
X268.843Y-127.238
X270.43Y-105.648
X274.32Y-165.329
X275.193Y-124.698
X278.368Y-146.288
X280.67Y-162.789
X283.13Y-108.188
X284.718Y-143.748
X287.893Y-127.238
X289.48Y-105.648
X294.243Y-124.698
X297.418Y-146.288
X302.18Y-108.188
X303.768Y-143.748
X304.444Y-165.329
X306.943Y-127.238
X308.53Y-105.648
X310.515Y-172.974
X310.794Y-162.789
X313.293Y-124.698
X316.468Y-146.288
X316.865Y-170.434
X322.818Y-143.748
X325.993Y-127.238
X330.755Y-165.338
X332.343Y-124.698
X335.518Y-146.288
X337.105Y-162.798
X340.28Y-108.188
X341.868Y-143.748
X345.043Y-127.238
X346.63Y-105.648
X351.393Y-124.698
X352.069Y-165.329
X354.568Y-146.288
X358.14Y-172.974
X358.419Y-162.789
X359.33Y-108.188
X360.918Y-143.748
X364.093Y-127.238
X364.49Y-170.434
X365.68Y-105.648
X370.443Y-124.698
X373.618Y-146.288
X378.38Y-108.188
X379.968Y-143.748
X383.143Y-127.238
X384.73Y-105.648
X387.782Y-165.303
X389.493Y-124.698
X392.668Y-146.288
X394.132Y-162.763
X397.43Y-108.188
X399.018Y-143.748
X402.193Y-127.238
X403.78Y-105.648
X408.543Y-124.698
X409.337Y-165.338
X411.718Y-146.288
X415.687Y-162.798
X416.48Y-108.188
X418.068Y-143.748
X421.243Y-127.238
X422.83Y-105.648
X427.593Y-124.698
X430.768Y-165.338
X433.149Y-146.288
X435.53Y-108.188
X437.118Y-162.798
X439.499Y-143.748
X441.88Y-105.648
X447.436Y-127.238
X453.786Y-124.698
X454.58Y-108.188
X454.58Y-146.288
X460.93Y-105.648
X460.93Y-143.748
T5
X277.415Y-160.893
X296.316Y-160.884
X301.117Y-160.909
X320.192Y-160.884
X324.993Y-160.909
X343.941Y-160.884
X348.742Y-160.909
X367.817Y-160.884
X372.618Y-160.909
X391.715Y-160.893
T6
X186.928Y-129.778
X186.928Y-148.828
X186.928Y-110.728
X186.948Y-167.878
X210.74Y-110.728
X213.122Y-129.778
X217.884Y-148.828
X229.79Y-110.728
X234.553Y-129.778
X234.553Y-167.878
X244.078Y-148.828
X248.84Y-110.728
X253.603Y-129.778
X255.964Y-167.878
X263.128Y-148.828
X267.89Y-110.728
X272.653Y-129.778
X277.415Y-176.133
X278.13Y-167.869
X282.178Y-148.828
X286.94Y-110.728
X291.703Y-129.778
X296.316Y-176.124
X301.117Y-176.149
X301.228Y-148.828
X305.99Y-110.728
X308.254Y-167.869
X310.753Y-129.778
X313.055Y-167.894
X320.192Y-176.124
X320.278Y-148.828
X324.993Y-176.149
X325.04Y-110.728
X329.803Y-129.778
X334.565Y-167.878
X339.328Y-148.828
X343.941Y-176.124
X344.09Y-110.728
X348.742Y-176.149
X348.853Y-129.778
X355.879Y-167.869
X358.378Y-148.828
X360.68Y-167.894
X363.14Y-110.728
X367.817Y-176.124
X367.903Y-129.778
X372.618Y-176.149
X377.428Y-148.828
X382.19Y-110.728
X386.953Y-129.778
X391.592Y-167.843
X391.715Y-176.133
X396.478Y-148.828
X401.24Y-110.728
X406.003Y-129.778
X413.147Y-167.878
X415.528Y-148.828
X420.29Y-110.728
X425.053Y-129.778
X434.578Y-167.878
X436.959Y-148.828
X439.34Y-110.728
X451.246Y-129.778
X458.39Y-110.728
X458.39Y-148.828
T0
M30
