G04 #@! TF.GenerationSoftware,KiCad,Pcbnew,(5.1.10)-1*
G04 #@! TF.CreationDate,2021-12-09T13:09:40+07:00*
G04 #@! TF.ProjectId,CK50,434b3530-2e6b-4696-9361-645f70636258,rev?*
G04 #@! TF.SameCoordinates,Original*
G04 #@! TF.FileFunction,Paste,Bot*
G04 #@! TF.FilePolarity,Positive*
%FSLAX46Y46*%
G04 Gerber Fmt 4.6, Leading zero omitted, Abs format (unit mm)*
G04 Created by KiCad (PCBNEW (5.1.10)-1) date 2021-12-09 13:09:40*
%MOMM*%
%LPD*%
G01*
G04 APERTURE LIST*
%ADD10R,2.550000X2.500000*%
%ADD11R,1.200000X1.200000*%
G04 APERTURE END LIST*
D10*
X307213000Y-172974000D03*
X320140000Y-170434000D03*
X354838000Y-172974000D03*
X367765000Y-170434000D03*
X361721400Y-162788600D03*
X348794400Y-165328600D03*
X314096400Y-162788600D03*
X301169400Y-165328600D03*
D11*
X333372000Y-172466000D03*
X336172000Y-172466000D03*
D10*
X340407344Y-162797984D03*
X327480344Y-165337984D03*
X397433800Y-162763200D03*
X384506800Y-165303200D03*
X283972000Y-162788600D03*
X271045000Y-165328600D03*
D11*
X254632000Y-173101000D03*
X257432000Y-173101000D03*
D10*
X261806312Y-162797984D03*
X248879312Y-165337984D03*
D11*
X376171000Y-153543000D03*
X378971000Y-153543000D03*
D10*
X383269808Y-143748000D03*
X370342808Y-146288000D03*
D11*
X357121000Y-153543000D03*
X359921000Y-153543000D03*
X338071000Y-153543000D03*
X340871000Y-153543000D03*
D10*
X364219824Y-143748000D03*
X351292824Y-146288000D03*
X345169840Y-143748000D03*
X332242840Y-146288000D03*
D11*
X366519000Y-134747000D03*
X369319000Y-134747000D03*
X347596000Y-134620000D03*
X350396000Y-134620000D03*
D10*
X373744816Y-124698016D03*
X360817816Y-127238016D03*
X354694832Y-124698016D03*
X341767832Y-127238016D03*
D11*
X328419000Y-134620000D03*
X331219000Y-134620000D03*
D10*
X335644848Y-124698016D03*
X322717848Y-127238016D03*
D11*
X309496000Y-134493000D03*
X312296000Y-134493000D03*
X319021000Y-153543000D03*
X321821000Y-153543000D03*
X299971000Y-153416000D03*
X302771000Y-153416000D03*
D10*
X316594864Y-124698016D03*
X303667864Y-127238016D03*
X326119856Y-143748000D03*
X313192856Y-146288000D03*
X307069872Y-143748000D03*
X294142872Y-146288000D03*
D11*
X395221000Y-153670000D03*
X398021000Y-153670000D03*
X385696000Y-134874000D03*
X388496000Y-134874000D03*
D10*
X402319792Y-143748000D03*
X389392792Y-146288000D03*
X392794800Y-124698016D03*
X379867800Y-127238016D03*
D11*
X404619000Y-134747000D03*
X407419000Y-134747000D03*
D10*
X411844784Y-124698016D03*
X398917784Y-127238016D03*
D11*
X424050000Y-134747000D03*
X426850000Y-134747000D03*
D10*
X430894768Y-124698016D03*
X417967768Y-127238016D03*
X421369776Y-143748000D03*
X408442776Y-146288000D03*
D11*
X414271000Y-153670000D03*
X417071000Y-153670000D03*
D10*
X418988528Y-162797984D03*
X406061528Y-165337984D03*
D11*
X412112000Y-172847000D03*
X414912000Y-172847000D03*
X433194000Y-172720000D03*
X435994000Y-172720000D03*
D10*
X440419760Y-162797984D03*
X427492760Y-165337984D03*
D11*
X381000000Y-115570000D03*
X383800000Y-115570000D03*
D10*
X388032304Y-105648032D03*
X375105304Y-108188032D03*
D11*
X435480000Y-153800000D03*
X438280000Y-153800000D03*
D10*
X442801008Y-143748000D03*
X429874008Y-146288000D03*
D11*
X457070000Y-153670000D03*
X459870000Y-153670000D03*
D10*
X464232240Y-143748000D03*
X451305240Y-146288000D03*
D11*
X460753000Y-130937000D03*
X463553000Y-130937000D03*
D10*
X457088496Y-124698016D03*
X444161496Y-127238016D03*
D11*
X438020000Y-115570000D03*
X440820000Y-115570000D03*
D10*
X464232240Y-105648032D03*
X451305240Y-108188032D03*
X445182256Y-105648032D03*
X432255256Y-108188032D03*
D11*
X457070000Y-116840000D03*
X459870000Y-116840000D03*
X418970000Y-115570000D03*
X421770000Y-115570000D03*
X399920000Y-115570000D03*
X402720000Y-115570000D03*
D10*
X426132272Y-105648032D03*
X413205272Y-108188032D03*
X407082288Y-105648032D03*
X394155288Y-108188032D03*
D11*
X280540000Y-153670000D03*
X283340000Y-153670000D03*
X290700000Y-134620000D03*
X293500000Y-134620000D03*
D10*
X297544880Y-124698016D03*
X284617880Y-127238016D03*
D11*
X261490000Y-153670000D03*
X264290000Y-153670000D03*
D10*
X288019888Y-143748000D03*
X275092888Y-146288000D03*
X268969904Y-143748000D03*
X256042904Y-146288000D03*
D11*
X361820000Y-115570000D03*
X364620000Y-115570000D03*
D10*
X368982320Y-105648032D03*
X356055320Y-108188032D03*
D11*
X342770000Y-115570000D03*
X345570000Y-115570000D03*
D10*
X349932336Y-105648032D03*
X337005336Y-108188032D03*
D11*
X335280000Y-111500000D03*
X335280000Y-114300000D03*
X304670000Y-115570000D03*
X307470000Y-115570000D03*
D10*
X311832368Y-105648032D03*
X298905368Y-108188032D03*
X292782384Y-105648032D03*
X279855384Y-108188032D03*
D11*
X266570000Y-115700000D03*
X269370000Y-115700000D03*
X285620000Y-115570000D03*
X288420000Y-115570000D03*
X271650000Y-134620000D03*
X274450000Y-134620000D03*
X252600000Y-134620000D03*
X255400000Y-134620000D03*
D10*
X278494896Y-124698016D03*
X265567896Y-127238016D03*
X259444912Y-124698016D03*
X246517912Y-127238016D03*
X273732400Y-105648032D03*
X260805400Y-108188032D03*
D11*
X247520000Y-115570000D03*
X250320000Y-115570000D03*
D10*
X254682416Y-105648032D03*
X241755416Y-108188032D03*
D11*
X242440000Y-153670000D03*
X245240000Y-153670000D03*
D10*
X249919920Y-143748000D03*
X236992920Y-146288000D03*
D11*
X233550000Y-134620000D03*
X236350000Y-134620000D03*
D10*
X240394928Y-124698016D03*
X227467928Y-127238016D03*
D11*
X228470000Y-115570000D03*
X231270000Y-115570000D03*
D10*
X235632432Y-105648032D03*
X222705432Y-108188032D03*
D11*
X233550000Y-172720000D03*
X236350000Y-172720000D03*
D10*
X240394928Y-162797984D03*
X227467928Y-165337984D03*
D11*
X228470000Y-151130000D03*
X231270000Y-151130000D03*
D10*
X223726192Y-143748000D03*
X210799192Y-146288000D03*
D11*
X211960000Y-134620000D03*
X214760000Y-134620000D03*
D10*
X218963696Y-124698016D03*
X206036696Y-127238016D03*
D11*
X209420000Y-115570000D03*
X212220000Y-115570000D03*
D10*
X216582448Y-105648032D03*
X203655448Y-108188032D03*
D11*
X185290000Y-172720000D03*
X188090000Y-172720000D03*
D10*
X192789816Y-162797984D03*
X179862816Y-165337984D03*
X192769968Y-143748000D03*
X179842968Y-146288000D03*
D11*
X185290000Y-153670000D03*
X188090000Y-153670000D03*
D10*
X192769968Y-124698016D03*
X179842968Y-127238016D03*
D11*
X185420000Y-134620000D03*
X188220000Y-134620000D03*
X185420000Y-115570000D03*
X188220000Y-115570000D03*
D10*
X192770125Y-105648125D03*
X179843125Y-108188125D03*
M02*
