%FSLAX45Y45*%
G04 Gerber Fmt 4.5, Leading zero omitted, Abs format (unit mm)*
G04 Created by KiCad (PCBNEW (5.1.10)-1) date 2021-12-09 13:10:16*
%MOMM*%
%LPD*%
G01*
G04 APERTURE LIST*
%TA.AperFunction,Profile*%
%ADD10C,0.150000*%
%TD*%
%ADD11C,0.200000*%
%ADD12C,0.300000*%
G04 APERTURE END LIST*
D10*
X17000000Y-17750000D02*
X17000000Y-9750000D01*
X17750000Y-18500000D02*
X46750000Y-18500000D01*
X17750000Y-9000000D02*
X46750000Y-9000000D01*
X47500000Y-9750000D02*
X47500000Y-17750000D01*
X47500000Y-17750000D02*
G75*
G02*
X46750000Y-18500000I-750000J0D01*
G01*
X46750000Y-9000000D02*
G75*
G02*
X47500000Y-9750000I0J-750000D01*
G01*
X17000000Y-9750000D02*
G75*
G02*
X17750000Y-9000000I750000J0D01*
G01*
X17750000Y-18500000D02*
G75*
G02*
X17000000Y-17750000I0J750000D01*
G01*
D11*
X18776000Y-13696000D02*
X18816000Y-13736000D01*
X18816000Y-13696000D02*
X18776000Y-13736000D01*
X18903000Y-15601000D02*
X18943000Y-15641000D01*
X18943000Y-15601000D02*
X18903000Y-15641000D01*
X19030000Y-11537000D02*
X19070000Y-11577000D01*
X19070000Y-11537000D02*
X19030000Y-11577000D01*
X19030000Y-17252000D02*
X19070000Y-17292000D01*
X19070000Y-17252000D02*
X19030000Y-17292000D01*
X19792000Y-10521000D02*
X19832000Y-10561000D01*
X19832000Y-10521000D02*
X19792000Y-10561000D01*
X21443000Y-11537000D02*
X21483000Y-11577000D01*
X21483000Y-11537000D02*
X21443000Y-11577000D01*
X21697000Y-13442000D02*
X21737000Y-13482000D01*
X21737000Y-13442000D02*
X21697000Y-13482000D01*
X21951000Y-10521000D02*
X21991000Y-10561000D01*
X21991000Y-10521000D02*
X21951000Y-10561000D01*
X23221000Y-14966000D02*
X23261000Y-15006000D01*
X23261000Y-14966000D02*
X23221000Y-15006000D01*
X23348000Y-11537000D02*
X23388000Y-11577000D01*
X23388000Y-11537000D02*
X23348000Y-11577000D01*
X23848970Y-10513970D02*
X23888970Y-10553970D01*
X23888970Y-10513970D02*
X23848970Y-10553970D01*
X23983000Y-13442000D02*
X24023000Y-13482000D01*
X24023000Y-13442000D02*
X23983000Y-13482000D01*
X23983000Y-17252000D02*
X24023000Y-17292000D01*
X24023000Y-17252000D02*
X23983000Y-17292000D01*
X24999000Y-15347000D02*
X25039000Y-15387000D01*
X25039000Y-15347000D02*
X24999000Y-15387000D01*
X25253000Y-11537000D02*
X25293000Y-11577000D01*
X25293000Y-11537000D02*
X25253000Y-11577000D01*
X25753969Y-10513969D02*
X25793969Y-10553969D01*
X25793969Y-10513969D02*
X25753969Y-10553969D01*
X25761000Y-13442000D02*
X25801000Y-13482000D01*
X25801000Y-13442000D02*
X25761000Y-13482000D01*
X26453150Y-17296450D02*
X26493150Y-17336450D01*
X26493150Y-17296450D02*
X26453150Y-17336450D01*
X26777000Y-15347000D02*
X26817000Y-15387000D01*
X26817000Y-15347000D02*
X26777000Y-15387000D01*
X27183400Y-15740700D02*
X27223400Y-15780700D01*
X27223400Y-15740700D02*
X27183400Y-15780700D01*
X27245185Y-11624185D02*
X27285185Y-11664185D01*
X27285185Y-11624185D02*
X27245185Y-11664185D01*
X27658968Y-10513968D02*
X27698968Y-10553968D01*
X27698968Y-10513968D02*
X27658968Y-10553968D01*
X27793000Y-13442000D02*
X27833000Y-13482000D01*
X27833000Y-13442000D02*
X27793000Y-13482000D01*
X28682000Y-15347000D02*
X28722000Y-15387000D01*
X28722000Y-15347000D02*
X28682000Y-15387000D01*
X29023186Y-11624186D02*
X29063186Y-11664186D01*
X29063186Y-11624186D02*
X29023186Y-11664186D01*
X29571000Y-10570459D02*
X29611000Y-10610459D01*
X29611000Y-10570459D02*
X29571000Y-10610459D01*
X29571000Y-13442000D02*
X29611000Y-13482000D01*
X29611000Y-13442000D02*
X29571000Y-13482000D01*
X30218700Y-15905800D02*
X30258700Y-15945800D01*
X30258700Y-15905800D02*
X30218700Y-15945800D01*
X30739400Y-15270800D02*
X30779400Y-15310800D01*
X30779400Y-15270800D02*
X30739400Y-15310800D01*
X30755000Y-10105000D02*
X30795000Y-10145000D01*
X30795000Y-10105000D02*
X30755000Y-10145000D01*
X30830000Y-10030000D02*
X30870000Y-10070000D01*
X30870000Y-10030000D02*
X30830000Y-10070000D01*
X30930000Y-11830000D02*
X30970000Y-11870000D01*
X30970000Y-11830000D02*
X30930000Y-11870000D01*
X30980000Y-12080000D02*
X31020000Y-12120000D01*
X31020000Y-12080000D02*
X30980000Y-12120000D01*
X31209537Y-11549463D02*
X31249537Y-11589463D01*
X31249537Y-11549463D02*
X31209537Y-11589463D01*
X31514100Y-15982000D02*
X31554100Y-16022000D01*
X31554100Y-15982000D02*
X31514100Y-16022000D01*
X31905000Y-10455000D02*
X31945000Y-10495000D01*
X31945000Y-10455000D02*
X31905000Y-10495000D01*
X31955000Y-11830000D02*
X31995000Y-11870000D01*
X31995000Y-11830000D02*
X31955000Y-11870000D01*
X31958600Y-13391200D02*
X31998600Y-13431200D01*
X31998600Y-13391200D02*
X31958600Y-13431200D01*
X32005000Y-13641501D02*
X32045000Y-13681501D01*
X32045000Y-13641501D02*
X32005000Y-13681501D01*
X32230000Y-12380000D02*
X32270000Y-12420000D01*
X32270000Y-12380000D02*
X32230000Y-12420000D01*
X32250700Y-13975400D02*
X32290700Y-14015400D01*
X32290700Y-13975400D02*
X32250700Y-14015400D01*
X32390400Y-9760270D02*
X32430400Y-9800270D01*
X32430400Y-9760270D02*
X32390400Y-9800270D01*
X32530000Y-9830000D02*
X32570000Y-9870000D01*
X32570000Y-9830000D02*
X32530000Y-9870000D01*
X32655000Y-9930000D02*
X32695000Y-9970000D01*
X32695000Y-9930000D02*
X32655000Y-9970000D01*
X32780000Y-10005000D02*
X32820000Y-10045000D01*
X32820000Y-10005000D02*
X32780000Y-10045000D01*
X32789984Y-14121916D02*
X32829984Y-14161916D01*
X32829984Y-14121916D02*
X32789984Y-14161916D01*
X32880000Y-10105000D02*
X32920000Y-10145000D01*
X32920000Y-10105000D02*
X32880000Y-10145000D01*
X33005000Y-10180000D02*
X33045000Y-10220000D01*
X33045000Y-10180000D02*
X33005000Y-10220000D01*
X33055534Y-15969300D02*
X33095534Y-16009300D01*
X33095534Y-15969300D02*
X33055534Y-16009300D01*
X33254000Y-17594900D02*
X33294000Y-17634900D01*
X33294000Y-17594900D02*
X33254000Y-17634900D01*
X33508000Y-10521000D02*
X33548000Y-10561000D01*
X33548000Y-10521000D02*
X33508000Y-10561000D01*
X33609600Y-13403900D02*
X33649600Y-13443900D01*
X33649600Y-13403900D02*
X33609600Y-13443900D01*
X33752416Y-11292584D02*
X33792416Y-11332584D01*
X33792416Y-11292584D02*
X33752416Y-11332584D01*
X33819150Y-12762550D02*
X33859150Y-12802550D01*
X33859150Y-12762550D02*
X33819150Y-12802550D01*
X34162050Y-17080550D02*
X34202050Y-17120550D01*
X34202050Y-17080550D02*
X34162050Y-17120550D01*
X34600200Y-15347000D02*
X34640200Y-15387000D01*
X34640200Y-15347000D02*
X34600200Y-15387000D01*
X34727200Y-17188500D02*
X34767200Y-17228500D01*
X34767200Y-17188500D02*
X34727200Y-17228500D01*
X34778000Y-11537000D02*
X34818000Y-11577000D01*
X34818000Y-11537000D02*
X34778000Y-11577000D01*
X35286000Y-10521000D02*
X35326000Y-10561000D01*
X35326000Y-10521000D02*
X35286000Y-10561000D01*
X35476500Y-13442000D02*
X35516500Y-13482000D01*
X35516500Y-13442000D02*
X35476500Y-13482000D01*
X36454400Y-15334300D02*
X36494400Y-15374300D01*
X36494400Y-15334300D02*
X36454400Y-15374300D01*
X36925533Y-11548467D02*
X36965533Y-11588467D01*
X36965533Y-11548467D02*
X36925533Y-11588467D01*
X37157234Y-10554766D02*
X37197234Y-10594766D01*
X37197234Y-10554766D02*
X37157234Y-10594766D01*
X37394200Y-13454700D02*
X37434200Y-13494700D01*
X37434200Y-13454700D02*
X37394200Y-13494700D01*
X38346700Y-15334300D02*
X38386700Y-15374300D01*
X38386700Y-15334300D02*
X38346700Y-15374300D01*
X38537200Y-15867700D02*
X38577200Y-15907700D01*
X38577200Y-15867700D02*
X38537200Y-15907700D01*
X38588000Y-11537000D02*
X38628000Y-11577000D01*
X38628000Y-11537000D02*
X38588000Y-11577000D01*
X39096000Y-10394000D02*
X39136000Y-10434000D01*
X39136000Y-10394000D02*
X39096000Y-10434000D01*
X39286500Y-13492800D02*
X39326500Y-13532800D01*
X39326500Y-13492800D02*
X39286500Y-13532800D01*
X40404100Y-14940600D02*
X40444100Y-14980600D01*
X40444100Y-14940600D02*
X40404100Y-14980600D01*
X40493000Y-11537000D02*
X40533000Y-11577000D01*
X40533000Y-11537000D02*
X40493000Y-11577000D01*
X41001000Y-10267000D02*
X41041000Y-10307000D01*
X41041000Y-10267000D02*
X41001000Y-10307000D01*
X41229600Y-13454700D02*
X41269600Y-13494700D01*
X41269600Y-13454700D02*
X41229600Y-13494700D01*
X42131300Y-16629700D02*
X42171300Y-16669700D01*
X42171300Y-16629700D02*
X42131300Y-16669700D01*
X42133000Y-9903000D02*
X42173000Y-9943000D01*
X42173000Y-9903000D02*
X42133000Y-9943000D01*
X42366214Y-15950286D02*
X42406214Y-15990286D01*
X42406214Y-15950286D02*
X42366214Y-15990286D01*
X42410700Y-17937800D02*
X42450700Y-17977800D01*
X42450700Y-17937800D02*
X42410700Y-17977800D01*
X42652000Y-15105700D02*
X42692000Y-15145700D01*
X42692000Y-15105700D02*
X42652000Y-15145700D01*
X42906000Y-10263045D02*
X42946000Y-10303045D01*
X42946000Y-10263045D02*
X42906000Y-10303045D01*
X43255000Y-11530000D02*
X43295000Y-11570000D01*
X43295000Y-11530000D02*
X43255000Y-11570000D01*
X43414000Y-13594400D02*
X43454000Y-13634400D01*
X43454000Y-13594400D02*
X43414000Y-13634400D01*
X43414000Y-14077000D02*
X43454000Y-14117000D01*
X43454000Y-14077000D02*
X43414000Y-14117000D01*
X43426700Y-12476800D02*
X43466700Y-12516800D01*
X43466700Y-12476800D02*
X43426700Y-12516800D01*
X43830000Y-13255000D02*
X43870000Y-13295000D01*
X43870000Y-13255000D02*
X43830000Y-13295000D01*
X44176000Y-15347000D02*
X44216000Y-15387000D01*
X44216000Y-15347000D02*
X44176000Y-15387000D01*
X44226800Y-15842300D02*
X44266800Y-15882300D01*
X44266800Y-15842300D02*
X44226800Y-15882300D01*
X44557000Y-14945680D02*
X44597000Y-14985680D01*
X44597000Y-14945680D02*
X44557000Y-14985680D01*
X44714733Y-13853733D02*
X44754733Y-13893733D01*
X44754733Y-13853733D02*
X44714733Y-13893733D01*
X44811000Y-10640998D02*
X44851000Y-10680998D01*
X44851000Y-10640998D02*
X44811000Y-10680998D01*
X46081000Y-12426000D02*
X46121000Y-12466000D01*
X46121000Y-12426000D02*
X46081000Y-12466000D01*
X46208000Y-15347000D02*
X46248000Y-15387000D01*
X46248000Y-15347000D02*
X46208000Y-15387000D01*
X46240728Y-11504272D02*
X46280728Y-11544272D01*
X46280728Y-11504272D02*
X46240728Y-11544272D01*
X46422010Y-13529010D02*
X46462010Y-13569010D01*
X46462010Y-13529010D02*
X46422010Y-13569010D01*
X46589000Y-14712000D02*
X46629000Y-14752000D01*
X46629000Y-14712000D02*
X46589000Y-14752000D01*
X46716000Y-10267000D02*
X46756000Y-10307000D01*
X46756000Y-10267000D02*
X46716000Y-10307000D01*
X31794450Y-9324848D02*
G75*
G03*
X31794450Y-9324848I-54610J0D01*
G01*
X31794450Y-9578848D02*
G75*
G03*
X31794450Y-9578848I-54610J0D01*
G01*
X31794450Y-9832848D02*
G75*
G03*
X31794450Y-9832848I-54610J0D01*
G01*
X31794450Y-10086848D02*
G75*
G03*
X31794450Y-10086848I-54610J0D01*
G01*
X31794450Y-10340848D02*
G75*
G03*
X31794450Y-10340848I-54610J0D01*
G01*
X31794450Y-10594848D02*
G75*
G03*
X31794450Y-10594848I-54610J0D01*
G01*
X31794450Y-10848848D02*
G75*
G03*
X31794450Y-10848848I-54610J0D01*
G01*
X31794450Y-11102848D02*
G75*
G03*
X31794450Y-11102848I-54610J0D01*
G01*
X31794450Y-11356848D02*
G75*
G03*
X31794450Y-11356848I-54610J0D01*
G01*
X31794450Y-11610848D02*
G75*
G03*
X31794450Y-11610848I-54610J0D01*
G01*
X31794450Y-11864848D02*
G75*
G03*
X31794450Y-11864848I-54610J0D01*
G01*
X31794450Y-12118848D02*
G75*
G03*
X31794450Y-12118848I-54610J0D01*
G01*
X33318450Y-9324848D02*
G75*
G03*
X33318450Y-9324848I-54610J0D01*
G01*
X33318450Y-9578848D02*
G75*
G03*
X33318450Y-9578848I-54610J0D01*
G01*
X33318450Y-9832848D02*
G75*
G03*
X33318450Y-9832848I-54610J0D01*
G01*
X33318450Y-10086848D02*
G75*
G03*
X33318450Y-10086848I-54610J0D01*
G01*
X33318450Y-10340848D02*
G75*
G03*
X33318450Y-10340848I-54610J0D01*
G01*
X33318450Y-10594848D02*
G75*
G03*
X33318450Y-10594848I-54610J0D01*
G01*
X33318450Y-10848848D02*
G75*
G03*
X33318450Y-10848848I-54610J0D01*
G01*
X33318450Y-11102848D02*
G75*
G03*
X33318450Y-11102848I-54610J0D01*
G01*
X33318450Y-11356848D02*
G75*
G03*
X33318450Y-11356848I-54610J0D01*
G01*
X33318450Y-11610848D02*
G75*
G03*
X33318450Y-11610848I-54610J0D01*
G01*
X33318450Y-11864848D02*
G75*
G03*
X33318450Y-11864848I-54610J0D01*
G01*
X33318450Y-12118848D02*
G75*
G03*
X33318450Y-12118848I-54610J0D01*
G01*
X32123035Y-10743873D02*
X32123035Y-10893733D01*
X32048105Y-10818803D02*
X32197965Y-10818803D01*
X32758035Y-10489873D02*
X32758035Y-10639733D01*
X32683105Y-10564803D02*
X32832965Y-10564803D01*
D12*
X17278928Y-18973214D02*
X17278928Y-18673214D01*
X17350357Y-18673214D01*
X17393214Y-18687500D01*
X17421786Y-18716072D01*
X17436071Y-18744643D01*
X17450357Y-18801786D01*
X17450357Y-18844643D01*
X17436071Y-18901786D01*
X17421786Y-18930357D01*
X17393214Y-18958929D01*
X17350357Y-18973214D01*
X17278928Y-18973214D01*
X17578928Y-18973214D02*
X17578928Y-18773214D01*
X17578928Y-18830357D02*
X17593214Y-18801786D01*
X17607500Y-18787500D01*
X17636071Y-18773214D01*
X17664643Y-18773214D01*
X17764643Y-18973214D02*
X17764643Y-18773214D01*
X17764643Y-18673214D02*
X17750357Y-18687500D01*
X17764643Y-18701786D01*
X17778928Y-18687500D01*
X17764643Y-18673214D01*
X17764643Y-18701786D01*
X17950357Y-18973214D02*
X17921786Y-18958929D01*
X17907500Y-18930357D01*
X17907500Y-18673214D01*
X18107500Y-18973214D02*
X18078928Y-18958929D01*
X18064643Y-18930357D01*
X18064643Y-18673214D01*
X18450357Y-18973214D02*
X18450357Y-18673214D01*
X18550357Y-18887500D01*
X18650357Y-18673214D01*
X18650357Y-18973214D01*
X18921786Y-18973214D02*
X18921786Y-18816072D01*
X18907500Y-18787500D01*
X18878928Y-18773214D01*
X18821786Y-18773214D01*
X18793214Y-18787500D01*
X18921786Y-18958929D02*
X18893214Y-18973214D01*
X18821786Y-18973214D01*
X18793214Y-18958929D01*
X18778928Y-18930357D01*
X18778928Y-18901786D01*
X18793214Y-18873214D01*
X18821786Y-18858929D01*
X18893214Y-18858929D01*
X18921786Y-18844643D01*
X19064643Y-18773214D02*
X19064643Y-19073214D01*
X19064643Y-18787500D02*
X19093214Y-18773214D01*
X19150357Y-18773214D01*
X19178928Y-18787500D01*
X19193214Y-18801786D01*
X19207500Y-18830357D01*
X19207500Y-18916072D01*
X19193214Y-18944643D01*
X19178928Y-18958929D01*
X19150357Y-18973214D01*
X19093214Y-18973214D01*
X19064643Y-18958929D01*
X19336071Y-18944643D02*
X19350357Y-18958929D01*
X19336071Y-18973214D01*
X19321786Y-18958929D01*
X19336071Y-18944643D01*
X19336071Y-18973214D01*
X19336071Y-18787500D02*
X19350357Y-18801786D01*
X19336071Y-18816072D01*
X19321786Y-18801786D01*
X19336071Y-18787500D01*
X19336071Y-18816072D01*
X16952500Y-19447500D02*
X16992500Y-19487500D01*
X16992500Y-19447500D02*
X16952500Y-19487500D01*
X17336071Y-19303214D02*
X17364643Y-19303214D01*
X17393214Y-19317500D01*
X17407500Y-19331786D01*
X17421786Y-19360357D01*
X17436071Y-19417500D01*
X17436071Y-19488929D01*
X17421786Y-19546072D01*
X17407500Y-19574643D01*
X17393214Y-19588929D01*
X17364643Y-19603214D01*
X17336071Y-19603214D01*
X17307500Y-19588929D01*
X17293214Y-19574643D01*
X17278928Y-19546072D01*
X17264643Y-19488929D01*
X17264643Y-19417500D01*
X17278928Y-19360357D01*
X17293214Y-19331786D01*
X17307500Y-19317500D01*
X17336071Y-19303214D01*
X17564643Y-19574643D02*
X17578928Y-19588929D01*
X17564643Y-19603214D01*
X17550357Y-19588929D01*
X17564643Y-19574643D01*
X17564643Y-19603214D01*
X17836071Y-19403214D02*
X17836071Y-19603214D01*
X17764643Y-19288929D02*
X17693214Y-19503214D01*
X17878928Y-19503214D01*
X18050357Y-19303214D02*
X18078928Y-19303214D01*
X18107500Y-19317500D01*
X18121786Y-19331786D01*
X18136071Y-19360357D01*
X18150357Y-19417500D01*
X18150357Y-19488929D01*
X18136071Y-19546072D01*
X18121786Y-19574643D01*
X18107500Y-19588929D01*
X18078928Y-19603214D01*
X18050357Y-19603214D01*
X18021786Y-19588929D01*
X18007500Y-19574643D01*
X17993214Y-19546072D01*
X17978928Y-19488929D01*
X17978928Y-19417500D01*
X17993214Y-19360357D01*
X18007500Y-19331786D01*
X18021786Y-19317500D01*
X18050357Y-19303214D01*
X18336071Y-19303214D02*
X18364643Y-19303214D01*
X18393214Y-19317500D01*
X18407500Y-19331786D01*
X18421786Y-19360357D01*
X18436071Y-19417500D01*
X18436071Y-19488929D01*
X18421786Y-19546072D01*
X18407500Y-19574643D01*
X18393214Y-19588929D01*
X18364643Y-19603214D01*
X18336071Y-19603214D01*
X18307500Y-19588929D01*
X18293214Y-19574643D01*
X18278928Y-19546072D01*
X18264643Y-19488929D01*
X18264643Y-19417500D01*
X18278928Y-19360357D01*
X18293214Y-19331786D01*
X18307500Y-19317500D01*
X18336071Y-19303214D01*
X18564643Y-19603214D02*
X18564643Y-19403214D01*
X18564643Y-19431786D02*
X18578928Y-19417500D01*
X18607500Y-19403214D01*
X18650357Y-19403214D01*
X18678928Y-19417500D01*
X18693214Y-19446072D01*
X18693214Y-19603214D01*
X18693214Y-19446072D02*
X18707500Y-19417500D01*
X18736071Y-19403214D01*
X18778928Y-19403214D01*
X18807500Y-19417500D01*
X18821786Y-19446072D01*
X18821786Y-19603214D01*
X18964643Y-19603214D02*
X18964643Y-19403214D01*
X18964643Y-19431786D02*
X18978928Y-19417500D01*
X19007500Y-19403214D01*
X19050357Y-19403214D01*
X19078928Y-19417500D01*
X19093214Y-19446072D01*
X19093214Y-19603214D01*
X19093214Y-19446072D02*
X19107500Y-19417500D01*
X19136071Y-19403214D01*
X19178928Y-19403214D01*
X19207500Y-19417500D01*
X19221786Y-19446072D01*
X19221786Y-19603214D01*
X19807500Y-19288929D02*
X19550357Y-19674643D01*
X20193214Y-19303214D02*
X20221786Y-19303214D01*
X20250357Y-19317500D01*
X20264643Y-19331786D01*
X20278928Y-19360357D01*
X20293214Y-19417500D01*
X20293214Y-19488929D01*
X20278928Y-19546072D01*
X20264643Y-19574643D01*
X20250357Y-19588929D01*
X20221786Y-19603214D01*
X20193214Y-19603214D01*
X20164643Y-19588929D01*
X20150357Y-19574643D01*
X20136071Y-19546072D01*
X20121786Y-19488929D01*
X20121786Y-19417500D01*
X20136071Y-19360357D01*
X20150357Y-19331786D01*
X20164643Y-19317500D01*
X20193214Y-19303214D01*
X20421786Y-19574643D02*
X20436071Y-19588929D01*
X20421786Y-19603214D01*
X20407500Y-19588929D01*
X20421786Y-19574643D01*
X20421786Y-19603214D01*
X20621786Y-19303214D02*
X20650357Y-19303214D01*
X20678928Y-19317500D01*
X20693214Y-19331786D01*
X20707500Y-19360357D01*
X20721786Y-19417500D01*
X20721786Y-19488929D01*
X20707500Y-19546072D01*
X20693214Y-19574643D01*
X20678928Y-19588929D01*
X20650357Y-19603214D01*
X20621786Y-19603214D01*
X20593214Y-19588929D01*
X20578928Y-19574643D01*
X20564643Y-19546072D01*
X20550357Y-19488929D01*
X20550357Y-19417500D01*
X20564643Y-19360357D01*
X20578928Y-19331786D01*
X20593214Y-19317500D01*
X20621786Y-19303214D01*
X21007500Y-19603214D02*
X20836071Y-19603214D01*
X20921786Y-19603214D02*
X20921786Y-19303214D01*
X20893214Y-19346072D01*
X20864643Y-19374643D01*
X20836071Y-19388929D01*
X21278928Y-19303214D02*
X21136071Y-19303214D01*
X21121786Y-19446072D01*
X21136071Y-19431786D01*
X21164643Y-19417500D01*
X21236071Y-19417500D01*
X21264643Y-19431786D01*
X21278928Y-19446072D01*
X21293214Y-19474643D01*
X21293214Y-19546072D01*
X21278928Y-19574643D01*
X21264643Y-19588929D01*
X21236071Y-19603214D01*
X21164643Y-19603214D01*
X21136071Y-19588929D01*
X21121786Y-19574643D01*
X21393214Y-19303214D02*
X21593214Y-19303214D01*
X21464643Y-19603214D01*
X21693214Y-19303214D02*
X21693214Y-19360357D01*
X21807500Y-19303214D02*
X21807500Y-19360357D01*
X22250357Y-19717500D02*
X22236071Y-19703214D01*
X22207500Y-19660357D01*
X22193214Y-19631786D01*
X22178928Y-19588929D01*
X22164643Y-19517500D01*
X22164643Y-19460357D01*
X22178928Y-19388929D01*
X22193214Y-19346072D01*
X22207500Y-19317500D01*
X22236071Y-19274643D01*
X22250357Y-19260357D01*
X22378928Y-19603214D02*
X22436071Y-19603214D01*
X22464643Y-19588929D01*
X22478928Y-19574643D01*
X22507500Y-19531786D01*
X22521786Y-19474643D01*
X22521786Y-19360357D01*
X22507500Y-19331786D01*
X22493214Y-19317500D01*
X22464643Y-19303214D01*
X22407500Y-19303214D01*
X22378928Y-19317500D01*
X22364643Y-19331786D01*
X22350357Y-19360357D01*
X22350357Y-19431786D01*
X22364643Y-19460357D01*
X22378928Y-19474643D01*
X22407500Y-19488929D01*
X22464643Y-19488929D01*
X22493214Y-19474643D01*
X22507500Y-19460357D01*
X22521786Y-19431786D01*
X22793214Y-19303214D02*
X22650357Y-19303214D01*
X22636071Y-19446072D01*
X22650357Y-19431786D01*
X22678928Y-19417500D01*
X22750357Y-19417500D01*
X22778928Y-19431786D01*
X22793214Y-19446072D01*
X22807500Y-19474643D01*
X22807500Y-19546072D01*
X22793214Y-19574643D01*
X22778928Y-19588929D01*
X22750357Y-19603214D01*
X22678928Y-19603214D01*
X22650357Y-19588929D01*
X22636071Y-19574643D01*
X23164643Y-19603214D02*
X23164643Y-19303214D01*
X23293214Y-19603214D02*
X23293214Y-19446072D01*
X23278928Y-19417500D01*
X23250357Y-19403214D01*
X23207500Y-19403214D01*
X23178928Y-19417500D01*
X23164643Y-19431786D01*
X23478928Y-19603214D02*
X23450357Y-19588929D01*
X23436071Y-19574643D01*
X23421786Y-19546072D01*
X23421786Y-19460357D01*
X23436071Y-19431786D01*
X23450357Y-19417500D01*
X23478928Y-19403214D01*
X23521786Y-19403214D01*
X23550357Y-19417500D01*
X23564643Y-19431786D01*
X23578928Y-19460357D01*
X23578928Y-19546072D01*
X23564643Y-19574643D01*
X23550357Y-19588929D01*
X23521786Y-19603214D01*
X23478928Y-19603214D01*
X23750357Y-19603214D02*
X23721786Y-19588929D01*
X23707500Y-19560357D01*
X23707500Y-19303214D01*
X23978928Y-19588929D02*
X23950357Y-19603214D01*
X23893214Y-19603214D01*
X23864643Y-19588929D01*
X23850357Y-19560357D01*
X23850357Y-19446072D01*
X23864643Y-19417500D01*
X23893214Y-19403214D01*
X23950357Y-19403214D01*
X23978928Y-19417500D01*
X23993214Y-19446072D01*
X23993214Y-19474643D01*
X23850357Y-19503214D01*
X24107500Y-19588929D02*
X24136071Y-19603214D01*
X24193214Y-19603214D01*
X24221786Y-19588929D01*
X24236071Y-19560357D01*
X24236071Y-19546072D01*
X24221786Y-19517500D01*
X24193214Y-19503214D01*
X24150357Y-19503214D01*
X24121786Y-19488929D01*
X24107500Y-19460357D01*
X24107500Y-19446072D01*
X24121786Y-19417500D01*
X24150357Y-19403214D01*
X24193214Y-19403214D01*
X24221786Y-19417500D01*
X24336071Y-19717500D02*
X24350357Y-19703214D01*
X24378928Y-19660357D01*
X24393214Y-19631786D01*
X24407500Y-19588929D01*
X24421786Y-19517500D01*
X24421786Y-19460357D01*
X24407500Y-19388929D01*
X24393214Y-19346072D01*
X24378928Y-19317500D01*
X24350357Y-19274643D01*
X24336071Y-19260357D01*
X16992500Y-19863500D02*
G75*
G03*
X16992500Y-19863500I-54610J0D01*
G01*
X17436071Y-19999214D02*
X17264643Y-19999214D01*
X17350357Y-19999214D02*
X17350357Y-19699214D01*
X17321786Y-19742072D01*
X17293214Y-19770643D01*
X17264643Y-19784929D01*
X17564643Y-19970643D02*
X17578928Y-19984929D01*
X17564643Y-19999214D01*
X17550357Y-19984929D01*
X17564643Y-19970643D01*
X17564643Y-19999214D01*
X17764643Y-19699214D02*
X17793214Y-19699214D01*
X17821786Y-19713500D01*
X17836071Y-19727786D01*
X17850357Y-19756357D01*
X17864643Y-19813500D01*
X17864643Y-19884929D01*
X17850357Y-19942072D01*
X17836071Y-19970643D01*
X17821786Y-19984929D01*
X17793214Y-19999214D01*
X17764643Y-19999214D01*
X17736071Y-19984929D01*
X17721786Y-19970643D01*
X17707500Y-19942072D01*
X17693214Y-19884929D01*
X17693214Y-19813500D01*
X17707500Y-19756357D01*
X17721786Y-19727786D01*
X17736071Y-19713500D01*
X17764643Y-19699214D01*
X18007500Y-19999214D02*
X18064643Y-19999214D01*
X18093214Y-19984929D01*
X18107500Y-19970643D01*
X18136071Y-19927786D01*
X18150357Y-19870643D01*
X18150357Y-19756357D01*
X18136071Y-19727786D01*
X18121786Y-19713500D01*
X18093214Y-19699214D01*
X18036071Y-19699214D01*
X18007500Y-19713500D01*
X17993214Y-19727786D01*
X17978928Y-19756357D01*
X17978928Y-19827786D01*
X17993214Y-19856357D01*
X18007500Y-19870643D01*
X18036071Y-19884929D01*
X18093214Y-19884929D01*
X18121786Y-19870643D01*
X18136071Y-19856357D01*
X18150357Y-19827786D01*
X18264643Y-19727786D02*
X18278928Y-19713500D01*
X18307500Y-19699214D01*
X18378928Y-19699214D01*
X18407500Y-19713500D01*
X18421786Y-19727786D01*
X18436071Y-19756357D01*
X18436071Y-19784929D01*
X18421786Y-19827786D01*
X18250357Y-19999214D01*
X18436071Y-19999214D01*
X18564643Y-19999214D02*
X18564643Y-19799214D01*
X18564643Y-19827786D02*
X18578928Y-19813500D01*
X18607500Y-19799214D01*
X18650357Y-19799214D01*
X18678928Y-19813500D01*
X18693214Y-19842072D01*
X18693214Y-19999214D01*
X18693214Y-19842072D02*
X18707500Y-19813500D01*
X18736071Y-19799214D01*
X18778928Y-19799214D01*
X18807500Y-19813500D01*
X18821786Y-19842072D01*
X18821786Y-19999214D01*
X18964643Y-19999214D02*
X18964643Y-19799214D01*
X18964643Y-19827786D02*
X18978928Y-19813500D01*
X19007500Y-19799214D01*
X19050357Y-19799214D01*
X19078928Y-19813500D01*
X19093214Y-19842072D01*
X19093214Y-19999214D01*
X19093214Y-19842072D02*
X19107500Y-19813500D01*
X19136071Y-19799214D01*
X19178928Y-19799214D01*
X19207500Y-19813500D01*
X19221786Y-19842072D01*
X19221786Y-19999214D01*
X19807500Y-19684929D02*
X19550357Y-20070643D01*
X20193214Y-19699214D02*
X20221786Y-19699214D01*
X20250357Y-19713500D01*
X20264643Y-19727786D01*
X20278928Y-19756357D01*
X20293214Y-19813500D01*
X20293214Y-19884929D01*
X20278928Y-19942072D01*
X20264643Y-19970643D01*
X20250357Y-19984929D01*
X20221786Y-19999214D01*
X20193214Y-19999214D01*
X20164643Y-19984929D01*
X20150357Y-19970643D01*
X20136071Y-19942072D01*
X20121786Y-19884929D01*
X20121786Y-19813500D01*
X20136071Y-19756357D01*
X20150357Y-19727786D01*
X20164643Y-19713500D01*
X20193214Y-19699214D01*
X20421786Y-19970643D02*
X20436071Y-19984929D01*
X20421786Y-19999214D01*
X20407500Y-19984929D01*
X20421786Y-19970643D01*
X20421786Y-19999214D01*
X20621786Y-19699214D02*
X20650357Y-19699214D01*
X20678928Y-19713500D01*
X20693214Y-19727786D01*
X20707500Y-19756357D01*
X20721786Y-19813500D01*
X20721786Y-19884929D01*
X20707500Y-19942072D01*
X20693214Y-19970643D01*
X20678928Y-19984929D01*
X20650357Y-19999214D01*
X20621786Y-19999214D01*
X20593214Y-19984929D01*
X20578928Y-19970643D01*
X20564643Y-19942072D01*
X20550357Y-19884929D01*
X20550357Y-19813500D01*
X20564643Y-19756357D01*
X20578928Y-19727786D01*
X20593214Y-19713500D01*
X20621786Y-19699214D01*
X20978928Y-19799214D02*
X20978928Y-19999214D01*
X20907500Y-19684929D02*
X20836071Y-19899214D01*
X21021786Y-19899214D01*
X21107500Y-19699214D02*
X21293214Y-19699214D01*
X21193214Y-19813500D01*
X21236071Y-19813500D01*
X21264643Y-19827786D01*
X21278928Y-19842072D01*
X21293214Y-19870643D01*
X21293214Y-19942072D01*
X21278928Y-19970643D01*
X21264643Y-19984929D01*
X21236071Y-19999214D01*
X21150357Y-19999214D01*
X21121786Y-19984929D01*
X21107500Y-19970643D01*
X21478928Y-19699214D02*
X21507500Y-19699214D01*
X21536071Y-19713500D01*
X21550357Y-19727786D01*
X21564643Y-19756357D01*
X21578928Y-19813500D01*
X21578928Y-19884929D01*
X21564643Y-19942072D01*
X21550357Y-19970643D01*
X21536071Y-19984929D01*
X21507500Y-19999214D01*
X21478928Y-19999214D01*
X21450357Y-19984929D01*
X21436071Y-19970643D01*
X21421786Y-19942072D01*
X21407500Y-19884929D01*
X21407500Y-19813500D01*
X21421786Y-19756357D01*
X21436071Y-19727786D01*
X21450357Y-19713500D01*
X21478928Y-19699214D01*
X21693214Y-19699214D02*
X21693214Y-19756357D01*
X21807500Y-19699214D02*
X21807500Y-19756357D01*
X22250357Y-20113500D02*
X22236071Y-20099214D01*
X22207500Y-20056357D01*
X22193214Y-20027786D01*
X22178928Y-19984929D01*
X22164643Y-19913500D01*
X22164643Y-19856357D01*
X22178928Y-19784929D01*
X22193214Y-19742072D01*
X22207500Y-19713500D01*
X22236071Y-19670643D01*
X22250357Y-19656357D01*
X22350357Y-19727786D02*
X22364643Y-19713500D01*
X22393214Y-19699214D01*
X22464643Y-19699214D01*
X22493214Y-19713500D01*
X22507500Y-19727786D01*
X22521786Y-19756357D01*
X22521786Y-19784929D01*
X22507500Y-19827786D01*
X22336071Y-19999214D01*
X22521786Y-19999214D01*
X22778928Y-19799214D02*
X22778928Y-19999214D01*
X22707500Y-19684929D02*
X22636071Y-19899214D01*
X22821786Y-19899214D01*
X23164643Y-19999214D02*
X23164643Y-19699214D01*
X23293214Y-19999214D02*
X23293214Y-19842072D01*
X23278928Y-19813500D01*
X23250357Y-19799214D01*
X23207500Y-19799214D01*
X23178928Y-19813500D01*
X23164643Y-19827786D01*
X23478928Y-19999214D02*
X23450357Y-19984929D01*
X23436071Y-19970643D01*
X23421786Y-19942072D01*
X23421786Y-19856357D01*
X23436071Y-19827786D01*
X23450357Y-19813500D01*
X23478928Y-19799214D01*
X23521786Y-19799214D01*
X23550357Y-19813500D01*
X23564643Y-19827786D01*
X23578928Y-19856357D01*
X23578928Y-19942072D01*
X23564643Y-19970643D01*
X23550357Y-19984929D01*
X23521786Y-19999214D01*
X23478928Y-19999214D01*
X23750357Y-19999214D02*
X23721786Y-19984929D01*
X23707500Y-19956357D01*
X23707500Y-19699214D01*
X23978928Y-19984929D02*
X23950357Y-19999214D01*
X23893214Y-19999214D01*
X23864643Y-19984929D01*
X23850357Y-19956357D01*
X23850357Y-19842072D01*
X23864643Y-19813500D01*
X23893214Y-19799214D01*
X23950357Y-19799214D01*
X23978928Y-19813500D01*
X23993214Y-19842072D01*
X23993214Y-19870643D01*
X23850357Y-19899214D01*
X24107500Y-19984929D02*
X24136071Y-19999214D01*
X24193214Y-19999214D01*
X24221786Y-19984929D01*
X24236071Y-19956357D01*
X24236071Y-19942072D01*
X24221786Y-19913500D01*
X24193214Y-19899214D01*
X24150357Y-19899214D01*
X24121786Y-19884929D01*
X24107500Y-19856357D01*
X24107500Y-19842072D01*
X24121786Y-19813500D01*
X24150357Y-19799214D01*
X24193214Y-19799214D01*
X24221786Y-19813500D01*
X24336071Y-20113500D02*
X24350357Y-20099214D01*
X24378928Y-20056357D01*
X24393214Y-20027786D01*
X24407500Y-19984929D01*
X24421786Y-19913500D01*
X24421786Y-19856357D01*
X24407500Y-19784929D01*
X24393214Y-19742072D01*
X24378928Y-19713500D01*
X24350357Y-19670643D01*
X24336071Y-19656357D01*
X16917570Y-20184570D02*
X16917570Y-20334430D01*
X16842640Y-20259500D02*
X16992500Y-20259500D01*
X17436071Y-20395214D02*
X17264643Y-20395214D01*
X17350357Y-20395214D02*
X17350357Y-20095214D01*
X17321786Y-20138072D01*
X17293214Y-20166643D01*
X17264643Y-20180929D01*
X17564643Y-20366643D02*
X17578928Y-20380929D01*
X17564643Y-20395214D01*
X17550357Y-20380929D01*
X17564643Y-20366643D01*
X17564643Y-20395214D01*
X17836071Y-20195214D02*
X17836071Y-20395214D01*
X17764643Y-20080929D02*
X17693214Y-20295214D01*
X17878928Y-20295214D01*
X18007500Y-20395214D02*
X18064643Y-20395214D01*
X18093214Y-20380929D01*
X18107500Y-20366643D01*
X18136071Y-20323786D01*
X18150357Y-20266643D01*
X18150357Y-20152357D01*
X18136071Y-20123786D01*
X18121786Y-20109500D01*
X18093214Y-20095214D01*
X18036071Y-20095214D01*
X18007500Y-20109500D01*
X17993214Y-20123786D01*
X17978928Y-20152357D01*
X17978928Y-20223786D01*
X17993214Y-20252357D01*
X18007500Y-20266643D01*
X18036071Y-20280929D01*
X18093214Y-20280929D01*
X18121786Y-20266643D01*
X18136071Y-20252357D01*
X18150357Y-20223786D01*
X18293214Y-20395214D02*
X18350357Y-20395214D01*
X18378928Y-20380929D01*
X18393214Y-20366643D01*
X18421786Y-20323786D01*
X18436071Y-20266643D01*
X18436071Y-20152357D01*
X18421786Y-20123786D01*
X18407500Y-20109500D01*
X18378928Y-20095214D01*
X18321786Y-20095214D01*
X18293214Y-20109500D01*
X18278928Y-20123786D01*
X18264643Y-20152357D01*
X18264643Y-20223786D01*
X18278928Y-20252357D01*
X18293214Y-20266643D01*
X18321786Y-20280929D01*
X18378928Y-20280929D01*
X18407500Y-20266643D01*
X18421786Y-20252357D01*
X18436071Y-20223786D01*
X18564643Y-20395214D02*
X18564643Y-20195214D01*
X18564643Y-20223786D02*
X18578928Y-20209500D01*
X18607500Y-20195214D01*
X18650357Y-20195214D01*
X18678928Y-20209500D01*
X18693214Y-20238072D01*
X18693214Y-20395214D01*
X18693214Y-20238072D02*
X18707500Y-20209500D01*
X18736071Y-20195214D01*
X18778928Y-20195214D01*
X18807500Y-20209500D01*
X18821786Y-20238072D01*
X18821786Y-20395214D01*
X18964643Y-20395214D02*
X18964643Y-20195214D01*
X18964643Y-20223786D02*
X18978928Y-20209500D01*
X19007500Y-20195214D01*
X19050357Y-20195214D01*
X19078928Y-20209500D01*
X19093214Y-20238072D01*
X19093214Y-20395214D01*
X19093214Y-20238072D02*
X19107500Y-20209500D01*
X19136071Y-20195214D01*
X19178928Y-20195214D01*
X19207500Y-20209500D01*
X19221786Y-20238072D01*
X19221786Y-20395214D01*
X19807500Y-20080929D02*
X19550357Y-20466643D01*
X20193214Y-20095214D02*
X20221786Y-20095214D01*
X20250357Y-20109500D01*
X20264643Y-20123786D01*
X20278928Y-20152357D01*
X20293214Y-20209500D01*
X20293214Y-20280929D01*
X20278928Y-20338072D01*
X20264643Y-20366643D01*
X20250357Y-20380929D01*
X20221786Y-20395214D01*
X20193214Y-20395214D01*
X20164643Y-20380929D01*
X20150357Y-20366643D01*
X20136071Y-20338072D01*
X20121786Y-20280929D01*
X20121786Y-20209500D01*
X20136071Y-20152357D01*
X20150357Y-20123786D01*
X20164643Y-20109500D01*
X20193214Y-20095214D01*
X20421786Y-20366643D02*
X20436071Y-20380929D01*
X20421786Y-20395214D01*
X20407500Y-20380929D01*
X20421786Y-20366643D01*
X20421786Y-20395214D01*
X20621786Y-20095214D02*
X20650357Y-20095214D01*
X20678928Y-20109500D01*
X20693214Y-20123786D01*
X20707500Y-20152357D01*
X20721786Y-20209500D01*
X20721786Y-20280929D01*
X20707500Y-20338072D01*
X20693214Y-20366643D01*
X20678928Y-20380929D01*
X20650357Y-20395214D01*
X20621786Y-20395214D01*
X20593214Y-20380929D01*
X20578928Y-20366643D01*
X20564643Y-20338072D01*
X20550357Y-20280929D01*
X20550357Y-20209500D01*
X20564643Y-20152357D01*
X20578928Y-20123786D01*
X20593214Y-20109500D01*
X20621786Y-20095214D01*
X20993214Y-20095214D02*
X20850357Y-20095214D01*
X20836071Y-20238072D01*
X20850357Y-20223786D01*
X20878928Y-20209500D01*
X20950357Y-20209500D01*
X20978928Y-20223786D01*
X20993214Y-20238072D01*
X21007500Y-20266643D01*
X21007500Y-20338072D01*
X20993214Y-20366643D01*
X20978928Y-20380929D01*
X20950357Y-20395214D01*
X20878928Y-20395214D01*
X20850357Y-20380929D01*
X20836071Y-20366643D01*
X21150357Y-20395214D02*
X21207500Y-20395214D01*
X21236071Y-20380929D01*
X21250357Y-20366643D01*
X21278928Y-20323786D01*
X21293214Y-20266643D01*
X21293214Y-20152357D01*
X21278928Y-20123786D01*
X21264643Y-20109500D01*
X21236071Y-20095214D01*
X21178928Y-20095214D01*
X21150357Y-20109500D01*
X21136071Y-20123786D01*
X21121786Y-20152357D01*
X21121786Y-20223786D01*
X21136071Y-20252357D01*
X21150357Y-20266643D01*
X21178928Y-20280929D01*
X21236071Y-20280929D01*
X21264643Y-20266643D01*
X21278928Y-20252357D01*
X21293214Y-20223786D01*
X21478928Y-20095214D02*
X21507500Y-20095214D01*
X21536071Y-20109500D01*
X21550357Y-20123786D01*
X21564643Y-20152357D01*
X21578928Y-20209500D01*
X21578928Y-20280929D01*
X21564643Y-20338072D01*
X21550357Y-20366643D01*
X21536071Y-20380929D01*
X21507500Y-20395214D01*
X21478928Y-20395214D01*
X21450357Y-20380929D01*
X21436071Y-20366643D01*
X21421786Y-20338072D01*
X21407500Y-20280929D01*
X21407500Y-20209500D01*
X21421786Y-20152357D01*
X21436071Y-20123786D01*
X21450357Y-20109500D01*
X21478928Y-20095214D01*
X21693214Y-20095214D02*
X21693214Y-20152357D01*
X21807500Y-20095214D02*
X21807500Y-20152357D01*
X22250357Y-20509500D02*
X22236071Y-20495214D01*
X22207500Y-20452357D01*
X22193214Y-20423786D01*
X22178928Y-20380929D01*
X22164643Y-20309500D01*
X22164643Y-20252357D01*
X22178928Y-20180929D01*
X22193214Y-20138072D01*
X22207500Y-20109500D01*
X22236071Y-20066643D01*
X22250357Y-20052357D01*
X22350357Y-20123786D02*
X22364643Y-20109500D01*
X22393214Y-20095214D01*
X22464643Y-20095214D01*
X22493214Y-20109500D01*
X22507500Y-20123786D01*
X22521786Y-20152357D01*
X22521786Y-20180929D01*
X22507500Y-20223786D01*
X22336071Y-20395214D01*
X22521786Y-20395214D01*
X22878928Y-20395214D02*
X22878928Y-20095214D01*
X23007500Y-20395214D02*
X23007500Y-20238072D01*
X22993214Y-20209500D01*
X22964643Y-20195214D01*
X22921786Y-20195214D01*
X22893214Y-20209500D01*
X22878928Y-20223786D01*
X23193214Y-20395214D02*
X23164643Y-20380929D01*
X23150357Y-20366643D01*
X23136071Y-20338072D01*
X23136071Y-20252357D01*
X23150357Y-20223786D01*
X23164643Y-20209500D01*
X23193214Y-20195214D01*
X23236071Y-20195214D01*
X23264643Y-20209500D01*
X23278928Y-20223786D01*
X23293214Y-20252357D01*
X23293214Y-20338072D01*
X23278928Y-20366643D01*
X23264643Y-20380929D01*
X23236071Y-20395214D01*
X23193214Y-20395214D01*
X23464643Y-20395214D02*
X23436071Y-20380929D01*
X23421786Y-20352357D01*
X23421786Y-20095214D01*
X23693214Y-20380929D02*
X23664643Y-20395214D01*
X23607500Y-20395214D01*
X23578928Y-20380929D01*
X23564643Y-20352357D01*
X23564643Y-20238072D01*
X23578928Y-20209500D01*
X23607500Y-20195214D01*
X23664643Y-20195214D01*
X23693214Y-20209500D01*
X23707500Y-20238072D01*
X23707500Y-20266643D01*
X23564643Y-20295214D01*
X23821786Y-20380929D02*
X23850357Y-20395214D01*
X23907500Y-20395214D01*
X23936071Y-20380929D01*
X23950357Y-20352357D01*
X23950357Y-20338072D01*
X23936071Y-20309500D01*
X23907500Y-20295214D01*
X23864643Y-20295214D01*
X23836071Y-20280929D01*
X23821786Y-20252357D01*
X23821786Y-20238072D01*
X23836071Y-20209500D01*
X23864643Y-20195214D01*
X23907500Y-20195214D01*
X23936071Y-20209500D01*
X24050357Y-20509500D02*
X24064643Y-20495214D01*
X24093214Y-20452357D01*
X24107500Y-20423786D01*
X24121786Y-20380929D01*
X24136071Y-20309500D01*
X24136071Y-20252357D01*
X24121786Y-20180929D01*
X24107500Y-20138072D01*
X24093214Y-20109500D01*
X24064643Y-20066643D01*
X24050357Y-20052357D01*
M02*
