G04 #@! TF.GenerationSoftware,KiCad,Pcbnew,(5.1.10)-1*
G04 #@! TF.CreationDate,2021-12-09T13:09:40+07:00*
G04 #@! TF.ProjectId,CK50,434b3530-2e6b-4696-9361-645f70636258,rev?*
G04 #@! TF.SameCoordinates,Original*
G04 #@! TF.FileFunction,Soldermask,Top*
G04 #@! TF.FilePolarity,Negative*
%FSLAX46Y46*%
G04 Gerber Fmt 4.6, Leading zero omitted, Abs format (unit mm)*
G04 Created by KiCad (PCBNEW (5.1.10)-1) date 2021-12-09 13:09:40*
%MOMM*%
%LPD*%
G01*
G04 APERTURE LIST*
%ADD10C,4.387800*%
%ADD11C,3.448000*%
%ADD12C,2.150000*%
%ADD13C,3.400000*%
%ADD14C,2.686000*%
%ADD15C,2.152600*%
%ADD16C,2.600000*%
G04 APERTURE END LIST*
D10*
X324993000Y-176149000D03*
X301117000Y-176149000D03*
D11*
X324993000Y-160909000D03*
X301117000Y-160909000D03*
D12*
X307975000Y-167894000D03*
X318135000Y-167894000D03*
D13*
X316865000Y-170434000D03*
D10*
X313055000Y-167894000D03*
D13*
X310515000Y-172974000D03*
D10*
X372618000Y-176149000D03*
X348742000Y-176149000D03*
D11*
X372618000Y-160909000D03*
X348742000Y-160909000D03*
D12*
X355600000Y-167894000D03*
X365760000Y-167894000D03*
D13*
X364490000Y-170434000D03*
D10*
X360680000Y-167894000D03*
D13*
X358140000Y-172974000D03*
D10*
X343941400Y-176123600D03*
X367817400Y-176123600D03*
D11*
X343941400Y-160883600D03*
X367817400Y-160883600D03*
D12*
X360959400Y-167868600D03*
X350799400Y-167868600D03*
D13*
X352069400Y-165328600D03*
D10*
X355879400Y-167868600D03*
D13*
X358419400Y-162788600D03*
D10*
X296316400Y-176123600D03*
X320192400Y-176123600D03*
D11*
X296316400Y-160883600D03*
X320192400Y-160883600D03*
D12*
X313334400Y-167868600D03*
X303174400Y-167868600D03*
D13*
X304444400Y-165328600D03*
D10*
X308254400Y-167868600D03*
D13*
X310794400Y-162788600D03*
G36*
G01*
X308569000Y-159350000D02*
X308569000Y-158150000D01*
G75*
G02*
X308769000Y-157950000I200000J0D01*
G01*
X309969000Y-157950000D01*
G75*
G02*
X310169000Y-158150000I0J-200000D01*
G01*
X310169000Y-159350000D01*
G75*
G02*
X309969000Y-159550000I-200000J0D01*
G01*
X308769000Y-159550000D01*
G75*
G02*
X308569000Y-159350000I0J200000D01*
G01*
G37*
G36*
G01*
X311369000Y-159350000D02*
X311369000Y-158150000D01*
G75*
G02*
X311569000Y-157950000I200000J0D01*
G01*
X312769000Y-157950000D01*
G75*
G02*
X312969000Y-158150000I0J-200000D01*
G01*
X312969000Y-159350000D01*
G75*
G02*
X312769000Y-159550000I-200000J0D01*
G01*
X311569000Y-159550000D01*
G75*
G02*
X311369000Y-159350000I0J200000D01*
G01*
G37*
D10*
X277415344Y-176132984D03*
X391715344Y-176132984D03*
D11*
X277415344Y-160892984D03*
X391715344Y-160892984D03*
D12*
X339645344Y-167877984D03*
X329485344Y-167877984D03*
D13*
X330755344Y-165337984D03*
D10*
X334565344Y-167877984D03*
D13*
X337105344Y-162797984D03*
G36*
G01*
X400136000Y-160620000D02*
X400136000Y-159420000D01*
G75*
G02*
X400336000Y-159220000I200000J0D01*
G01*
X401536000Y-159220000D01*
G75*
G02*
X401736000Y-159420000I0J-200000D01*
G01*
X401736000Y-160620000D01*
G75*
G02*
X401536000Y-160820000I-200000J0D01*
G01*
X400336000Y-160820000D01*
G75*
G02*
X400136000Y-160620000I0J200000D01*
G01*
G37*
G36*
G01*
X402936000Y-160620000D02*
X402936000Y-159420000D01*
G75*
G02*
X403136000Y-159220000I200000J0D01*
G01*
X404336000Y-159220000D01*
G75*
G02*
X404536000Y-159420000I0J-200000D01*
G01*
X404536000Y-160620000D01*
G75*
G02*
X404336000Y-160820000I-200000J0D01*
G01*
X403136000Y-160820000D01*
G75*
G02*
X402936000Y-160620000I0J200000D01*
G01*
G37*
D12*
X396671800Y-167843200D03*
X386511800Y-167843200D03*
D13*
X387781800Y-165303200D03*
D10*
X391591800Y-167843200D03*
D13*
X394131800Y-162763200D03*
G36*
G01*
X287233000Y-163160000D02*
X287233000Y-161960000D01*
G75*
G02*
X287433000Y-161760000I200000J0D01*
G01*
X288633000Y-161760000D01*
G75*
G02*
X288833000Y-161960000I0J-200000D01*
G01*
X288833000Y-163160000D01*
G75*
G02*
X288633000Y-163360000I-200000J0D01*
G01*
X287433000Y-163360000D01*
G75*
G02*
X287233000Y-163160000I0J200000D01*
G01*
G37*
G36*
G01*
X290033000Y-163160000D02*
X290033000Y-161960000D01*
G75*
G02*
X290233000Y-161760000I200000J0D01*
G01*
X291433000Y-161760000D01*
G75*
G02*
X291633000Y-161960000I0J-200000D01*
G01*
X291633000Y-163160000D01*
G75*
G02*
X291433000Y-163360000I-200000J0D01*
G01*
X290233000Y-163360000D01*
G75*
G02*
X290033000Y-163160000I0J200000D01*
G01*
G37*
D12*
X283210000Y-167868600D03*
X273050000Y-167868600D03*
D13*
X274320000Y-165328600D03*
D10*
X278130000Y-167868600D03*
D13*
X280670000Y-162788600D03*
D12*
X261044312Y-167877984D03*
X250884312Y-167877984D03*
D13*
X252154312Y-165337984D03*
D10*
X255964312Y-167877984D03*
D13*
X258504312Y-162797984D03*
D12*
X382507808Y-148828000D03*
X372347808Y-148828000D03*
D13*
X373617808Y-146288000D03*
D10*
X377427808Y-148828000D03*
D13*
X379967808Y-143748000D03*
D12*
X363457824Y-148828000D03*
X353297824Y-148828000D03*
D13*
X354567824Y-146288000D03*
D10*
X358377824Y-148828000D03*
D13*
X360917824Y-143748000D03*
D12*
X344407840Y-148828000D03*
X334247840Y-148828000D03*
D13*
X335517840Y-146288000D03*
D10*
X339327840Y-148828000D03*
D13*
X341867840Y-143748000D03*
D12*
X372982816Y-129778016D03*
X362822816Y-129778016D03*
D13*
X364092816Y-127238016D03*
D10*
X367902816Y-129778016D03*
D13*
X370442816Y-124698016D03*
D12*
X353932832Y-129778016D03*
X343772832Y-129778016D03*
D13*
X345042832Y-127238016D03*
D10*
X348852832Y-129778016D03*
D13*
X351392832Y-124698016D03*
D12*
X334882848Y-129778016D03*
X324722848Y-129778016D03*
D13*
X325992848Y-127238016D03*
D10*
X329802848Y-129778016D03*
D13*
X332342848Y-124698016D03*
D12*
X315832864Y-129778016D03*
X305672864Y-129778016D03*
D13*
X306942864Y-127238016D03*
D10*
X310752864Y-129778016D03*
D13*
X313292864Y-124698016D03*
D12*
X325357856Y-148828000D03*
X315197856Y-148828000D03*
D13*
X316467856Y-146288000D03*
D10*
X320277856Y-148828000D03*
D13*
X322817856Y-143748000D03*
D12*
X306307872Y-148828000D03*
X296147872Y-148828000D03*
D13*
X297417872Y-146288000D03*
D10*
X301227872Y-148828000D03*
D13*
X303767872Y-143748000D03*
D12*
X401557792Y-148828000D03*
X391397792Y-148828000D03*
D13*
X392667792Y-146288000D03*
D10*
X396477792Y-148828000D03*
D13*
X399017792Y-143748000D03*
D12*
X392032800Y-129778016D03*
X381872800Y-129778016D03*
D13*
X383142800Y-127238016D03*
D10*
X386952800Y-129778016D03*
D13*
X389492800Y-124698016D03*
D12*
X411082784Y-129778016D03*
X400922784Y-129778016D03*
D13*
X402192784Y-127238016D03*
D10*
X406002784Y-129778016D03*
D13*
X408542784Y-124698016D03*
D12*
X430132768Y-129778016D03*
X419972768Y-129778016D03*
D13*
X421242768Y-127238016D03*
D10*
X425052768Y-129778016D03*
D13*
X427592768Y-124698016D03*
D12*
X420607776Y-148828000D03*
X410447776Y-148828000D03*
D13*
X411717776Y-146288000D03*
D10*
X415527776Y-148828000D03*
D13*
X418067776Y-143748000D03*
D12*
X418226528Y-167877984D03*
X408066528Y-167877984D03*
D13*
X409336528Y-165337984D03*
D10*
X413146528Y-167877984D03*
D13*
X415686528Y-162797984D03*
D12*
X439657760Y-167877984D03*
X429497760Y-167877984D03*
D13*
X430767760Y-165337984D03*
D10*
X434577760Y-167877984D03*
D13*
X437117760Y-162797984D03*
D12*
X387270304Y-110728032D03*
X377110304Y-110728032D03*
D13*
X378380304Y-108188032D03*
D10*
X382190304Y-110728032D03*
D13*
X384730304Y-105648032D03*
D12*
X442039008Y-148828000D03*
X431879008Y-148828000D03*
D13*
X433149008Y-146288000D03*
D10*
X436959008Y-148828000D03*
D13*
X439499008Y-143748000D03*
D12*
X463470240Y-148828000D03*
X453310240Y-148828000D03*
D13*
X454580240Y-146288000D03*
D10*
X458390240Y-148828000D03*
D13*
X460930240Y-143748000D03*
D12*
X456326496Y-129778016D03*
X446166496Y-129778016D03*
D13*
X447436496Y-127238016D03*
D10*
X451246496Y-129778016D03*
D13*
X453786496Y-124698016D03*
D12*
X463470240Y-110728032D03*
X453310240Y-110728032D03*
D13*
X454580240Y-108188032D03*
D10*
X458390240Y-110728032D03*
D13*
X460930240Y-105648032D03*
D12*
X444420256Y-110728032D03*
X434260256Y-110728032D03*
D13*
X435530256Y-108188032D03*
D10*
X439340256Y-110728032D03*
D13*
X441880256Y-105648032D03*
D12*
X425370272Y-110728032D03*
X415210272Y-110728032D03*
D13*
X416480272Y-108188032D03*
D10*
X420290272Y-110728032D03*
D13*
X422830272Y-105648032D03*
D12*
X406320288Y-110728032D03*
X396160288Y-110728032D03*
D13*
X397430288Y-108188032D03*
D10*
X401240288Y-110728032D03*
D13*
X403780288Y-105648032D03*
D12*
X296782880Y-129778016D03*
X286622880Y-129778016D03*
D13*
X287892880Y-127238016D03*
D10*
X291702880Y-129778016D03*
D13*
X294242880Y-124698016D03*
D12*
X287257888Y-148828000D03*
X277097888Y-148828000D03*
D13*
X278367888Y-146288000D03*
D10*
X282177888Y-148828000D03*
D13*
X284717888Y-143748000D03*
D12*
X268207904Y-148828000D03*
X258047904Y-148828000D03*
D13*
X259317904Y-146288000D03*
D10*
X263127904Y-148828000D03*
D13*
X265667904Y-143748000D03*
D14*
X327580352Y-105648032D03*
X321230352Y-108188032D03*
D12*
X368220320Y-110728032D03*
X358060320Y-110728032D03*
D13*
X359330320Y-108188032D03*
D10*
X363140320Y-110728032D03*
D13*
X365680320Y-105648032D03*
D12*
X349170336Y-110728032D03*
X339010336Y-110728032D03*
D13*
X340280336Y-108188032D03*
D10*
X344090336Y-110728032D03*
D13*
X346630336Y-105648032D03*
D12*
X311070368Y-110728032D03*
X300910368Y-110728032D03*
D13*
X302180368Y-108188032D03*
D10*
X305990368Y-110728032D03*
D13*
X308530368Y-105648032D03*
D12*
X292020384Y-110728032D03*
X281860384Y-110728032D03*
D13*
X283130384Y-108188032D03*
D10*
X286940384Y-110728032D03*
D13*
X289480384Y-105648032D03*
D12*
X277732896Y-129778016D03*
X267572896Y-129778016D03*
D13*
X268842896Y-127238016D03*
D10*
X272652896Y-129778016D03*
D13*
X275192896Y-124698016D03*
D12*
X258682912Y-129778016D03*
X248522912Y-129778016D03*
D13*
X249792912Y-127238016D03*
D10*
X253602912Y-129778016D03*
D13*
X256142912Y-124698016D03*
D12*
X272970400Y-110728032D03*
X262810400Y-110728032D03*
D13*
X264080400Y-108188032D03*
D10*
X267890400Y-110728032D03*
D13*
X270430400Y-105648032D03*
D12*
X253920416Y-110728032D03*
X243760416Y-110728032D03*
D13*
X245030416Y-108188032D03*
D10*
X248840416Y-110728032D03*
D13*
X251380416Y-105648032D03*
D12*
X249157920Y-148828000D03*
X238997920Y-148828000D03*
D13*
X240267920Y-146288000D03*
D10*
X244077920Y-148828000D03*
D13*
X246617920Y-143748000D03*
D12*
X239632928Y-129778016D03*
X229472928Y-129778016D03*
D13*
X230742928Y-127238016D03*
D10*
X234552928Y-129778016D03*
D13*
X237092928Y-124698016D03*
D12*
X234870432Y-110728032D03*
X224710432Y-110728032D03*
D13*
X225980432Y-108188032D03*
D10*
X229790432Y-110728032D03*
D13*
X232330432Y-105648032D03*
D12*
X239632928Y-167877984D03*
X229472928Y-167877984D03*
D13*
X230742928Y-165337984D03*
D10*
X234552928Y-167877984D03*
D13*
X237092928Y-162797984D03*
D12*
X222964192Y-148828000D03*
X212804192Y-148828000D03*
D13*
X214074192Y-146288000D03*
D10*
X217884192Y-148828000D03*
D13*
X220424192Y-143748000D03*
D12*
X218201696Y-129778016D03*
X208041696Y-129778016D03*
D13*
X209311696Y-127238016D03*
D10*
X213121696Y-129778016D03*
D13*
X215661696Y-124698016D03*
D12*
X215820448Y-110728032D03*
X205660448Y-110728032D03*
D13*
X206930448Y-108188032D03*
D10*
X210740448Y-110728032D03*
D13*
X213280448Y-105648032D03*
D12*
X192027816Y-167877984D03*
X181867816Y-167877984D03*
D13*
X183137816Y-165337984D03*
D10*
X186947816Y-167877984D03*
D13*
X189487816Y-162797984D03*
D12*
X192007968Y-148828000D03*
X181847968Y-148828000D03*
D13*
X183117968Y-146288000D03*
D10*
X186927968Y-148828000D03*
D13*
X189467968Y-143748000D03*
D12*
X192007968Y-129778016D03*
X181847968Y-129778016D03*
D13*
X183117968Y-127238016D03*
D10*
X186927968Y-129778016D03*
D13*
X189467968Y-124698016D03*
D12*
X192008125Y-110728125D03*
X181848125Y-110728125D03*
D13*
X183118125Y-108188125D03*
D10*
X186928125Y-110728125D03*
D13*
X189468125Y-105648125D03*
D15*
X332638400Y-93248480D03*
X317398400Y-121188480D03*
X332638400Y-95788480D03*
X332638400Y-98328480D03*
X332638400Y-100868480D03*
X332638400Y-103408480D03*
X332638400Y-105948480D03*
X332638400Y-108488480D03*
X332638400Y-111028480D03*
X332638400Y-113568480D03*
X332638400Y-116108480D03*
X332638400Y-118648480D03*
X332638400Y-121188480D03*
X317398400Y-118648480D03*
X317398400Y-116108480D03*
X317398400Y-113568480D03*
X317398400Y-111028480D03*
X317398400Y-108488480D03*
X317398400Y-105948480D03*
X317398400Y-103408480D03*
X317398400Y-100868480D03*
X317398400Y-98328480D03*
X317398400Y-95788480D03*
G36*
G01*
X316522100Y-92172180D02*
X318274700Y-92172180D01*
G75*
G02*
X318474700Y-92372180I0J-200000D01*
G01*
X318474700Y-94124780D01*
G75*
G02*
X318274700Y-94324780I-200000J0D01*
G01*
X316522100Y-94324780D01*
G75*
G02*
X316322100Y-94124780I0J200000D01*
G01*
X316322100Y-92372180D01*
G75*
G02*
X316522100Y-92172180I200000J0D01*
G01*
G37*
D16*
X382168400Y-120180100D03*
X451243700Y-139230100D03*
X377405900Y-160629600D03*
X244055900Y-158280100D03*
X210731100Y-120167400D03*
X310743600Y-139230100D03*
M02*
