%FSLAX45Y45*%
G04 Gerber Fmt 4.5, Leading zero omitted, Abs format (unit mm)*
G04 Created by KiCad (PCBNEW (5.1.10)-1) date 2021-12-09 13:10:16*
%MOMM*%
%LPD*%
G01*
G04 APERTURE LIST*
%TA.AperFunction,Profile*%
%ADD10C,0.150000*%
%TD*%
%ADD11C,0.200000*%
%ADD12C,0.300000*%
G04 APERTURE END LIST*
D10*
X17000000Y-17750000D02*
X17000000Y-9750000D01*
X17750000Y-18500000D02*
X46750000Y-18500000D01*
X17750000Y-9000000D02*
X46750000Y-9000000D01*
X47500000Y-9750000D02*
X47500000Y-17750000D01*
X47500000Y-17750000D02*
G75*
G02*
X46750000Y-18500000I-750000J0D01*
G01*
X46750000Y-9000000D02*
G75*
G02*
X47500000Y-9750000I0J-750000D01*
G01*
X17000000Y-9750000D02*
G75*
G02*
X17750000Y-9000000I750000J0D01*
G01*
X17750000Y-18500000D02*
G75*
G02*
X17000000Y-17750000I0J750000D01*
G01*
D11*
X18097297Y-12890302D02*
X18272297Y-13065302D01*
X18272297Y-12890302D02*
X18097297Y-13065302D01*
X18097297Y-14795300D02*
X18272297Y-14970300D01*
X18272297Y-14795300D02*
X18097297Y-14970300D01*
X18097313Y-10985313D02*
X18272313Y-11160313D01*
X18272313Y-10985313D02*
X18097313Y-11160313D01*
X18099282Y-16700298D02*
X18274282Y-16875298D01*
X18274282Y-16700298D02*
X18099282Y-16875298D01*
X19113297Y-12890302D02*
X19288297Y-13065302D01*
X19288297Y-12890302D02*
X19113297Y-13065302D01*
X19113297Y-14795300D02*
X19288297Y-14970300D01*
X19288297Y-14795300D02*
X19113297Y-14970300D01*
X19113313Y-10985313D02*
X19288313Y-11160313D01*
X19288313Y-10985313D02*
X19113313Y-11160313D01*
X19115282Y-16700298D02*
X19290282Y-16875298D01*
X19290282Y-16700298D02*
X19115282Y-16875298D01*
X20478545Y-10985303D02*
X20653545Y-11160303D01*
X20653545Y-10985303D02*
X20478545Y-11160303D01*
X20716670Y-12890302D02*
X20891670Y-13065302D01*
X20891670Y-12890302D02*
X20716670Y-13065302D01*
X21192919Y-14795300D02*
X21367919Y-14970300D01*
X21367919Y-14795300D02*
X21192919Y-14970300D01*
X21494545Y-10985303D02*
X21669545Y-11160303D01*
X21669545Y-10985303D02*
X21494545Y-11160303D01*
X21732670Y-12890302D02*
X21907670Y-13065302D01*
X21907670Y-12890302D02*
X21732670Y-13065302D01*
X22208919Y-14795300D02*
X22383919Y-14970300D01*
X22383919Y-14795300D02*
X22208919Y-14970300D01*
X22383543Y-10985303D02*
X22558543Y-11160303D01*
X22558543Y-10985303D02*
X22383543Y-11160303D01*
X22859793Y-12890302D02*
X23034793Y-13065302D01*
X23034793Y-12890302D02*
X22859793Y-13065302D01*
X22859793Y-16700298D02*
X23034793Y-16875298D01*
X23034793Y-16700298D02*
X22859793Y-16875298D01*
X23399543Y-10985303D02*
X23574543Y-11160303D01*
X23574543Y-10985303D02*
X23399543Y-11160303D01*
X23812292Y-14795300D02*
X23987292Y-14970300D01*
X23987292Y-14795300D02*
X23812292Y-14970300D01*
X23875793Y-12890302D02*
X24050793Y-13065302D01*
X24050793Y-12890302D02*
X23875793Y-13065302D01*
X23875793Y-16700298D02*
X24050793Y-16875298D01*
X24050793Y-16700298D02*
X23875793Y-16875298D01*
X24288542Y-10985303D02*
X24463542Y-11160303D01*
X24463542Y-10985303D02*
X24288542Y-11160303D01*
X24764791Y-12890302D02*
X24939791Y-13065302D01*
X24939791Y-12890302D02*
X24764791Y-13065302D01*
X24828292Y-14795300D02*
X25003292Y-14970300D01*
X25003292Y-14795300D02*
X24828292Y-14970300D01*
X25000931Y-16700298D02*
X25175931Y-16875298D01*
X25175931Y-16700298D02*
X25000931Y-16875298D01*
X25304542Y-10985303D02*
X25479542Y-11160303D01*
X25479542Y-10985303D02*
X25304542Y-11160303D01*
X25717290Y-14795300D02*
X25892290Y-14970300D01*
X25892290Y-14795300D02*
X25717290Y-14970300D01*
X25780791Y-12890302D02*
X25955791Y-13065302D01*
X25955791Y-12890302D02*
X25780791Y-13065302D01*
X26016931Y-16700298D02*
X26191931Y-16875298D01*
X26191931Y-16700298D02*
X26016931Y-16875298D01*
X26193540Y-10985303D02*
X26368540Y-11160303D01*
X26368540Y-10985303D02*
X26193540Y-11160303D01*
X26669790Y-12890302D02*
X26844790Y-13065302D01*
X26844790Y-12890302D02*
X26669790Y-13065302D01*
X26733290Y-14795300D02*
X26908290Y-14970300D01*
X26908290Y-14795300D02*
X26733290Y-14970300D01*
X27209540Y-10985303D02*
X27384540Y-11160303D01*
X27384540Y-10985303D02*
X27209540Y-11160303D01*
X27217500Y-16699360D02*
X27392500Y-16874360D01*
X27392500Y-16699360D02*
X27217500Y-16874360D01*
X27622289Y-14795300D02*
X27797289Y-14970300D01*
X27797289Y-14795300D02*
X27622289Y-14970300D01*
X27685790Y-12890302D02*
X27860790Y-13065302D01*
X27860790Y-12890302D02*
X27685790Y-13065302D01*
X28098538Y-10985303D02*
X28273538Y-11160303D01*
X28273538Y-10985303D02*
X28098538Y-11160303D01*
X28233500Y-16699360D02*
X28408500Y-16874360D01*
X28408500Y-16699360D02*
X28233500Y-16874360D01*
X28574788Y-12890302D02*
X28749788Y-13065302D01*
X28749788Y-12890302D02*
X28574788Y-13065302D01*
X28638289Y-14795300D02*
X28813289Y-14970300D01*
X28813289Y-14795300D02*
X28638289Y-14970300D01*
X29114538Y-10985303D02*
X29289538Y-11160303D01*
X29289538Y-10985303D02*
X29114538Y-11160303D01*
X29527287Y-14795300D02*
X29702287Y-14970300D01*
X29702287Y-14795300D02*
X29527287Y-14970300D01*
X29590788Y-12890302D02*
X29765788Y-13065302D01*
X29765788Y-12890302D02*
X29590788Y-13065302D01*
X30003537Y-10985303D02*
X30178537Y-11160303D01*
X30178537Y-10985303D02*
X30003537Y-11160303D01*
X30229940Y-16699360D02*
X30404940Y-16874360D01*
X30404940Y-16699360D02*
X30229940Y-16874360D01*
X30479786Y-12890302D02*
X30654786Y-13065302D01*
X30654786Y-12890302D02*
X30479786Y-13065302D01*
X30543287Y-14795300D02*
X30718287Y-14970300D01*
X30718287Y-14795300D02*
X30543287Y-14970300D01*
X30710000Y-16701900D02*
X30885000Y-16876900D01*
X30885000Y-16701900D02*
X30710000Y-16876900D01*
X31019537Y-10985303D02*
X31194537Y-11160303D01*
X31194537Y-10985303D02*
X31019537Y-11160303D01*
X31245940Y-16699360D02*
X31420940Y-16874360D01*
X31420940Y-16699360D02*
X31245940Y-16874360D01*
X31432286Y-14795300D02*
X31607286Y-14970300D01*
X31607286Y-14795300D02*
X31432286Y-14970300D01*
X31495786Y-12890302D02*
X31670786Y-13065302D01*
X31670786Y-12890302D02*
X31495786Y-13065302D01*
X31726000Y-16701900D02*
X31901000Y-16876900D01*
X31901000Y-16701900D02*
X31726000Y-16876900D01*
X32384785Y-12890302D02*
X32559785Y-13065302D01*
X32559785Y-12890302D02*
X32384785Y-13065302D01*
X32448286Y-14795300D02*
X32623286Y-14970300D01*
X32623286Y-14795300D02*
X32448286Y-14970300D01*
X32861034Y-16700298D02*
X33036034Y-16875298D01*
X33036034Y-16700298D02*
X32861034Y-16875298D01*
X33337284Y-14795300D02*
X33512284Y-14970300D01*
X33512284Y-14795300D02*
X33337284Y-14970300D01*
X33400785Y-12890302D02*
X33575785Y-13065302D01*
X33575785Y-12890302D02*
X33400785Y-13065302D01*
X33813534Y-10985303D02*
X33988534Y-11160303D01*
X33988534Y-10985303D02*
X33813534Y-11160303D01*
X33877034Y-16700298D02*
X34052034Y-16875298D01*
X34052034Y-16700298D02*
X33877034Y-16875298D01*
X34289783Y-12890302D02*
X34464783Y-13065302D01*
X34464783Y-12890302D02*
X34289783Y-13065302D01*
X34353284Y-14795300D02*
X34528284Y-14970300D01*
X34528284Y-14795300D02*
X34353284Y-14970300D01*
X34829534Y-10985303D02*
X35004534Y-11160303D01*
X35004534Y-10985303D02*
X34829534Y-11160303D01*
X34992440Y-16699360D02*
X35167440Y-16874360D01*
X35167440Y-16699360D02*
X34992440Y-16874360D01*
X35242282Y-14795300D02*
X35417282Y-14970300D01*
X35417282Y-14795300D02*
X35242282Y-14970300D01*
X35305783Y-12890302D02*
X35480783Y-13065302D01*
X35480783Y-12890302D02*
X35305783Y-13065302D01*
X35472500Y-16701900D02*
X35647500Y-16876900D01*
X35647500Y-16701900D02*
X35472500Y-16876900D01*
X35718532Y-10985303D02*
X35893532Y-11160303D01*
X35893532Y-10985303D02*
X35718532Y-11160303D01*
X36008440Y-16699360D02*
X36183440Y-16874360D01*
X36183440Y-16699360D02*
X36008440Y-16874360D01*
X36194782Y-12890302D02*
X36369782Y-13065302D01*
X36369782Y-12890302D02*
X36194782Y-13065302D01*
X36258282Y-14795300D02*
X36433282Y-14970300D01*
X36433282Y-14795300D02*
X36258282Y-14970300D01*
X36488500Y-16701900D02*
X36663500Y-16876900D01*
X36663500Y-16701900D02*
X36488500Y-16876900D01*
X36734532Y-10985303D02*
X36909532Y-11160303D01*
X36909532Y-10985303D02*
X36734532Y-11160303D01*
X37147281Y-14795300D02*
X37322281Y-14970300D01*
X37322281Y-14795300D02*
X37147281Y-14970300D01*
X37210782Y-12890302D02*
X37385782Y-13065302D01*
X37385782Y-12890302D02*
X37210782Y-13065302D01*
X37623530Y-10985303D02*
X37798530Y-11160303D01*
X37798530Y-10985303D02*
X37623530Y-11160303D01*
X38099780Y-12890302D02*
X38274780Y-13065302D01*
X38274780Y-12890302D02*
X38099780Y-13065302D01*
X38163281Y-14795300D02*
X38338281Y-14970300D01*
X38338281Y-14795300D02*
X38163281Y-14970300D01*
X38563680Y-16696820D02*
X38738680Y-16871820D01*
X38738680Y-16696820D02*
X38563680Y-16871820D01*
X38639530Y-10985303D02*
X38814530Y-11160303D01*
X38814530Y-10985303D02*
X38639530Y-11160303D01*
X39052279Y-14795300D02*
X39227279Y-14970300D01*
X39227279Y-14795300D02*
X39052279Y-14970300D01*
X39115780Y-12890302D02*
X39290780Y-13065302D01*
X39290780Y-12890302D02*
X39115780Y-13065302D01*
X39528529Y-10985303D02*
X39703529Y-11160303D01*
X39703529Y-10985303D02*
X39528529Y-11160303D01*
X39579680Y-16696820D02*
X39754680Y-16871820D01*
X39754680Y-16696820D02*
X39579680Y-16871820D01*
X40004778Y-12890302D02*
X40179778Y-13065302D01*
X40179778Y-12890302D02*
X40004778Y-13065302D01*
X40068279Y-14795300D02*
X40243279Y-14970300D01*
X40243279Y-14795300D02*
X40068279Y-14970300D01*
X40544529Y-10985303D02*
X40719529Y-11160303D01*
X40719529Y-10985303D02*
X40544529Y-11160303D01*
X40719153Y-16700298D02*
X40894153Y-16875298D01*
X40894153Y-16700298D02*
X40719153Y-16875298D01*
X40957278Y-14795300D02*
X41132278Y-14970300D01*
X41132278Y-14795300D02*
X40957278Y-14970300D01*
X41020778Y-12890302D02*
X41195778Y-13065302D01*
X41195778Y-12890302D02*
X41020778Y-13065302D01*
X41433527Y-10985303D02*
X41608527Y-11160303D01*
X41608527Y-10985303D02*
X41433527Y-11160303D01*
X41735153Y-16700298D02*
X41910153Y-16875298D01*
X41910153Y-16700298D02*
X41735153Y-16875298D01*
X41909777Y-12890302D02*
X42084777Y-13065302D01*
X42084777Y-12890302D02*
X41909777Y-13065302D01*
X41973278Y-14795300D02*
X42148278Y-14970300D01*
X42148278Y-14795300D02*
X41973278Y-14970300D01*
X42449527Y-10985303D02*
X42624527Y-11160303D01*
X42624527Y-10985303D02*
X42449527Y-11160303D01*
X42862276Y-16700298D02*
X43037276Y-16875298D01*
X43037276Y-16700298D02*
X42862276Y-16875298D01*
X42925777Y-12890302D02*
X43100777Y-13065302D01*
X43100777Y-12890302D02*
X42925777Y-13065302D01*
X43100401Y-14795300D02*
X43275401Y-14970300D01*
X43275401Y-14795300D02*
X43100401Y-14970300D01*
X43338526Y-10985303D02*
X43513526Y-11160303D01*
X43513526Y-10985303D02*
X43338526Y-11160303D01*
X43878276Y-16700298D02*
X44053276Y-16875298D01*
X44053276Y-16700298D02*
X43878276Y-16875298D01*
X44116401Y-14795300D02*
X44291401Y-14970300D01*
X44291401Y-14795300D02*
X44116401Y-14970300D01*
X44354526Y-10985303D02*
X44529526Y-11160303D01*
X44529526Y-10985303D02*
X44354526Y-11160303D01*
X44529150Y-12890302D02*
X44704150Y-13065302D01*
X44704150Y-12890302D02*
X44529150Y-13065302D01*
X45243524Y-10985303D02*
X45418524Y-11160303D01*
X45418524Y-10985303D02*
X45243524Y-11160303D01*
X45243524Y-14795300D02*
X45418524Y-14970300D01*
X45418524Y-14795300D02*
X45243524Y-14970300D01*
X45545150Y-12890302D02*
X45720150Y-13065302D01*
X45720150Y-12890302D02*
X45545150Y-13065302D01*
X46259524Y-10985303D02*
X46434524Y-11160303D01*
X46434524Y-10985303D02*
X46259524Y-11160303D01*
X46259524Y-14795300D02*
X46434524Y-14970300D01*
X46434524Y-14795300D02*
X46259524Y-14970300D01*
X32086035Y-11072803D02*
G75*
G03*
X32086035Y-11072803I-90000J0D01*
G01*
X33102035Y-11072803D02*
G75*
G03*
X33102035Y-11072803I-90000J0D01*
G01*
X21073110Y-11906740D02*
X21073110Y-12126740D01*
X20963110Y-12016740D02*
X21183110Y-12016740D01*
X24405590Y-15718010D02*
X24405590Y-15938010D01*
X24295590Y-15828010D02*
X24515590Y-15828010D01*
X31074360Y-13813010D02*
X31074360Y-14033010D01*
X30964360Y-13923010D02*
X31184360Y-13923010D01*
X37740590Y-15952960D02*
X37740590Y-16172960D01*
X37630590Y-16062960D02*
X37850590Y-16062960D01*
X38216840Y-11908010D02*
X38216840Y-12128010D01*
X38106840Y-12018010D02*
X38326840Y-12018010D01*
X45124370Y-13813010D02*
X45124370Y-14033010D01*
X45014370Y-13923010D02*
X45234370Y-13923010D01*
X18417864Y-12829869D02*
X18417864Y-12617735D01*
X18205730Y-12617735D01*
X18205730Y-12829869D01*
X18417864Y-12829869D01*
X18417864Y-14734867D02*
X18417864Y-14522733D01*
X18205730Y-14522733D01*
X18205730Y-14734867D01*
X18417864Y-14734867D01*
X18417880Y-10924880D02*
X18417880Y-10712746D01*
X18205746Y-10712746D01*
X18205746Y-10924880D01*
X18417880Y-10924880D01*
X18419849Y-16639865D02*
X18419849Y-16427731D01*
X18207715Y-16427731D01*
X18207715Y-16639865D01*
X18419849Y-16639865D01*
X19052864Y-12575869D02*
X19052864Y-12363735D01*
X18840730Y-12363735D01*
X18840730Y-12575869D01*
X19052864Y-12575869D01*
X19052864Y-14480867D02*
X19052864Y-14268733D01*
X18840730Y-14268733D01*
X18840730Y-14480867D01*
X19052864Y-14480867D01*
X19052880Y-10670880D02*
X19052880Y-10458746D01*
X18840746Y-10458746D01*
X18840746Y-10670880D01*
X19052880Y-10670880D01*
X19054849Y-16385865D02*
X19054849Y-16173731D01*
X18842715Y-16173731D01*
X18842715Y-16385865D01*
X19054849Y-16385865D01*
X20799112Y-10924870D02*
X20799112Y-10712736D01*
X20586978Y-10712736D01*
X20586978Y-10924870D01*
X20799112Y-10924870D01*
X21037237Y-12829869D02*
X21037237Y-12617735D01*
X20825103Y-12617735D01*
X20825103Y-12829869D01*
X21037237Y-12829869D01*
X21434112Y-10670870D02*
X21434112Y-10458736D01*
X21221978Y-10458736D01*
X21221978Y-10670870D01*
X21434112Y-10670870D01*
X21513486Y-14734867D02*
X21513486Y-14522733D01*
X21301352Y-14522733D01*
X21301352Y-14734867D01*
X21513486Y-14734867D01*
X21672237Y-12575869D02*
X21672237Y-12363735D01*
X21460103Y-12363735D01*
X21460103Y-12575869D01*
X21672237Y-12575869D01*
X22148486Y-14480867D02*
X22148486Y-14268733D01*
X21936352Y-14268733D01*
X21936352Y-14480867D01*
X22148486Y-14480867D01*
X22704110Y-10924870D02*
X22704110Y-10712736D01*
X22491976Y-10712736D01*
X22491976Y-10924870D01*
X22704110Y-10924870D01*
X23180360Y-12829869D02*
X23180360Y-12617735D01*
X22968226Y-12617735D01*
X22968226Y-12829869D01*
X23180360Y-12829869D01*
X23180360Y-16639865D02*
X23180360Y-16427731D01*
X22968226Y-16427731D01*
X22968226Y-16639865D01*
X23180360Y-16639865D01*
X23339110Y-10670870D02*
X23339110Y-10458736D01*
X23126976Y-10458736D01*
X23126976Y-10670870D01*
X23339110Y-10670870D01*
X23815360Y-12575869D02*
X23815360Y-12363735D01*
X23603226Y-12363735D01*
X23603226Y-12575869D01*
X23815360Y-12575869D01*
X23815360Y-16385865D02*
X23815360Y-16173731D01*
X23603226Y-16173731D01*
X23603226Y-16385865D01*
X23815360Y-16385865D01*
X24132859Y-14734867D02*
X24132859Y-14522733D01*
X23920725Y-14522733D01*
X23920725Y-14734867D01*
X24132859Y-14734867D01*
X24609109Y-10924870D02*
X24609109Y-10712736D01*
X24396975Y-10712736D01*
X24396975Y-10924870D01*
X24609109Y-10924870D01*
X24767859Y-14480867D02*
X24767859Y-14268733D01*
X24555725Y-14268733D01*
X24555725Y-14480867D01*
X24767859Y-14480867D01*
X25085358Y-12829869D02*
X25085358Y-12617735D01*
X24873224Y-12617735D01*
X24873224Y-12829869D01*
X25085358Y-12829869D01*
X25244109Y-10670870D02*
X25244109Y-10458736D01*
X25031975Y-10458736D01*
X25031975Y-10670870D01*
X25244109Y-10670870D01*
X25321498Y-16639865D02*
X25321498Y-16427731D01*
X25109364Y-16427731D01*
X25109364Y-16639865D01*
X25321498Y-16639865D01*
X25720358Y-12575869D02*
X25720358Y-12363735D01*
X25508224Y-12363735D01*
X25508224Y-12575869D01*
X25720358Y-12575869D01*
X25956498Y-16385865D02*
X25956498Y-16173731D01*
X25744364Y-16173731D01*
X25744364Y-16385865D01*
X25956498Y-16385865D01*
X26037857Y-14734867D02*
X26037857Y-14522733D01*
X25825723Y-14522733D01*
X25825723Y-14734867D01*
X26037857Y-14734867D01*
X26514107Y-10924870D02*
X26514107Y-10712736D01*
X26301973Y-10712736D01*
X26301973Y-10924870D01*
X26514107Y-10924870D01*
X26672857Y-14480867D02*
X26672857Y-14268733D01*
X26460723Y-14268733D01*
X26460723Y-14480867D01*
X26672857Y-14480867D01*
X26990357Y-12829869D02*
X26990357Y-12617735D01*
X26778223Y-12617735D01*
X26778223Y-12829869D01*
X26990357Y-12829869D01*
X27149107Y-10670870D02*
X27149107Y-10458736D01*
X26936973Y-10458736D01*
X26936973Y-10670870D01*
X27149107Y-10670870D01*
X27538067Y-16638927D02*
X27538067Y-16426793D01*
X27325933Y-16426793D01*
X27325933Y-16638927D01*
X27538067Y-16638927D01*
X27625357Y-12575869D02*
X27625357Y-12363735D01*
X27413223Y-12363735D01*
X27413223Y-12575869D01*
X27625357Y-12575869D01*
X27942856Y-14734867D02*
X27942856Y-14522733D01*
X27730722Y-14522733D01*
X27730722Y-14734867D01*
X27942856Y-14734867D01*
X28173067Y-16384927D02*
X28173067Y-16172793D01*
X27960933Y-16172793D01*
X27960933Y-16384927D01*
X28173067Y-16384927D01*
X28419105Y-10924870D02*
X28419105Y-10712736D01*
X28206971Y-10712736D01*
X28206971Y-10924870D01*
X28419105Y-10924870D01*
X28577856Y-14480867D02*
X28577856Y-14268733D01*
X28365722Y-14268733D01*
X28365722Y-14480867D01*
X28577856Y-14480867D01*
X28895355Y-12829869D02*
X28895355Y-12617735D01*
X28683221Y-12617735D01*
X28683221Y-12829869D01*
X28895355Y-12829869D01*
X29054105Y-10670870D02*
X29054105Y-10458736D01*
X28841971Y-10458736D01*
X28841971Y-10670870D01*
X29054105Y-10670870D01*
X29530355Y-12575869D02*
X29530355Y-12363735D01*
X29318221Y-12363735D01*
X29318221Y-12575869D01*
X29530355Y-12575869D01*
X29847854Y-14734867D02*
X29847854Y-14522733D01*
X29635720Y-14522733D01*
X29635720Y-14734867D01*
X29847854Y-14734867D01*
X30324104Y-10924870D02*
X30324104Y-10712736D01*
X30111970Y-10712736D01*
X30111970Y-10924870D01*
X30324104Y-10924870D01*
X30482854Y-14480867D02*
X30482854Y-14268733D01*
X30270720Y-14268733D01*
X30270720Y-14480867D01*
X30482854Y-14480867D01*
X30550507Y-16638927D02*
X30550507Y-16426793D01*
X30338373Y-16426793D01*
X30338373Y-16638927D01*
X30550507Y-16638927D01*
X30800353Y-12829869D02*
X30800353Y-12617735D01*
X30588219Y-12617735D01*
X30588219Y-12829869D01*
X30800353Y-12829869D01*
X30959104Y-10670870D02*
X30959104Y-10458736D01*
X30746970Y-10458736D01*
X30746970Y-10670870D01*
X30959104Y-10670870D01*
X31157567Y-17403467D02*
X31157567Y-17191333D01*
X30945433Y-17191333D01*
X30945433Y-17403467D01*
X31157567Y-17403467D01*
X31185507Y-16384927D02*
X31185507Y-16172793D01*
X30973373Y-16172793D01*
X30973373Y-16384927D01*
X31185507Y-16384927D01*
X31435353Y-12575869D02*
X31435353Y-12363735D01*
X31223219Y-12363735D01*
X31223219Y-12575869D01*
X31435353Y-12575869D01*
X31752853Y-14734867D02*
X31752853Y-14522733D01*
X31540719Y-14522733D01*
X31540719Y-14734867D01*
X31752853Y-14734867D01*
X31792567Y-17149467D02*
X31792567Y-16937333D01*
X31580433Y-16937333D01*
X31580433Y-17149467D01*
X31792567Y-17149467D01*
X32387853Y-14480867D02*
X32387853Y-14268733D01*
X32175719Y-14268733D01*
X32175719Y-14480867D01*
X32387853Y-14480867D01*
X32705352Y-12829869D02*
X32705352Y-12617735D01*
X32493218Y-12617735D01*
X32493218Y-12829869D01*
X32705352Y-12829869D01*
X33181601Y-16639865D02*
X33181601Y-16427731D01*
X32969467Y-16427731D01*
X32969467Y-16639865D01*
X33181601Y-16639865D01*
X33340352Y-12575869D02*
X33340352Y-12363735D01*
X33128218Y-12363735D01*
X33128218Y-12575869D01*
X33340352Y-12575869D01*
X33657851Y-14734867D02*
X33657851Y-14522733D01*
X33445717Y-14522733D01*
X33445717Y-14734867D01*
X33657851Y-14734867D01*
X33816601Y-16385865D02*
X33816601Y-16173731D01*
X33604467Y-16173731D01*
X33604467Y-16385865D01*
X33816601Y-16385865D01*
X34134101Y-10924870D02*
X34134101Y-10712736D01*
X33921967Y-10712736D01*
X33921967Y-10924870D01*
X34134101Y-10924870D01*
X34292851Y-14480867D02*
X34292851Y-14268733D01*
X34080717Y-14268733D01*
X34080717Y-14480867D01*
X34292851Y-14480867D01*
X34610350Y-12829869D02*
X34610350Y-12617735D01*
X34398216Y-12617735D01*
X34398216Y-12829869D01*
X34610350Y-12829869D01*
X34769101Y-10670870D02*
X34769101Y-10458736D01*
X34556967Y-10458736D01*
X34556967Y-10670870D01*
X34769101Y-10670870D01*
X35245350Y-12575869D02*
X35245350Y-12363735D01*
X35033216Y-12363735D01*
X35033216Y-12575869D01*
X35245350Y-12575869D01*
X35313007Y-16638927D02*
X35313007Y-16426793D01*
X35100873Y-16426793D01*
X35100873Y-16638927D01*
X35313007Y-16638927D01*
X35562849Y-14734867D02*
X35562849Y-14522733D01*
X35350715Y-14522733D01*
X35350715Y-14734867D01*
X35562849Y-14734867D01*
X35920067Y-17403467D02*
X35920067Y-17191333D01*
X35707933Y-17191333D01*
X35707933Y-17403467D01*
X35920067Y-17403467D01*
X35948007Y-16384927D02*
X35948007Y-16172793D01*
X35735873Y-16172793D01*
X35735873Y-16384927D01*
X35948007Y-16384927D01*
X36039099Y-10924870D02*
X36039099Y-10712736D01*
X35826965Y-10712736D01*
X35826965Y-10924870D01*
X36039099Y-10924870D01*
X36197849Y-14480867D02*
X36197849Y-14268733D01*
X35985715Y-14268733D01*
X35985715Y-14480867D01*
X36197849Y-14480867D01*
X36515349Y-12829869D02*
X36515349Y-12617735D01*
X36303215Y-12617735D01*
X36303215Y-12829869D01*
X36515349Y-12829869D01*
X36555067Y-17149467D02*
X36555067Y-16937333D01*
X36342933Y-16937333D01*
X36342933Y-17149467D01*
X36555067Y-17149467D01*
X36674099Y-10670870D02*
X36674099Y-10458736D01*
X36461965Y-10458736D01*
X36461965Y-10670870D01*
X36674099Y-10670870D01*
X37150349Y-12575869D02*
X37150349Y-12363735D01*
X36938215Y-12363735D01*
X36938215Y-12575869D01*
X37150349Y-12575869D01*
X37467848Y-14734867D02*
X37467848Y-14522733D01*
X37255714Y-14522733D01*
X37255714Y-14734867D01*
X37467848Y-14734867D01*
X37944097Y-10924870D02*
X37944097Y-10712736D01*
X37731963Y-10712736D01*
X37731963Y-10924870D01*
X37944097Y-10924870D01*
X38102848Y-14480867D02*
X38102848Y-14268733D01*
X37890714Y-14268733D01*
X37890714Y-14480867D01*
X38102848Y-14480867D01*
X38420347Y-12829869D02*
X38420347Y-12617735D01*
X38208213Y-12617735D01*
X38208213Y-12829869D01*
X38420347Y-12829869D01*
X38579097Y-10670870D02*
X38579097Y-10458736D01*
X38366963Y-10458736D01*
X38366963Y-10670870D01*
X38579097Y-10670870D01*
X38884247Y-16636387D02*
X38884247Y-16424253D01*
X38672113Y-16424253D01*
X38672113Y-16636387D01*
X38884247Y-16636387D01*
X39055347Y-12575869D02*
X39055347Y-12363735D01*
X38843213Y-12363735D01*
X38843213Y-12575869D01*
X39055347Y-12575869D01*
X39372846Y-14734867D02*
X39372846Y-14522733D01*
X39160712Y-14522733D01*
X39160712Y-14734867D01*
X39372846Y-14734867D01*
X39519247Y-16382387D02*
X39519247Y-16170253D01*
X39307113Y-16170253D01*
X39307113Y-16382387D01*
X39519247Y-16382387D01*
X39849096Y-10924870D02*
X39849096Y-10712736D01*
X39636962Y-10712736D01*
X39636962Y-10924870D01*
X39849096Y-10924870D01*
X40007846Y-14480867D02*
X40007846Y-14268733D01*
X39795712Y-14268733D01*
X39795712Y-14480867D01*
X40007846Y-14480867D01*
X40325345Y-12829869D02*
X40325345Y-12617735D01*
X40113211Y-12617735D01*
X40113211Y-12829869D01*
X40325345Y-12829869D01*
X40484096Y-10670870D02*
X40484096Y-10458736D01*
X40271962Y-10458736D01*
X40271962Y-10670870D01*
X40484096Y-10670870D01*
X40960345Y-12575869D02*
X40960345Y-12363735D01*
X40748211Y-12363735D01*
X40748211Y-12575869D01*
X40960345Y-12575869D01*
X41039720Y-16639865D02*
X41039720Y-16427731D01*
X40827586Y-16427731D01*
X40827586Y-16639865D01*
X41039720Y-16639865D01*
X41277845Y-14734867D02*
X41277845Y-14522733D01*
X41065711Y-14522733D01*
X41065711Y-14734867D01*
X41277845Y-14734867D01*
X41674720Y-16385865D02*
X41674720Y-16173731D01*
X41462586Y-16173731D01*
X41462586Y-16385865D01*
X41674720Y-16385865D01*
X41754094Y-10924870D02*
X41754094Y-10712736D01*
X41541960Y-10712736D01*
X41541960Y-10924870D01*
X41754094Y-10924870D01*
X41912845Y-14480867D02*
X41912845Y-14268733D01*
X41700711Y-14268733D01*
X41700711Y-14480867D01*
X41912845Y-14480867D01*
X42230344Y-12829869D02*
X42230344Y-12617735D01*
X42018210Y-12617735D01*
X42018210Y-12829869D01*
X42230344Y-12829869D01*
X42389094Y-10670870D02*
X42389094Y-10458736D01*
X42176960Y-10458736D01*
X42176960Y-10670870D01*
X42389094Y-10670870D01*
X42865344Y-12575869D02*
X42865344Y-12363735D01*
X42653210Y-12363735D01*
X42653210Y-12575869D01*
X42865344Y-12575869D01*
X43182843Y-16639865D02*
X43182843Y-16427731D01*
X42970709Y-16427731D01*
X42970709Y-16639865D01*
X43182843Y-16639865D01*
X43420968Y-14734867D02*
X43420968Y-14522733D01*
X43208834Y-14522733D01*
X43208834Y-14734867D01*
X43420968Y-14734867D01*
X43659093Y-10924870D02*
X43659093Y-10712736D01*
X43446959Y-10712736D01*
X43446959Y-10924870D01*
X43659093Y-10924870D01*
X43817843Y-16385865D02*
X43817843Y-16173731D01*
X43605709Y-16173731D01*
X43605709Y-16385865D01*
X43817843Y-16385865D01*
X44055968Y-14480867D02*
X44055968Y-14268733D01*
X43843834Y-14268733D01*
X43843834Y-14480867D01*
X44055968Y-14480867D01*
X44294093Y-10670870D02*
X44294093Y-10458736D01*
X44081959Y-10458736D01*
X44081959Y-10670870D01*
X44294093Y-10670870D01*
X44849717Y-12829869D02*
X44849717Y-12617735D01*
X44637583Y-12617735D01*
X44637583Y-12829869D01*
X44849717Y-12829869D01*
X45484717Y-12575869D02*
X45484717Y-12363735D01*
X45272583Y-12363735D01*
X45272583Y-12575869D01*
X45484717Y-12575869D01*
X45564091Y-10924870D02*
X45564091Y-10712736D01*
X45351957Y-10712736D01*
X45351957Y-10924870D01*
X45564091Y-10924870D01*
X45564091Y-14734867D02*
X45564091Y-14522733D01*
X45351957Y-14522733D01*
X45351957Y-14734867D01*
X45564091Y-14734867D01*
X46199091Y-10670870D02*
X46199091Y-10458736D01*
X45986957Y-10458736D01*
X45986957Y-10670870D01*
X46199091Y-10670870D01*
X46199091Y-14480867D02*
X46199091Y-14268733D01*
X45986957Y-14268733D01*
X45986957Y-14480867D01*
X46199091Y-14480867D01*
X27741534Y-16241698D02*
X27893934Y-16089298D01*
X27741534Y-15936898D01*
X27589134Y-16089298D01*
X27741534Y-16241698D01*
X29631640Y-16240760D02*
X29784040Y-16088360D01*
X29631640Y-15935960D01*
X29479240Y-16088360D01*
X29631640Y-16240760D01*
X30111700Y-16243300D02*
X30264100Y-16090900D01*
X30111700Y-15938500D01*
X29959300Y-16090900D01*
X30111700Y-16243300D01*
X32019240Y-16240760D02*
X32171640Y-16088360D01*
X32019240Y-15935960D01*
X31866840Y-16088360D01*
X32019240Y-16240760D01*
X32499300Y-16243300D02*
X32651700Y-16090900D01*
X32499300Y-15938500D01*
X32346900Y-16090900D01*
X32499300Y-16243300D01*
X34394140Y-16240760D02*
X34546540Y-16088360D01*
X34394140Y-15935960D01*
X34241740Y-16088360D01*
X34394140Y-16240760D01*
X34874200Y-16243300D02*
X35026600Y-16090900D01*
X34874200Y-15938500D01*
X34721800Y-16090900D01*
X34874200Y-16243300D01*
X36781740Y-16240760D02*
X36934140Y-16088360D01*
X36781740Y-15935960D01*
X36629340Y-16088360D01*
X36781740Y-16240760D01*
X37261800Y-16243300D02*
X37414200Y-16090900D01*
X37261800Y-15938500D01*
X37109400Y-16090900D01*
X37261800Y-16243300D01*
X39171534Y-16241698D02*
X39323934Y-16089298D01*
X39171534Y-15936898D01*
X39019134Y-16089298D01*
X39171534Y-16241698D01*
X18493407Y-12778412D02*
X18892187Y-13177192D01*
X18892187Y-12778412D02*
X18493407Y-13177192D01*
X18892187Y-12977802D02*
G75*
G03*
X18892187Y-12977802I-199390J0D01*
G01*
X18493407Y-14683410D02*
X18892187Y-15082190D01*
X18892187Y-14683410D02*
X18493407Y-15082190D01*
X18892187Y-14882800D02*
G75*
G03*
X18892187Y-14882800I-199390J0D01*
G01*
X18493423Y-10873423D02*
X18892203Y-11272202D01*
X18892203Y-10873423D02*
X18493423Y-11272202D01*
X18892203Y-11072813D02*
G75*
G03*
X18892203Y-11072813I-199390J0D01*
G01*
X18495392Y-16588408D02*
X18894172Y-16987188D01*
X18894172Y-16588408D02*
X18495392Y-16987188D01*
X18894172Y-16787798D02*
G75*
G03*
X18894172Y-16787798I-199390J0D01*
G01*
X20874655Y-10873413D02*
X21273435Y-11272193D01*
X21273435Y-10873413D02*
X20874655Y-11272193D01*
X21273435Y-11072803D02*
G75*
G03*
X21273435Y-11072803I-199390J0D01*
G01*
X21112780Y-12778412D02*
X21511560Y-13177192D01*
X21511560Y-12778412D02*
X21112780Y-13177192D01*
X21511560Y-12977802D02*
G75*
G03*
X21511560Y-12977802I-199390J0D01*
G01*
X21589029Y-14683410D02*
X21987809Y-15082190D01*
X21987809Y-14683410D02*
X21589029Y-15082190D01*
X21987809Y-14882800D02*
G75*
G03*
X21987809Y-14882800I-199390J0D01*
G01*
X22779653Y-10873413D02*
X23178433Y-11272193D01*
X23178433Y-10873413D02*
X22779653Y-11272193D01*
X23178433Y-11072803D02*
G75*
G03*
X23178433Y-11072803I-199390J0D01*
G01*
X23255903Y-12778412D02*
X23654683Y-13177192D01*
X23654683Y-12778412D02*
X23255903Y-13177192D01*
X23654683Y-12977802D02*
G75*
G03*
X23654683Y-12977802I-199390J0D01*
G01*
X23255903Y-16588408D02*
X23654683Y-16987188D01*
X23654683Y-16588408D02*
X23255903Y-16987188D01*
X23654683Y-16787798D02*
G75*
G03*
X23654683Y-16787798I-199390J0D01*
G01*
X24208402Y-14683410D02*
X24607182Y-15082190D01*
X24607182Y-14683410D02*
X24208402Y-15082190D01*
X24607182Y-14882800D02*
G75*
G03*
X24607182Y-14882800I-199390J0D01*
G01*
X24684652Y-10873413D02*
X25083432Y-11272193D01*
X25083432Y-10873413D02*
X24684652Y-11272193D01*
X25083432Y-11072803D02*
G75*
G03*
X25083432Y-11072803I-199390J0D01*
G01*
X25160901Y-12778412D02*
X25559681Y-13177192D01*
X25559681Y-12778412D02*
X25160901Y-13177192D01*
X25559681Y-12977802D02*
G75*
G03*
X25559681Y-12977802I-199390J0D01*
G01*
X25397041Y-16588408D02*
X25795821Y-16987188D01*
X25795821Y-16588408D02*
X25397041Y-16987188D01*
X25795821Y-16787798D02*
G75*
G03*
X25795821Y-16787798I-199390J0D01*
G01*
X26113400Y-14683410D02*
X26512180Y-15082190D01*
X26512180Y-14683410D02*
X26113400Y-15082190D01*
X26512180Y-14882800D02*
G75*
G03*
X26512180Y-14882800I-199390J0D01*
G01*
X26589650Y-10873413D02*
X26988430Y-11272193D01*
X26988430Y-10873413D02*
X26589650Y-11272193D01*
X26988430Y-11072803D02*
G75*
G03*
X26988430Y-11072803I-199390J0D01*
G01*
X27065900Y-12778412D02*
X27464680Y-13177192D01*
X27464680Y-12778412D02*
X27065900Y-13177192D01*
X27464680Y-12977802D02*
G75*
G03*
X27464680Y-12977802I-199390J0D01*
G01*
X27542144Y-17413908D02*
X27940924Y-17812688D01*
X27940924Y-17413908D02*
X27542144Y-17812688D01*
X27940924Y-17613298D02*
G75*
G03*
X27940924Y-17613298I-199390J0D01*
G01*
X27613610Y-16587470D02*
X28012390Y-16986250D01*
X28012390Y-16587470D02*
X27613610Y-16986250D01*
X28012390Y-16786860D02*
G75*
G03*
X28012390Y-16786860I-199390J0D01*
G01*
X28018399Y-14683410D02*
X28417179Y-15082190D01*
X28417179Y-14683410D02*
X28018399Y-15082190D01*
X28417179Y-14882800D02*
G75*
G03*
X28417179Y-14882800I-199390J0D01*
G01*
X28494648Y-10873413D02*
X28893428Y-11272193D01*
X28893428Y-10873413D02*
X28494648Y-11272193D01*
X28893428Y-11072803D02*
G75*
G03*
X28893428Y-11072803I-199390J0D01*
G01*
X28970898Y-12778412D02*
X29369678Y-13177192D01*
X29369678Y-12778412D02*
X28970898Y-13177192D01*
X29369678Y-12977802D02*
G75*
G03*
X29369678Y-12977802I-199390J0D01*
G01*
X29432250Y-17412970D02*
X29831030Y-17811750D01*
X29831030Y-17412970D02*
X29432250Y-17811750D01*
X29831030Y-17612360D02*
G75*
G03*
X29831030Y-17612360I-199390J0D01*
G01*
X29912310Y-17415510D02*
X30311090Y-17814290D01*
X30311090Y-17415510D02*
X29912310Y-17814290D01*
X30311090Y-17614900D02*
G75*
G03*
X30311090Y-17614900I-199390J0D01*
G01*
X29923397Y-14683410D02*
X30322177Y-15082190D01*
X30322177Y-14683410D02*
X29923397Y-15082190D01*
X30322177Y-14882800D02*
G75*
G03*
X30322177Y-14882800I-199390J0D01*
G01*
X30399647Y-10873413D02*
X30798427Y-11272193D01*
X30798427Y-10873413D02*
X30399647Y-11272193D01*
X30798427Y-11072803D02*
G75*
G03*
X30798427Y-11072803I-199390J0D01*
G01*
X30626050Y-16587470D02*
X31024830Y-16986250D01*
X31024830Y-16587470D02*
X30626050Y-16986250D01*
X31024830Y-16786860D02*
G75*
G03*
X31024830Y-16786860I-199390J0D01*
G01*
X30875896Y-12778412D02*
X31274676Y-13177192D01*
X31274676Y-12778412D02*
X30875896Y-13177192D01*
X31274676Y-12977802D02*
G75*
G03*
X31274676Y-12977802I-199390J0D01*
G01*
X31106110Y-16590010D02*
X31504890Y-16988790D01*
X31504890Y-16590010D02*
X31106110Y-16988790D01*
X31504890Y-16789400D02*
G75*
G03*
X31504890Y-16789400I-199390J0D01*
G01*
X31819850Y-17412970D02*
X32218630Y-17811750D01*
X32218630Y-17412970D02*
X31819850Y-17811750D01*
X32218630Y-17612360D02*
G75*
G03*
X32218630Y-17612360I-199390J0D01*
G01*
X31828396Y-14683410D02*
X32227176Y-15082190D01*
X32227176Y-14683410D02*
X31828396Y-15082190D01*
X32227176Y-14882800D02*
G75*
G03*
X32227176Y-14882800I-199390J0D01*
G01*
X32299910Y-17415510D02*
X32698690Y-17814290D01*
X32698690Y-17415510D02*
X32299910Y-17814290D01*
X32698690Y-17614900D02*
G75*
G03*
X32698690Y-17614900I-199390J0D01*
G01*
X32304645Y-10873413D02*
X32703425Y-11272193D01*
X32703425Y-10873413D02*
X32304645Y-11272193D01*
X32703425Y-11072803D02*
G75*
G03*
X32703425Y-11072803I-199390J0D01*
G01*
X32780895Y-12778412D02*
X33179675Y-13177192D01*
X33179675Y-12778412D02*
X32780895Y-13177192D01*
X33179675Y-12977802D02*
G75*
G03*
X33179675Y-12977802I-199390J0D01*
G01*
X33257144Y-16588408D02*
X33655924Y-16987188D01*
X33655924Y-16588408D02*
X33257144Y-16987188D01*
X33655924Y-16787798D02*
G75*
G03*
X33655924Y-16787798I-199390J0D01*
G01*
X33733394Y-14683410D02*
X34132174Y-15082190D01*
X34132174Y-14683410D02*
X33733394Y-15082190D01*
X34132174Y-14882800D02*
G75*
G03*
X34132174Y-14882800I-199390J0D01*
G01*
X34194750Y-17412970D02*
X34593530Y-17811750D01*
X34593530Y-17412970D02*
X34194750Y-17811750D01*
X34593530Y-17612360D02*
G75*
G03*
X34593530Y-17612360I-199390J0D01*
G01*
X34209644Y-10873413D02*
X34608424Y-11272193D01*
X34608424Y-10873413D02*
X34209644Y-11272193D01*
X34608424Y-11072803D02*
G75*
G03*
X34608424Y-11072803I-199390J0D01*
G01*
X34674810Y-17415510D02*
X35073590Y-17814290D01*
X35073590Y-17415510D02*
X34674810Y-17814290D01*
X35073590Y-17614900D02*
G75*
G03*
X35073590Y-17614900I-199390J0D01*
G01*
X34685893Y-12778412D02*
X35084673Y-13177192D01*
X35084673Y-12778412D02*
X34685893Y-13177192D01*
X35084673Y-12977802D02*
G75*
G03*
X35084673Y-12977802I-199390J0D01*
G01*
X35388550Y-16587470D02*
X35787330Y-16986250D01*
X35787330Y-16587470D02*
X35388550Y-16986250D01*
X35787330Y-16786860D02*
G75*
G03*
X35787330Y-16786860I-199390J0D01*
G01*
X35638392Y-14683410D02*
X36037172Y-15082190D01*
X36037172Y-14683410D02*
X35638392Y-15082190D01*
X36037172Y-14882800D02*
G75*
G03*
X36037172Y-14882800I-199390J0D01*
G01*
X35868610Y-16590010D02*
X36267390Y-16988790D01*
X36267390Y-16590010D02*
X35868610Y-16988790D01*
X36267390Y-16789400D02*
G75*
G03*
X36267390Y-16789400I-199390J0D01*
G01*
X36114642Y-10873413D02*
X36513422Y-11272193D01*
X36513422Y-10873413D02*
X36114642Y-11272193D01*
X36513422Y-11072803D02*
G75*
G03*
X36513422Y-11072803I-199390J0D01*
G01*
X36582350Y-17412970D02*
X36981130Y-17811750D01*
X36981130Y-17412970D02*
X36582350Y-17811750D01*
X36981130Y-17612360D02*
G75*
G03*
X36981130Y-17612360I-199390J0D01*
G01*
X36590892Y-12778412D02*
X36989672Y-13177192D01*
X36989672Y-12778412D02*
X36590892Y-13177192D01*
X36989672Y-12977802D02*
G75*
G03*
X36989672Y-12977802I-199390J0D01*
G01*
X37062410Y-17415510D02*
X37461190Y-17814290D01*
X37461190Y-17415510D02*
X37062410Y-17814290D01*
X37461190Y-17614900D02*
G75*
G03*
X37461190Y-17614900I-199390J0D01*
G01*
X37543391Y-14683410D02*
X37942171Y-15082190D01*
X37942171Y-14683410D02*
X37543391Y-15082190D01*
X37942171Y-14882800D02*
G75*
G03*
X37942171Y-14882800I-199390J0D01*
G01*
X38019640Y-10873413D02*
X38418420Y-11272193D01*
X38418420Y-10873413D02*
X38019640Y-11272193D01*
X38418420Y-11072803D02*
G75*
G03*
X38418420Y-11072803I-199390J0D01*
G01*
X38495890Y-12778412D02*
X38894670Y-13177192D01*
X38894670Y-12778412D02*
X38495890Y-13177192D01*
X38894670Y-12977802D02*
G75*
G03*
X38894670Y-12977802I-199390J0D01*
G01*
X38959790Y-16584930D02*
X39358570Y-16983710D01*
X39358570Y-16584930D02*
X38959790Y-16983710D01*
X39358570Y-16784320D02*
G75*
G03*
X39358570Y-16784320I-199390J0D01*
G01*
X38972144Y-17413908D02*
X39370924Y-17812688D01*
X39370924Y-17413908D02*
X38972144Y-17812688D01*
X39370924Y-17613298D02*
G75*
G03*
X39370924Y-17613298I-199390J0D01*
G01*
X39448389Y-14683410D02*
X39847169Y-15082190D01*
X39847169Y-14683410D02*
X39448389Y-15082190D01*
X39847169Y-14882800D02*
G75*
G03*
X39847169Y-14882800I-199390J0D01*
G01*
X39924639Y-10873413D02*
X40323419Y-11272193D01*
X40323419Y-10873413D02*
X39924639Y-11272193D01*
X40323419Y-11072803D02*
G75*
G03*
X40323419Y-11072803I-199390J0D01*
G01*
X40400888Y-12778412D02*
X40799668Y-13177192D01*
X40799668Y-12778412D02*
X40400888Y-13177192D01*
X40799668Y-12977802D02*
G75*
G03*
X40799668Y-12977802I-199390J0D01*
G01*
X41115263Y-16588408D02*
X41514043Y-16987188D01*
X41514043Y-16588408D02*
X41115263Y-16987188D01*
X41514043Y-16787798D02*
G75*
G03*
X41514043Y-16787798I-199390J0D01*
G01*
X41353388Y-14683410D02*
X41752168Y-15082190D01*
X41752168Y-14683410D02*
X41353388Y-15082190D01*
X41752168Y-14882800D02*
G75*
G03*
X41752168Y-14882800I-199390J0D01*
G01*
X41829637Y-10873413D02*
X42228417Y-11272193D01*
X42228417Y-10873413D02*
X41829637Y-11272193D01*
X42228417Y-11072803D02*
G75*
G03*
X42228417Y-11072803I-199390J0D01*
G01*
X42305887Y-12778412D02*
X42704667Y-13177192D01*
X42704667Y-12778412D02*
X42305887Y-13177192D01*
X42704667Y-12977802D02*
G75*
G03*
X42704667Y-12977802I-199390J0D01*
G01*
X43258386Y-16588408D02*
X43657166Y-16987188D01*
X43657166Y-16588408D02*
X43258386Y-16987188D01*
X43657166Y-16787798D02*
G75*
G03*
X43657166Y-16787798I-199390J0D01*
G01*
X43496511Y-14683410D02*
X43895291Y-15082190D01*
X43895291Y-14683410D02*
X43496511Y-15082190D01*
X43895291Y-14882800D02*
G75*
G03*
X43895291Y-14882800I-199390J0D01*
G01*
X43734636Y-10873413D02*
X44133416Y-11272193D01*
X44133416Y-10873413D02*
X43734636Y-11272193D01*
X44133416Y-11072803D02*
G75*
G03*
X44133416Y-11072803I-199390J0D01*
G01*
X44925260Y-12778412D02*
X45324040Y-13177192D01*
X45324040Y-12778412D02*
X44925260Y-13177192D01*
X45324040Y-12977802D02*
G75*
G03*
X45324040Y-12977802I-199390J0D01*
G01*
X45639634Y-10873413D02*
X46038414Y-11272193D01*
X46038414Y-10873413D02*
X45639634Y-11272193D01*
X46038414Y-11072803D02*
G75*
G03*
X46038414Y-11072803I-199390J0D01*
G01*
X45639634Y-14683410D02*
X46038414Y-15082190D01*
X46038414Y-14683410D02*
X45639634Y-15082190D01*
X46038414Y-14882800D02*
G75*
G03*
X46038414Y-14882800I-199390J0D01*
G01*
D12*
X17278928Y-18973214D02*
X17278928Y-18673214D01*
X17350357Y-18673214D01*
X17393214Y-18687500D01*
X17421786Y-18716072D01*
X17436071Y-18744643D01*
X17450357Y-18801786D01*
X17450357Y-18844643D01*
X17436071Y-18901786D01*
X17421786Y-18930357D01*
X17393214Y-18958929D01*
X17350357Y-18973214D01*
X17278928Y-18973214D01*
X17578928Y-18973214D02*
X17578928Y-18773214D01*
X17578928Y-18830357D02*
X17593214Y-18801786D01*
X17607500Y-18787500D01*
X17636071Y-18773214D01*
X17664643Y-18773214D01*
X17764643Y-18973214D02*
X17764643Y-18773214D01*
X17764643Y-18673214D02*
X17750357Y-18687500D01*
X17764643Y-18701786D01*
X17778928Y-18687500D01*
X17764643Y-18673214D01*
X17764643Y-18701786D01*
X17950357Y-18973214D02*
X17921786Y-18958929D01*
X17907500Y-18930357D01*
X17907500Y-18673214D01*
X18107500Y-18973214D02*
X18078928Y-18958929D01*
X18064643Y-18930357D01*
X18064643Y-18673214D01*
X18450357Y-18973214D02*
X18450357Y-18673214D01*
X18550357Y-18887500D01*
X18650357Y-18673214D01*
X18650357Y-18973214D01*
X18921786Y-18973214D02*
X18921786Y-18816072D01*
X18907500Y-18787500D01*
X18878928Y-18773214D01*
X18821786Y-18773214D01*
X18793214Y-18787500D01*
X18921786Y-18958929D02*
X18893214Y-18973214D01*
X18821786Y-18973214D01*
X18793214Y-18958929D01*
X18778928Y-18930357D01*
X18778928Y-18901786D01*
X18793214Y-18873214D01*
X18821786Y-18858929D01*
X18893214Y-18858929D01*
X18921786Y-18844643D01*
X19064643Y-18773214D02*
X19064643Y-19073214D01*
X19064643Y-18787500D02*
X19093214Y-18773214D01*
X19150357Y-18773214D01*
X19178928Y-18787500D01*
X19193214Y-18801786D01*
X19207500Y-18830357D01*
X19207500Y-18916072D01*
X19193214Y-18944643D01*
X19178928Y-18958929D01*
X19150357Y-18973214D01*
X19093214Y-18973214D01*
X19064643Y-18958929D01*
X19336071Y-18944643D02*
X19350357Y-18958929D01*
X19336071Y-18973214D01*
X19321786Y-18958929D01*
X19336071Y-18944643D01*
X19336071Y-18973214D01*
X19336071Y-18787500D02*
X19350357Y-18801786D01*
X19336071Y-18816072D01*
X19321786Y-18801786D01*
X19336071Y-18787500D01*
X19336071Y-18816072D01*
X16817500Y-19380000D02*
X16992500Y-19555000D01*
X16992500Y-19380000D02*
X16817500Y-19555000D01*
X17436071Y-19603214D02*
X17264643Y-19603214D01*
X17350357Y-19603214D02*
X17350357Y-19303214D01*
X17321786Y-19346072D01*
X17293214Y-19374643D01*
X17264643Y-19388929D01*
X17564643Y-19574643D02*
X17578928Y-19588929D01*
X17564643Y-19603214D01*
X17550357Y-19588929D01*
X17564643Y-19574643D01*
X17564643Y-19603214D01*
X17678928Y-19303214D02*
X17878928Y-19303214D01*
X17750357Y-19603214D01*
X18136071Y-19303214D02*
X17993214Y-19303214D01*
X17978928Y-19446072D01*
X17993214Y-19431786D01*
X18021786Y-19417500D01*
X18093214Y-19417500D01*
X18121786Y-19431786D01*
X18136071Y-19446072D01*
X18150357Y-19474643D01*
X18150357Y-19546072D01*
X18136071Y-19574643D01*
X18121786Y-19588929D01*
X18093214Y-19603214D01*
X18021786Y-19603214D01*
X17993214Y-19588929D01*
X17978928Y-19574643D01*
X18336071Y-19303214D02*
X18364643Y-19303214D01*
X18393214Y-19317500D01*
X18407500Y-19331786D01*
X18421786Y-19360357D01*
X18436071Y-19417500D01*
X18436071Y-19488929D01*
X18421786Y-19546072D01*
X18407500Y-19574643D01*
X18393214Y-19588929D01*
X18364643Y-19603214D01*
X18336071Y-19603214D01*
X18307500Y-19588929D01*
X18293214Y-19574643D01*
X18278928Y-19546072D01*
X18264643Y-19488929D01*
X18264643Y-19417500D01*
X18278928Y-19360357D01*
X18293214Y-19331786D01*
X18307500Y-19317500D01*
X18336071Y-19303214D01*
X18564643Y-19603214D02*
X18564643Y-19403214D01*
X18564643Y-19431786D02*
X18578928Y-19417500D01*
X18607500Y-19403214D01*
X18650357Y-19403214D01*
X18678928Y-19417500D01*
X18693214Y-19446072D01*
X18693214Y-19603214D01*
X18693214Y-19446072D02*
X18707500Y-19417500D01*
X18736071Y-19403214D01*
X18778928Y-19403214D01*
X18807500Y-19417500D01*
X18821786Y-19446072D01*
X18821786Y-19603214D01*
X18964643Y-19603214D02*
X18964643Y-19403214D01*
X18964643Y-19431786D02*
X18978928Y-19417500D01*
X19007500Y-19403214D01*
X19050357Y-19403214D01*
X19078928Y-19417500D01*
X19093214Y-19446072D01*
X19093214Y-19603214D01*
X19093214Y-19446072D02*
X19107500Y-19417500D01*
X19136071Y-19403214D01*
X19178928Y-19403214D01*
X19207500Y-19417500D01*
X19221786Y-19446072D01*
X19221786Y-19603214D01*
X19807500Y-19288929D02*
X19550357Y-19674643D01*
X20193214Y-19303214D02*
X20221786Y-19303214D01*
X20250357Y-19317500D01*
X20264643Y-19331786D01*
X20278928Y-19360357D01*
X20293214Y-19417500D01*
X20293214Y-19488929D01*
X20278928Y-19546072D01*
X20264643Y-19574643D01*
X20250357Y-19588929D01*
X20221786Y-19603214D01*
X20193214Y-19603214D01*
X20164643Y-19588929D01*
X20150357Y-19574643D01*
X20136071Y-19546072D01*
X20121786Y-19488929D01*
X20121786Y-19417500D01*
X20136071Y-19360357D01*
X20150357Y-19331786D01*
X20164643Y-19317500D01*
X20193214Y-19303214D01*
X20421786Y-19574643D02*
X20436071Y-19588929D01*
X20421786Y-19603214D01*
X20407500Y-19588929D01*
X20421786Y-19574643D01*
X20421786Y-19603214D01*
X20621786Y-19303214D02*
X20650357Y-19303214D01*
X20678928Y-19317500D01*
X20693214Y-19331786D01*
X20707500Y-19360357D01*
X20721786Y-19417500D01*
X20721786Y-19488929D01*
X20707500Y-19546072D01*
X20693214Y-19574643D01*
X20678928Y-19588929D01*
X20650357Y-19603214D01*
X20621786Y-19603214D01*
X20593214Y-19588929D01*
X20578928Y-19574643D01*
X20564643Y-19546072D01*
X20550357Y-19488929D01*
X20550357Y-19417500D01*
X20564643Y-19360357D01*
X20578928Y-19331786D01*
X20593214Y-19317500D01*
X20621786Y-19303214D01*
X20978928Y-19303214D02*
X20921786Y-19303214D01*
X20893214Y-19317500D01*
X20878928Y-19331786D01*
X20850357Y-19374643D01*
X20836071Y-19431786D01*
X20836071Y-19546072D01*
X20850357Y-19574643D01*
X20864643Y-19588929D01*
X20893214Y-19603214D01*
X20950357Y-19603214D01*
X20978928Y-19588929D01*
X20993214Y-19574643D01*
X21007500Y-19546072D01*
X21007500Y-19474643D01*
X20993214Y-19446072D01*
X20978928Y-19431786D01*
X20950357Y-19417500D01*
X20893214Y-19417500D01*
X20864643Y-19431786D01*
X20850357Y-19446072D01*
X20836071Y-19474643D01*
X21178928Y-19431786D02*
X21150357Y-19417500D01*
X21136071Y-19403214D01*
X21121786Y-19374643D01*
X21121786Y-19360357D01*
X21136071Y-19331786D01*
X21150357Y-19317500D01*
X21178928Y-19303214D01*
X21236071Y-19303214D01*
X21264643Y-19317500D01*
X21278928Y-19331786D01*
X21293214Y-19360357D01*
X21293214Y-19374643D01*
X21278928Y-19403214D01*
X21264643Y-19417500D01*
X21236071Y-19431786D01*
X21178928Y-19431786D01*
X21150357Y-19446072D01*
X21136071Y-19460357D01*
X21121786Y-19488929D01*
X21121786Y-19546072D01*
X21136071Y-19574643D01*
X21150357Y-19588929D01*
X21178928Y-19603214D01*
X21236071Y-19603214D01*
X21264643Y-19588929D01*
X21278928Y-19574643D01*
X21293214Y-19546072D01*
X21293214Y-19488929D01*
X21278928Y-19460357D01*
X21264643Y-19446072D01*
X21236071Y-19431786D01*
X21436071Y-19603214D02*
X21493214Y-19603214D01*
X21521786Y-19588929D01*
X21536071Y-19574643D01*
X21564643Y-19531786D01*
X21578928Y-19474643D01*
X21578928Y-19360357D01*
X21564643Y-19331786D01*
X21550357Y-19317500D01*
X21521786Y-19303214D01*
X21464643Y-19303214D01*
X21436071Y-19317500D01*
X21421786Y-19331786D01*
X21407500Y-19360357D01*
X21407500Y-19431786D01*
X21421786Y-19460357D01*
X21436071Y-19474643D01*
X21464643Y-19488929D01*
X21521786Y-19488929D01*
X21550357Y-19474643D01*
X21564643Y-19460357D01*
X21578928Y-19431786D01*
X21693214Y-19303214D02*
X21693214Y-19360357D01*
X21807500Y-19303214D02*
X21807500Y-19360357D01*
X22250357Y-19717500D02*
X22236071Y-19703214D01*
X22207500Y-19660357D01*
X22193214Y-19631786D01*
X22178928Y-19588929D01*
X22164643Y-19517500D01*
X22164643Y-19460357D01*
X22178928Y-19388929D01*
X22193214Y-19346072D01*
X22207500Y-19317500D01*
X22236071Y-19274643D01*
X22250357Y-19260357D01*
X22521786Y-19603214D02*
X22350357Y-19603214D01*
X22436071Y-19603214D02*
X22436071Y-19303214D01*
X22407500Y-19346072D01*
X22378928Y-19374643D01*
X22350357Y-19388929D01*
X22707500Y-19303214D02*
X22736071Y-19303214D01*
X22764643Y-19317500D01*
X22778928Y-19331786D01*
X22793214Y-19360357D01*
X22807500Y-19417500D01*
X22807500Y-19488929D01*
X22793214Y-19546072D01*
X22778928Y-19574643D01*
X22764643Y-19588929D01*
X22736071Y-19603214D01*
X22707500Y-19603214D01*
X22678928Y-19588929D01*
X22664643Y-19574643D01*
X22650357Y-19546072D01*
X22636071Y-19488929D01*
X22636071Y-19417500D01*
X22650357Y-19360357D01*
X22664643Y-19331786D01*
X22678928Y-19317500D01*
X22707500Y-19303214D01*
X22978928Y-19431786D02*
X22950357Y-19417500D01*
X22936071Y-19403214D01*
X22921786Y-19374643D01*
X22921786Y-19360357D01*
X22936071Y-19331786D01*
X22950357Y-19317500D01*
X22978928Y-19303214D01*
X23036071Y-19303214D01*
X23064643Y-19317500D01*
X23078928Y-19331786D01*
X23093214Y-19360357D01*
X23093214Y-19374643D01*
X23078928Y-19403214D01*
X23064643Y-19417500D01*
X23036071Y-19431786D01*
X22978928Y-19431786D01*
X22950357Y-19446072D01*
X22936071Y-19460357D01*
X22921786Y-19488929D01*
X22921786Y-19546072D01*
X22936071Y-19574643D01*
X22950357Y-19588929D01*
X22978928Y-19603214D01*
X23036071Y-19603214D01*
X23064643Y-19588929D01*
X23078928Y-19574643D01*
X23093214Y-19546072D01*
X23093214Y-19488929D01*
X23078928Y-19460357D01*
X23064643Y-19446072D01*
X23036071Y-19431786D01*
X23450357Y-19603214D02*
X23450357Y-19303214D01*
X23578928Y-19603214D02*
X23578928Y-19446072D01*
X23564643Y-19417500D01*
X23536071Y-19403214D01*
X23493214Y-19403214D01*
X23464643Y-19417500D01*
X23450357Y-19431786D01*
X23764643Y-19603214D02*
X23736071Y-19588929D01*
X23721786Y-19574643D01*
X23707500Y-19546072D01*
X23707500Y-19460357D01*
X23721786Y-19431786D01*
X23736071Y-19417500D01*
X23764643Y-19403214D01*
X23807500Y-19403214D01*
X23836071Y-19417500D01*
X23850357Y-19431786D01*
X23864643Y-19460357D01*
X23864643Y-19546072D01*
X23850357Y-19574643D01*
X23836071Y-19588929D01*
X23807500Y-19603214D01*
X23764643Y-19603214D01*
X24036071Y-19603214D02*
X24007500Y-19588929D01*
X23993214Y-19560357D01*
X23993214Y-19303214D01*
X24264643Y-19588929D02*
X24236071Y-19603214D01*
X24178928Y-19603214D01*
X24150357Y-19588929D01*
X24136071Y-19560357D01*
X24136071Y-19446072D01*
X24150357Y-19417500D01*
X24178928Y-19403214D01*
X24236071Y-19403214D01*
X24264643Y-19417500D01*
X24278928Y-19446072D01*
X24278928Y-19474643D01*
X24136071Y-19503214D01*
X24393214Y-19588929D02*
X24421786Y-19603214D01*
X24478928Y-19603214D01*
X24507500Y-19588929D01*
X24521786Y-19560357D01*
X24521786Y-19546072D01*
X24507500Y-19517500D01*
X24478928Y-19503214D01*
X24436071Y-19503214D01*
X24407500Y-19488929D01*
X24393214Y-19460357D01*
X24393214Y-19446072D01*
X24407500Y-19417500D01*
X24436071Y-19403214D01*
X24478928Y-19403214D01*
X24507500Y-19417500D01*
X24621786Y-19717500D02*
X24636071Y-19703214D01*
X24664643Y-19660357D01*
X24678928Y-19631786D01*
X24693214Y-19588929D01*
X24707500Y-19517500D01*
X24707500Y-19460357D01*
X24693214Y-19388929D01*
X24678928Y-19346072D01*
X24664643Y-19317500D01*
X24636071Y-19274643D01*
X24621786Y-19260357D01*
X25164643Y-19717500D02*
X25150357Y-19703214D01*
X25121786Y-19660357D01*
X25107500Y-19631786D01*
X25093214Y-19588929D01*
X25078928Y-19517500D01*
X25078928Y-19460357D01*
X25093214Y-19388929D01*
X25107500Y-19346072D01*
X25121786Y-19317500D01*
X25150357Y-19274643D01*
X25164643Y-19260357D01*
X25278928Y-19403214D02*
X25278928Y-19603214D01*
X25278928Y-19431786D02*
X25293214Y-19417500D01*
X25321786Y-19403214D01*
X25364643Y-19403214D01*
X25393214Y-19417500D01*
X25407500Y-19446072D01*
X25407500Y-19603214D01*
X25593214Y-19603214D02*
X25564643Y-19588929D01*
X25550357Y-19574643D01*
X25536071Y-19546072D01*
X25536071Y-19460357D01*
X25550357Y-19431786D01*
X25564643Y-19417500D01*
X25593214Y-19403214D01*
X25636071Y-19403214D01*
X25664643Y-19417500D01*
X25678928Y-19431786D01*
X25693214Y-19460357D01*
X25693214Y-19546072D01*
X25678928Y-19574643D01*
X25664643Y-19588929D01*
X25636071Y-19603214D01*
X25593214Y-19603214D01*
X25778928Y-19403214D02*
X25893214Y-19403214D01*
X25821786Y-19303214D02*
X25821786Y-19560357D01*
X25836071Y-19588929D01*
X25864643Y-19603214D01*
X25893214Y-19603214D01*
X26221786Y-19403214D02*
X26221786Y-19703214D01*
X26221786Y-19417500D02*
X26250357Y-19403214D01*
X26307500Y-19403214D01*
X26336071Y-19417500D01*
X26350357Y-19431786D01*
X26364643Y-19460357D01*
X26364643Y-19546072D01*
X26350357Y-19574643D01*
X26336071Y-19588929D01*
X26307500Y-19603214D01*
X26250357Y-19603214D01*
X26221786Y-19588929D01*
X26536071Y-19603214D02*
X26507500Y-19588929D01*
X26493214Y-19560357D01*
X26493214Y-19303214D01*
X26778928Y-19603214D02*
X26778928Y-19446072D01*
X26764643Y-19417500D01*
X26736071Y-19403214D01*
X26678928Y-19403214D01*
X26650357Y-19417500D01*
X26778928Y-19588929D02*
X26750357Y-19603214D01*
X26678928Y-19603214D01*
X26650357Y-19588929D01*
X26636071Y-19560357D01*
X26636071Y-19531786D01*
X26650357Y-19503214D01*
X26678928Y-19488929D01*
X26750357Y-19488929D01*
X26778928Y-19474643D01*
X26878928Y-19403214D02*
X26993214Y-19403214D01*
X26921786Y-19303214D02*
X26921786Y-19560357D01*
X26936071Y-19588929D01*
X26964643Y-19603214D01*
X26993214Y-19603214D01*
X27207500Y-19588929D02*
X27178928Y-19603214D01*
X27121786Y-19603214D01*
X27093214Y-19588929D01*
X27078928Y-19560357D01*
X27078928Y-19446072D01*
X27093214Y-19417500D01*
X27121786Y-19403214D01*
X27178928Y-19403214D01*
X27207500Y-19417500D01*
X27221786Y-19446072D01*
X27221786Y-19474643D01*
X27078928Y-19503214D01*
X27478928Y-19603214D02*
X27478928Y-19303214D01*
X27478928Y-19588929D02*
X27450357Y-19603214D01*
X27393214Y-19603214D01*
X27364643Y-19588929D01*
X27350357Y-19574643D01*
X27336071Y-19546072D01*
X27336071Y-19460357D01*
X27350357Y-19431786D01*
X27364643Y-19417500D01*
X27393214Y-19403214D01*
X27450357Y-19403214D01*
X27478928Y-19417500D01*
X27593214Y-19717500D02*
X27607500Y-19703214D01*
X27636071Y-19660357D01*
X27650357Y-19631786D01*
X27664643Y-19588929D01*
X27678928Y-19517500D01*
X27678928Y-19460357D01*
X27664643Y-19388929D01*
X27650357Y-19346072D01*
X27636071Y-19317500D01*
X27607500Y-19274643D01*
X27593214Y-19260357D01*
X16992500Y-19863500D02*
G75*
G03*
X16992500Y-19863500I-90000J0D01*
G01*
X17436071Y-19999214D02*
X17264643Y-19999214D01*
X17350357Y-19999214D02*
X17350357Y-19699214D01*
X17321786Y-19742072D01*
X17293214Y-19770643D01*
X17264643Y-19784929D01*
X17564643Y-19970643D02*
X17578928Y-19984929D01*
X17564643Y-19999214D01*
X17550357Y-19984929D01*
X17564643Y-19970643D01*
X17564643Y-19999214D01*
X17750357Y-19827786D02*
X17721786Y-19813500D01*
X17707500Y-19799214D01*
X17693214Y-19770643D01*
X17693214Y-19756357D01*
X17707500Y-19727786D01*
X17721786Y-19713500D01*
X17750357Y-19699214D01*
X17807500Y-19699214D01*
X17836071Y-19713500D01*
X17850357Y-19727786D01*
X17864643Y-19756357D01*
X17864643Y-19770643D01*
X17850357Y-19799214D01*
X17836071Y-19813500D01*
X17807500Y-19827786D01*
X17750357Y-19827786D01*
X17721786Y-19842072D01*
X17707500Y-19856357D01*
X17693214Y-19884929D01*
X17693214Y-19942072D01*
X17707500Y-19970643D01*
X17721786Y-19984929D01*
X17750357Y-19999214D01*
X17807500Y-19999214D01*
X17836071Y-19984929D01*
X17850357Y-19970643D01*
X17864643Y-19942072D01*
X17864643Y-19884929D01*
X17850357Y-19856357D01*
X17836071Y-19842072D01*
X17807500Y-19827786D01*
X18050357Y-19699214D02*
X18078928Y-19699214D01*
X18107500Y-19713500D01*
X18121786Y-19727786D01*
X18136071Y-19756357D01*
X18150357Y-19813500D01*
X18150357Y-19884929D01*
X18136071Y-19942072D01*
X18121786Y-19970643D01*
X18107500Y-19984929D01*
X18078928Y-19999214D01*
X18050357Y-19999214D01*
X18021786Y-19984929D01*
X18007500Y-19970643D01*
X17993214Y-19942072D01*
X17978928Y-19884929D01*
X17978928Y-19813500D01*
X17993214Y-19756357D01*
X18007500Y-19727786D01*
X18021786Y-19713500D01*
X18050357Y-19699214D01*
X18336071Y-19699214D02*
X18364643Y-19699214D01*
X18393214Y-19713500D01*
X18407500Y-19727786D01*
X18421786Y-19756357D01*
X18436071Y-19813500D01*
X18436071Y-19884929D01*
X18421786Y-19942072D01*
X18407500Y-19970643D01*
X18393214Y-19984929D01*
X18364643Y-19999214D01*
X18336071Y-19999214D01*
X18307500Y-19984929D01*
X18293214Y-19970643D01*
X18278928Y-19942072D01*
X18264643Y-19884929D01*
X18264643Y-19813500D01*
X18278928Y-19756357D01*
X18293214Y-19727786D01*
X18307500Y-19713500D01*
X18336071Y-19699214D01*
X18564643Y-19999214D02*
X18564643Y-19799214D01*
X18564643Y-19827786D02*
X18578928Y-19813500D01*
X18607500Y-19799214D01*
X18650357Y-19799214D01*
X18678928Y-19813500D01*
X18693214Y-19842072D01*
X18693214Y-19999214D01*
X18693214Y-19842072D02*
X18707500Y-19813500D01*
X18736071Y-19799214D01*
X18778928Y-19799214D01*
X18807500Y-19813500D01*
X18821786Y-19842072D01*
X18821786Y-19999214D01*
X18964643Y-19999214D02*
X18964643Y-19799214D01*
X18964643Y-19827786D02*
X18978928Y-19813500D01*
X19007500Y-19799214D01*
X19050357Y-19799214D01*
X19078928Y-19813500D01*
X19093214Y-19842072D01*
X19093214Y-19999214D01*
X19093214Y-19842072D02*
X19107500Y-19813500D01*
X19136071Y-19799214D01*
X19178928Y-19799214D01*
X19207500Y-19813500D01*
X19221786Y-19842072D01*
X19221786Y-19999214D01*
X19807500Y-19684929D02*
X19550357Y-20070643D01*
X20193214Y-19699214D02*
X20221786Y-19699214D01*
X20250357Y-19713500D01*
X20264643Y-19727786D01*
X20278928Y-19756357D01*
X20293214Y-19813500D01*
X20293214Y-19884929D01*
X20278928Y-19942072D01*
X20264643Y-19970643D01*
X20250357Y-19984929D01*
X20221786Y-19999214D01*
X20193214Y-19999214D01*
X20164643Y-19984929D01*
X20150357Y-19970643D01*
X20136071Y-19942072D01*
X20121786Y-19884929D01*
X20121786Y-19813500D01*
X20136071Y-19756357D01*
X20150357Y-19727786D01*
X20164643Y-19713500D01*
X20193214Y-19699214D01*
X20421786Y-19970643D02*
X20436071Y-19984929D01*
X20421786Y-19999214D01*
X20407500Y-19984929D01*
X20421786Y-19970643D01*
X20421786Y-19999214D01*
X20621786Y-19699214D02*
X20650357Y-19699214D01*
X20678928Y-19713500D01*
X20693214Y-19727786D01*
X20707500Y-19756357D01*
X20721786Y-19813500D01*
X20721786Y-19884929D01*
X20707500Y-19942072D01*
X20693214Y-19970643D01*
X20678928Y-19984929D01*
X20650357Y-19999214D01*
X20621786Y-19999214D01*
X20593214Y-19984929D01*
X20578928Y-19970643D01*
X20564643Y-19942072D01*
X20550357Y-19884929D01*
X20550357Y-19813500D01*
X20564643Y-19756357D01*
X20578928Y-19727786D01*
X20593214Y-19713500D01*
X20621786Y-19699214D01*
X20821786Y-19699214D02*
X21021786Y-19699214D01*
X20893214Y-19999214D01*
X21193214Y-19699214D02*
X21221786Y-19699214D01*
X21250357Y-19713500D01*
X21264643Y-19727786D01*
X21278928Y-19756357D01*
X21293214Y-19813500D01*
X21293214Y-19884929D01*
X21278928Y-19942072D01*
X21264643Y-19970643D01*
X21250357Y-19984929D01*
X21221786Y-19999214D01*
X21193214Y-19999214D01*
X21164643Y-19984929D01*
X21150357Y-19970643D01*
X21136071Y-19942072D01*
X21121786Y-19884929D01*
X21121786Y-19813500D01*
X21136071Y-19756357D01*
X21150357Y-19727786D01*
X21164643Y-19713500D01*
X21193214Y-19699214D01*
X21436071Y-19999214D02*
X21493214Y-19999214D01*
X21521786Y-19984929D01*
X21536071Y-19970643D01*
X21564643Y-19927786D01*
X21578928Y-19870643D01*
X21578928Y-19756357D01*
X21564643Y-19727786D01*
X21550357Y-19713500D01*
X21521786Y-19699214D01*
X21464643Y-19699214D01*
X21436071Y-19713500D01*
X21421786Y-19727786D01*
X21407500Y-19756357D01*
X21407500Y-19827786D01*
X21421786Y-19856357D01*
X21436071Y-19870643D01*
X21464643Y-19884929D01*
X21521786Y-19884929D01*
X21550357Y-19870643D01*
X21564643Y-19856357D01*
X21578928Y-19827786D01*
X21693214Y-19699214D02*
X21693214Y-19756357D01*
X21807500Y-19699214D02*
X21807500Y-19756357D01*
X22250357Y-20113500D02*
X22236071Y-20099214D01*
X22207500Y-20056357D01*
X22193214Y-20027786D01*
X22178928Y-19984929D01*
X22164643Y-19913500D01*
X22164643Y-19856357D01*
X22178928Y-19784929D01*
X22193214Y-19742072D01*
X22207500Y-19713500D01*
X22236071Y-19670643D01*
X22250357Y-19656357D01*
X22350357Y-19727786D02*
X22364643Y-19713500D01*
X22393214Y-19699214D01*
X22464643Y-19699214D01*
X22493214Y-19713500D01*
X22507500Y-19727786D01*
X22521786Y-19756357D01*
X22521786Y-19784929D01*
X22507500Y-19827786D01*
X22336071Y-19999214D01*
X22521786Y-19999214D01*
X22878928Y-19999214D02*
X22878928Y-19699214D01*
X23007500Y-19999214D02*
X23007500Y-19842072D01*
X22993214Y-19813500D01*
X22964643Y-19799214D01*
X22921786Y-19799214D01*
X22893214Y-19813500D01*
X22878928Y-19827786D01*
X23193214Y-19999214D02*
X23164643Y-19984929D01*
X23150357Y-19970643D01*
X23136071Y-19942072D01*
X23136071Y-19856357D01*
X23150357Y-19827786D01*
X23164643Y-19813500D01*
X23193214Y-19799214D01*
X23236071Y-19799214D01*
X23264643Y-19813500D01*
X23278928Y-19827786D01*
X23293214Y-19856357D01*
X23293214Y-19942072D01*
X23278928Y-19970643D01*
X23264643Y-19984929D01*
X23236071Y-19999214D01*
X23193214Y-19999214D01*
X23464643Y-19999214D02*
X23436071Y-19984929D01*
X23421786Y-19956357D01*
X23421786Y-19699214D01*
X23693214Y-19984929D02*
X23664643Y-19999214D01*
X23607500Y-19999214D01*
X23578928Y-19984929D01*
X23564643Y-19956357D01*
X23564643Y-19842072D01*
X23578928Y-19813500D01*
X23607500Y-19799214D01*
X23664643Y-19799214D01*
X23693214Y-19813500D01*
X23707500Y-19842072D01*
X23707500Y-19870643D01*
X23564643Y-19899214D01*
X23821786Y-19984929D02*
X23850357Y-19999214D01*
X23907500Y-19999214D01*
X23936071Y-19984929D01*
X23950357Y-19956357D01*
X23950357Y-19942072D01*
X23936071Y-19913500D01*
X23907500Y-19899214D01*
X23864643Y-19899214D01*
X23836071Y-19884929D01*
X23821786Y-19856357D01*
X23821786Y-19842072D01*
X23836071Y-19813500D01*
X23864643Y-19799214D01*
X23907500Y-19799214D01*
X23936071Y-19813500D01*
X24050357Y-20113500D02*
X24064643Y-20099214D01*
X24093214Y-20056357D01*
X24107500Y-20027786D01*
X24121786Y-19984929D01*
X24136071Y-19913500D01*
X24136071Y-19856357D01*
X24121786Y-19784929D01*
X24107500Y-19742072D01*
X24093214Y-19713500D01*
X24064643Y-19670643D01*
X24050357Y-19656357D01*
X24593214Y-20113500D02*
X24578928Y-20099214D01*
X24550357Y-20056357D01*
X24536071Y-20027786D01*
X24521786Y-19984929D01*
X24507500Y-19913500D01*
X24507500Y-19856357D01*
X24521786Y-19784929D01*
X24536071Y-19742072D01*
X24550357Y-19713500D01*
X24578928Y-19670643D01*
X24593214Y-19656357D01*
X24707500Y-19799214D02*
X24707500Y-19999214D01*
X24707500Y-19827786D02*
X24721786Y-19813500D01*
X24750357Y-19799214D01*
X24793214Y-19799214D01*
X24821786Y-19813500D01*
X24836071Y-19842072D01*
X24836071Y-19999214D01*
X25021786Y-19999214D02*
X24993214Y-19984929D01*
X24978928Y-19970643D01*
X24964643Y-19942072D01*
X24964643Y-19856357D01*
X24978928Y-19827786D01*
X24993214Y-19813500D01*
X25021786Y-19799214D01*
X25064643Y-19799214D01*
X25093214Y-19813500D01*
X25107500Y-19827786D01*
X25121786Y-19856357D01*
X25121786Y-19942072D01*
X25107500Y-19970643D01*
X25093214Y-19984929D01*
X25064643Y-19999214D01*
X25021786Y-19999214D01*
X25207500Y-19799214D02*
X25321786Y-19799214D01*
X25250357Y-19699214D02*
X25250357Y-19956357D01*
X25264643Y-19984929D01*
X25293214Y-19999214D01*
X25321786Y-19999214D01*
X25650357Y-19799214D02*
X25650357Y-20099214D01*
X25650357Y-19813500D02*
X25678928Y-19799214D01*
X25736071Y-19799214D01*
X25764643Y-19813500D01*
X25778928Y-19827786D01*
X25793214Y-19856357D01*
X25793214Y-19942072D01*
X25778928Y-19970643D01*
X25764643Y-19984929D01*
X25736071Y-19999214D01*
X25678928Y-19999214D01*
X25650357Y-19984929D01*
X25964643Y-19999214D02*
X25936071Y-19984929D01*
X25921786Y-19956357D01*
X25921786Y-19699214D01*
X26207500Y-19999214D02*
X26207500Y-19842072D01*
X26193214Y-19813500D01*
X26164643Y-19799214D01*
X26107500Y-19799214D01*
X26078928Y-19813500D01*
X26207500Y-19984929D02*
X26178928Y-19999214D01*
X26107500Y-19999214D01*
X26078928Y-19984929D01*
X26064643Y-19956357D01*
X26064643Y-19927786D01*
X26078928Y-19899214D01*
X26107500Y-19884929D01*
X26178928Y-19884929D01*
X26207500Y-19870643D01*
X26307500Y-19799214D02*
X26421786Y-19799214D01*
X26350357Y-19699214D02*
X26350357Y-19956357D01*
X26364643Y-19984929D01*
X26393214Y-19999214D01*
X26421786Y-19999214D01*
X26636071Y-19984929D02*
X26607500Y-19999214D01*
X26550357Y-19999214D01*
X26521786Y-19984929D01*
X26507500Y-19956357D01*
X26507500Y-19842072D01*
X26521786Y-19813500D01*
X26550357Y-19799214D01*
X26607500Y-19799214D01*
X26636071Y-19813500D01*
X26650357Y-19842072D01*
X26650357Y-19870643D01*
X26507500Y-19899214D01*
X26907500Y-19999214D02*
X26907500Y-19699214D01*
X26907500Y-19984929D02*
X26878928Y-19999214D01*
X26821786Y-19999214D01*
X26793214Y-19984929D01*
X26778928Y-19970643D01*
X26764643Y-19942072D01*
X26764643Y-19856357D01*
X26778928Y-19827786D01*
X26793214Y-19813500D01*
X26821786Y-19799214D01*
X26878928Y-19799214D01*
X26907500Y-19813500D01*
X27021786Y-20113500D02*
X27036071Y-20099214D01*
X27064643Y-20056357D01*
X27078928Y-20027786D01*
X27093214Y-19984929D01*
X27107500Y-19913500D01*
X27107500Y-19856357D01*
X27093214Y-19784929D01*
X27078928Y-19742072D01*
X27064643Y-19713500D01*
X27036071Y-19670643D01*
X27021786Y-19656357D01*
X16882500Y-20149500D02*
X16882500Y-20369500D01*
X16772500Y-20259500D02*
X16992500Y-20259500D01*
X17264643Y-20123786D02*
X17278928Y-20109500D01*
X17307500Y-20095214D01*
X17378928Y-20095214D01*
X17407500Y-20109500D01*
X17421786Y-20123786D01*
X17436071Y-20152357D01*
X17436071Y-20180929D01*
X17421786Y-20223786D01*
X17250357Y-20395214D01*
X17436071Y-20395214D01*
X17564643Y-20366643D02*
X17578928Y-20380929D01*
X17564643Y-20395214D01*
X17550357Y-20380929D01*
X17564643Y-20366643D01*
X17564643Y-20395214D01*
X17693214Y-20123786D02*
X17707500Y-20109500D01*
X17736071Y-20095214D01*
X17807500Y-20095214D01*
X17836071Y-20109500D01*
X17850357Y-20123786D01*
X17864643Y-20152357D01*
X17864643Y-20180929D01*
X17850357Y-20223786D01*
X17678928Y-20395214D01*
X17864643Y-20395214D01*
X18050357Y-20095214D02*
X18078928Y-20095214D01*
X18107500Y-20109500D01*
X18121786Y-20123786D01*
X18136071Y-20152357D01*
X18150357Y-20209500D01*
X18150357Y-20280929D01*
X18136071Y-20338072D01*
X18121786Y-20366643D01*
X18107500Y-20380929D01*
X18078928Y-20395214D01*
X18050357Y-20395214D01*
X18021786Y-20380929D01*
X18007500Y-20366643D01*
X17993214Y-20338072D01*
X17978928Y-20280929D01*
X17978928Y-20209500D01*
X17993214Y-20152357D01*
X18007500Y-20123786D01*
X18021786Y-20109500D01*
X18050357Y-20095214D01*
X18336071Y-20095214D02*
X18364643Y-20095214D01*
X18393214Y-20109500D01*
X18407500Y-20123786D01*
X18421786Y-20152357D01*
X18436071Y-20209500D01*
X18436071Y-20280929D01*
X18421786Y-20338072D01*
X18407500Y-20366643D01*
X18393214Y-20380929D01*
X18364643Y-20395214D01*
X18336071Y-20395214D01*
X18307500Y-20380929D01*
X18293214Y-20366643D01*
X18278928Y-20338072D01*
X18264643Y-20280929D01*
X18264643Y-20209500D01*
X18278928Y-20152357D01*
X18293214Y-20123786D01*
X18307500Y-20109500D01*
X18336071Y-20095214D01*
X18564643Y-20395214D02*
X18564643Y-20195214D01*
X18564643Y-20223786D02*
X18578928Y-20209500D01*
X18607500Y-20195214D01*
X18650357Y-20195214D01*
X18678928Y-20209500D01*
X18693214Y-20238072D01*
X18693214Y-20395214D01*
X18693214Y-20238072D02*
X18707500Y-20209500D01*
X18736071Y-20195214D01*
X18778928Y-20195214D01*
X18807500Y-20209500D01*
X18821786Y-20238072D01*
X18821786Y-20395214D01*
X18964643Y-20395214D02*
X18964643Y-20195214D01*
X18964643Y-20223786D02*
X18978928Y-20209500D01*
X19007500Y-20195214D01*
X19050357Y-20195214D01*
X19078928Y-20209500D01*
X19093214Y-20238072D01*
X19093214Y-20395214D01*
X19093214Y-20238072D02*
X19107500Y-20209500D01*
X19136071Y-20195214D01*
X19178928Y-20195214D01*
X19207500Y-20209500D01*
X19221786Y-20238072D01*
X19221786Y-20395214D01*
X19807500Y-20080929D02*
X19550357Y-20466643D01*
X20193214Y-20095214D02*
X20221786Y-20095214D01*
X20250357Y-20109500D01*
X20264643Y-20123786D01*
X20278928Y-20152357D01*
X20293214Y-20209500D01*
X20293214Y-20280929D01*
X20278928Y-20338072D01*
X20264643Y-20366643D01*
X20250357Y-20380929D01*
X20221786Y-20395214D01*
X20193214Y-20395214D01*
X20164643Y-20380929D01*
X20150357Y-20366643D01*
X20136071Y-20338072D01*
X20121786Y-20280929D01*
X20121786Y-20209500D01*
X20136071Y-20152357D01*
X20150357Y-20123786D01*
X20164643Y-20109500D01*
X20193214Y-20095214D01*
X20421786Y-20366643D02*
X20436071Y-20380929D01*
X20421786Y-20395214D01*
X20407500Y-20380929D01*
X20421786Y-20366643D01*
X20421786Y-20395214D01*
X20621786Y-20095214D02*
X20650357Y-20095214D01*
X20678928Y-20109500D01*
X20693214Y-20123786D01*
X20707500Y-20152357D01*
X20721786Y-20209500D01*
X20721786Y-20280929D01*
X20707500Y-20338072D01*
X20693214Y-20366643D01*
X20678928Y-20380929D01*
X20650357Y-20395214D01*
X20621786Y-20395214D01*
X20593214Y-20380929D01*
X20578928Y-20366643D01*
X20564643Y-20338072D01*
X20550357Y-20280929D01*
X20550357Y-20209500D01*
X20564643Y-20152357D01*
X20578928Y-20123786D01*
X20593214Y-20109500D01*
X20621786Y-20095214D01*
X20893214Y-20223786D02*
X20864643Y-20209500D01*
X20850357Y-20195214D01*
X20836071Y-20166643D01*
X20836071Y-20152357D01*
X20850357Y-20123786D01*
X20864643Y-20109500D01*
X20893214Y-20095214D01*
X20950357Y-20095214D01*
X20978928Y-20109500D01*
X20993214Y-20123786D01*
X21007500Y-20152357D01*
X21007500Y-20166643D01*
X20993214Y-20195214D01*
X20978928Y-20209500D01*
X20950357Y-20223786D01*
X20893214Y-20223786D01*
X20864643Y-20238072D01*
X20850357Y-20252357D01*
X20836071Y-20280929D01*
X20836071Y-20338072D01*
X20850357Y-20366643D01*
X20864643Y-20380929D01*
X20893214Y-20395214D01*
X20950357Y-20395214D01*
X20978928Y-20380929D01*
X20993214Y-20366643D01*
X21007500Y-20338072D01*
X21007500Y-20280929D01*
X20993214Y-20252357D01*
X20978928Y-20238072D01*
X20950357Y-20223786D01*
X21264643Y-20095214D02*
X21207500Y-20095214D01*
X21178928Y-20109500D01*
X21164643Y-20123786D01*
X21136071Y-20166643D01*
X21121786Y-20223786D01*
X21121786Y-20338072D01*
X21136071Y-20366643D01*
X21150357Y-20380929D01*
X21178928Y-20395214D01*
X21236071Y-20395214D01*
X21264643Y-20380929D01*
X21278928Y-20366643D01*
X21293214Y-20338072D01*
X21293214Y-20266643D01*
X21278928Y-20238072D01*
X21264643Y-20223786D01*
X21236071Y-20209500D01*
X21178928Y-20209500D01*
X21150357Y-20223786D01*
X21136071Y-20238072D01*
X21121786Y-20266643D01*
X21550357Y-20095214D02*
X21493214Y-20095214D01*
X21464643Y-20109500D01*
X21450357Y-20123786D01*
X21421786Y-20166643D01*
X21407500Y-20223786D01*
X21407500Y-20338072D01*
X21421786Y-20366643D01*
X21436071Y-20380929D01*
X21464643Y-20395214D01*
X21521786Y-20395214D01*
X21550357Y-20380929D01*
X21564643Y-20366643D01*
X21578928Y-20338072D01*
X21578928Y-20266643D01*
X21564643Y-20238072D01*
X21550357Y-20223786D01*
X21521786Y-20209500D01*
X21464643Y-20209500D01*
X21436071Y-20223786D01*
X21421786Y-20238072D01*
X21407500Y-20266643D01*
X21693214Y-20095214D02*
X21693214Y-20152357D01*
X21807500Y-20095214D02*
X21807500Y-20152357D01*
X22250357Y-20509500D02*
X22236071Y-20495214D01*
X22207500Y-20452357D01*
X22193214Y-20423786D01*
X22178928Y-20380929D01*
X22164643Y-20309500D01*
X22164643Y-20252357D01*
X22178928Y-20180929D01*
X22193214Y-20138072D01*
X22207500Y-20109500D01*
X22236071Y-20066643D01*
X22250357Y-20052357D01*
X22493214Y-20095214D02*
X22436071Y-20095214D01*
X22407500Y-20109500D01*
X22393214Y-20123786D01*
X22364643Y-20166643D01*
X22350357Y-20223786D01*
X22350357Y-20338072D01*
X22364643Y-20366643D01*
X22378928Y-20380929D01*
X22407500Y-20395214D01*
X22464643Y-20395214D01*
X22493214Y-20380929D01*
X22507500Y-20366643D01*
X22521786Y-20338072D01*
X22521786Y-20266643D01*
X22507500Y-20238072D01*
X22493214Y-20223786D01*
X22464643Y-20209500D01*
X22407500Y-20209500D01*
X22378928Y-20223786D01*
X22364643Y-20238072D01*
X22350357Y-20266643D01*
X22878928Y-20395214D02*
X22878928Y-20095214D01*
X23007500Y-20395214D02*
X23007500Y-20238072D01*
X22993214Y-20209500D01*
X22964643Y-20195214D01*
X22921786Y-20195214D01*
X22893214Y-20209500D01*
X22878928Y-20223786D01*
X23193214Y-20395214D02*
X23164643Y-20380929D01*
X23150357Y-20366643D01*
X23136071Y-20338072D01*
X23136071Y-20252357D01*
X23150357Y-20223786D01*
X23164643Y-20209500D01*
X23193214Y-20195214D01*
X23236071Y-20195214D01*
X23264643Y-20209500D01*
X23278928Y-20223786D01*
X23293214Y-20252357D01*
X23293214Y-20338072D01*
X23278928Y-20366643D01*
X23264643Y-20380929D01*
X23236071Y-20395214D01*
X23193214Y-20395214D01*
X23464643Y-20395214D02*
X23436071Y-20380929D01*
X23421786Y-20352357D01*
X23421786Y-20095214D01*
X23693214Y-20380929D02*
X23664643Y-20395214D01*
X23607500Y-20395214D01*
X23578928Y-20380929D01*
X23564643Y-20352357D01*
X23564643Y-20238072D01*
X23578928Y-20209500D01*
X23607500Y-20195214D01*
X23664643Y-20195214D01*
X23693214Y-20209500D01*
X23707500Y-20238072D01*
X23707500Y-20266643D01*
X23564643Y-20295214D01*
X23821786Y-20380929D02*
X23850357Y-20395214D01*
X23907500Y-20395214D01*
X23936071Y-20380929D01*
X23950357Y-20352357D01*
X23950357Y-20338072D01*
X23936071Y-20309500D01*
X23907500Y-20295214D01*
X23864643Y-20295214D01*
X23836071Y-20280929D01*
X23821786Y-20252357D01*
X23821786Y-20238072D01*
X23836071Y-20209500D01*
X23864643Y-20195214D01*
X23907500Y-20195214D01*
X23936071Y-20209500D01*
X24050357Y-20509500D02*
X24064643Y-20495214D01*
X24093214Y-20452357D01*
X24107500Y-20423786D01*
X24121786Y-20380929D01*
X24136071Y-20309500D01*
X24136071Y-20252357D01*
X24121786Y-20180929D01*
X24107500Y-20138072D01*
X24093214Y-20109500D01*
X24064643Y-20066643D01*
X24050357Y-20052357D01*
X24593214Y-20509500D02*
X24578928Y-20495214D01*
X24550357Y-20452357D01*
X24536071Y-20423786D01*
X24521786Y-20380929D01*
X24507500Y-20309500D01*
X24507500Y-20252357D01*
X24521786Y-20180929D01*
X24536071Y-20138072D01*
X24550357Y-20109500D01*
X24578928Y-20066643D01*
X24593214Y-20052357D01*
X24707500Y-20195214D02*
X24707500Y-20395214D01*
X24707500Y-20223786D02*
X24721786Y-20209500D01*
X24750357Y-20195214D01*
X24793214Y-20195214D01*
X24821786Y-20209500D01*
X24836071Y-20238072D01*
X24836071Y-20395214D01*
X25021786Y-20395214D02*
X24993214Y-20380929D01*
X24978928Y-20366643D01*
X24964643Y-20338072D01*
X24964643Y-20252357D01*
X24978928Y-20223786D01*
X24993214Y-20209500D01*
X25021786Y-20195214D01*
X25064643Y-20195214D01*
X25093214Y-20209500D01*
X25107500Y-20223786D01*
X25121786Y-20252357D01*
X25121786Y-20338072D01*
X25107500Y-20366643D01*
X25093214Y-20380929D01*
X25064643Y-20395214D01*
X25021786Y-20395214D01*
X25207500Y-20195214D02*
X25321786Y-20195214D01*
X25250357Y-20095214D02*
X25250357Y-20352357D01*
X25264643Y-20380929D01*
X25293214Y-20395214D01*
X25321786Y-20395214D01*
X25650357Y-20195214D02*
X25650357Y-20495214D01*
X25650357Y-20209500D02*
X25678928Y-20195214D01*
X25736071Y-20195214D01*
X25764643Y-20209500D01*
X25778928Y-20223786D01*
X25793214Y-20252357D01*
X25793214Y-20338072D01*
X25778928Y-20366643D01*
X25764643Y-20380929D01*
X25736071Y-20395214D01*
X25678928Y-20395214D01*
X25650357Y-20380929D01*
X25964643Y-20395214D02*
X25936071Y-20380929D01*
X25921786Y-20352357D01*
X25921786Y-20095214D01*
X26207500Y-20395214D02*
X26207500Y-20238072D01*
X26193214Y-20209500D01*
X26164643Y-20195214D01*
X26107500Y-20195214D01*
X26078928Y-20209500D01*
X26207500Y-20380929D02*
X26178928Y-20395214D01*
X26107500Y-20395214D01*
X26078928Y-20380929D01*
X26064643Y-20352357D01*
X26064643Y-20323786D01*
X26078928Y-20295214D01*
X26107500Y-20280929D01*
X26178928Y-20280929D01*
X26207500Y-20266643D01*
X26307500Y-20195214D02*
X26421786Y-20195214D01*
X26350357Y-20095214D02*
X26350357Y-20352357D01*
X26364643Y-20380929D01*
X26393214Y-20395214D01*
X26421786Y-20395214D01*
X26636071Y-20380929D02*
X26607500Y-20395214D01*
X26550357Y-20395214D01*
X26521786Y-20380929D01*
X26507500Y-20352357D01*
X26507500Y-20238072D01*
X26521786Y-20209500D01*
X26550357Y-20195214D01*
X26607500Y-20195214D01*
X26636071Y-20209500D01*
X26650357Y-20238072D01*
X26650357Y-20266643D01*
X26507500Y-20295214D01*
X26907500Y-20395214D02*
X26907500Y-20095214D01*
X26907500Y-20380929D02*
X26878928Y-20395214D01*
X26821786Y-20395214D01*
X26793214Y-20380929D01*
X26778928Y-20366643D01*
X26764643Y-20338072D01*
X26764643Y-20252357D01*
X26778928Y-20223786D01*
X26793214Y-20209500D01*
X26821786Y-20195214D01*
X26878928Y-20195214D01*
X26907500Y-20209500D01*
X27021786Y-20509500D02*
X27036071Y-20495214D01*
X27064643Y-20452357D01*
X27078928Y-20423786D01*
X27093214Y-20380929D01*
X27107500Y-20309500D01*
X27107500Y-20252357D01*
X27093214Y-20180929D01*
X27078928Y-20138072D01*
X27064643Y-20109500D01*
X27036071Y-20066643D01*
X27021786Y-20052357D01*
X16948567Y-20761567D02*
X16948567Y-20549433D01*
X16736433Y-20549433D01*
X16736433Y-20761567D01*
X16948567Y-20761567D01*
X17250357Y-20491214D02*
X17436071Y-20491214D01*
X17336071Y-20605500D01*
X17378928Y-20605500D01*
X17407500Y-20619786D01*
X17421786Y-20634072D01*
X17436071Y-20662643D01*
X17436071Y-20734072D01*
X17421786Y-20762643D01*
X17407500Y-20776929D01*
X17378928Y-20791214D01*
X17293214Y-20791214D01*
X17264643Y-20776929D01*
X17250357Y-20762643D01*
X17564643Y-20762643D02*
X17578928Y-20776929D01*
X17564643Y-20791214D01*
X17550357Y-20776929D01*
X17564643Y-20762643D01*
X17564643Y-20791214D01*
X17764643Y-20491214D02*
X17793214Y-20491214D01*
X17821786Y-20505500D01*
X17836071Y-20519786D01*
X17850357Y-20548357D01*
X17864643Y-20605500D01*
X17864643Y-20676929D01*
X17850357Y-20734072D01*
X17836071Y-20762643D01*
X17821786Y-20776929D01*
X17793214Y-20791214D01*
X17764643Y-20791214D01*
X17736071Y-20776929D01*
X17721786Y-20762643D01*
X17707500Y-20734072D01*
X17693214Y-20676929D01*
X17693214Y-20605500D01*
X17707500Y-20548357D01*
X17721786Y-20519786D01*
X17736071Y-20505500D01*
X17764643Y-20491214D01*
X18050357Y-20491214D02*
X18078928Y-20491214D01*
X18107500Y-20505500D01*
X18121786Y-20519786D01*
X18136071Y-20548357D01*
X18150357Y-20605500D01*
X18150357Y-20676929D01*
X18136071Y-20734072D01*
X18121786Y-20762643D01*
X18107500Y-20776929D01*
X18078928Y-20791214D01*
X18050357Y-20791214D01*
X18021786Y-20776929D01*
X18007500Y-20762643D01*
X17993214Y-20734072D01*
X17978928Y-20676929D01*
X17978928Y-20605500D01*
X17993214Y-20548357D01*
X18007500Y-20519786D01*
X18021786Y-20505500D01*
X18050357Y-20491214D01*
X18336071Y-20491214D02*
X18364643Y-20491214D01*
X18393214Y-20505500D01*
X18407500Y-20519786D01*
X18421786Y-20548357D01*
X18436071Y-20605500D01*
X18436071Y-20676929D01*
X18421786Y-20734072D01*
X18407500Y-20762643D01*
X18393214Y-20776929D01*
X18364643Y-20791214D01*
X18336071Y-20791214D01*
X18307500Y-20776929D01*
X18293214Y-20762643D01*
X18278928Y-20734072D01*
X18264643Y-20676929D01*
X18264643Y-20605500D01*
X18278928Y-20548357D01*
X18293214Y-20519786D01*
X18307500Y-20505500D01*
X18336071Y-20491214D01*
X18564643Y-20791214D02*
X18564643Y-20591214D01*
X18564643Y-20619786D02*
X18578928Y-20605500D01*
X18607500Y-20591214D01*
X18650357Y-20591214D01*
X18678928Y-20605500D01*
X18693214Y-20634072D01*
X18693214Y-20791214D01*
X18693214Y-20634072D02*
X18707500Y-20605500D01*
X18736071Y-20591214D01*
X18778928Y-20591214D01*
X18807500Y-20605500D01*
X18821786Y-20634072D01*
X18821786Y-20791214D01*
X18964643Y-20791214D02*
X18964643Y-20591214D01*
X18964643Y-20619786D02*
X18978928Y-20605500D01*
X19007500Y-20591214D01*
X19050357Y-20591214D01*
X19078928Y-20605500D01*
X19093214Y-20634072D01*
X19093214Y-20791214D01*
X19093214Y-20634072D02*
X19107500Y-20605500D01*
X19136071Y-20591214D01*
X19178928Y-20591214D01*
X19207500Y-20605500D01*
X19221786Y-20634072D01*
X19221786Y-20791214D01*
X19807500Y-20476929D02*
X19550357Y-20862643D01*
X20193214Y-20491214D02*
X20221786Y-20491214D01*
X20250357Y-20505500D01*
X20264643Y-20519786D01*
X20278928Y-20548357D01*
X20293214Y-20605500D01*
X20293214Y-20676929D01*
X20278928Y-20734072D01*
X20264643Y-20762643D01*
X20250357Y-20776929D01*
X20221786Y-20791214D01*
X20193214Y-20791214D01*
X20164643Y-20776929D01*
X20150357Y-20762643D01*
X20136071Y-20734072D01*
X20121786Y-20676929D01*
X20121786Y-20605500D01*
X20136071Y-20548357D01*
X20150357Y-20519786D01*
X20164643Y-20505500D01*
X20193214Y-20491214D01*
X20421786Y-20762643D02*
X20436071Y-20776929D01*
X20421786Y-20791214D01*
X20407500Y-20776929D01*
X20421786Y-20762643D01*
X20421786Y-20791214D01*
X20721786Y-20791214D02*
X20550357Y-20791214D01*
X20636071Y-20791214D02*
X20636071Y-20491214D01*
X20607500Y-20534072D01*
X20578928Y-20562643D01*
X20550357Y-20576929D01*
X21007500Y-20791214D02*
X20836071Y-20791214D01*
X20921786Y-20791214D02*
X20921786Y-20491214D01*
X20893214Y-20534072D01*
X20864643Y-20562643D01*
X20836071Y-20576929D01*
X21178928Y-20619786D02*
X21150357Y-20605500D01*
X21136071Y-20591214D01*
X21121786Y-20562643D01*
X21121786Y-20548357D01*
X21136071Y-20519786D01*
X21150357Y-20505500D01*
X21178928Y-20491214D01*
X21236071Y-20491214D01*
X21264643Y-20505500D01*
X21278928Y-20519786D01*
X21293214Y-20548357D01*
X21293214Y-20562643D01*
X21278928Y-20591214D01*
X21264643Y-20605500D01*
X21236071Y-20619786D01*
X21178928Y-20619786D01*
X21150357Y-20634072D01*
X21136071Y-20648357D01*
X21121786Y-20676929D01*
X21121786Y-20734072D01*
X21136071Y-20762643D01*
X21150357Y-20776929D01*
X21178928Y-20791214D01*
X21236071Y-20791214D01*
X21264643Y-20776929D01*
X21278928Y-20762643D01*
X21293214Y-20734072D01*
X21293214Y-20676929D01*
X21278928Y-20648357D01*
X21264643Y-20634072D01*
X21236071Y-20619786D01*
X21578928Y-20791214D02*
X21407500Y-20791214D01*
X21493214Y-20791214D02*
X21493214Y-20491214D01*
X21464643Y-20534072D01*
X21436071Y-20562643D01*
X21407500Y-20576929D01*
X21693214Y-20491214D02*
X21693214Y-20548357D01*
X21807500Y-20491214D02*
X21807500Y-20548357D01*
X22250357Y-20905500D02*
X22236071Y-20891214D01*
X22207500Y-20848357D01*
X22193214Y-20819786D01*
X22178928Y-20776929D01*
X22164643Y-20705500D01*
X22164643Y-20648357D01*
X22178928Y-20576929D01*
X22193214Y-20534072D01*
X22207500Y-20505500D01*
X22236071Y-20462643D01*
X22250357Y-20448357D01*
X22521786Y-20791214D02*
X22350357Y-20791214D01*
X22436071Y-20791214D02*
X22436071Y-20491214D01*
X22407500Y-20534072D01*
X22378928Y-20562643D01*
X22350357Y-20576929D01*
X22707500Y-20491214D02*
X22736071Y-20491214D01*
X22764643Y-20505500D01*
X22778928Y-20519786D01*
X22793214Y-20548357D01*
X22807500Y-20605500D01*
X22807500Y-20676929D01*
X22793214Y-20734072D01*
X22778928Y-20762643D01*
X22764643Y-20776929D01*
X22736071Y-20791214D01*
X22707500Y-20791214D01*
X22678928Y-20776929D01*
X22664643Y-20762643D01*
X22650357Y-20734072D01*
X22636071Y-20676929D01*
X22636071Y-20605500D01*
X22650357Y-20548357D01*
X22664643Y-20519786D01*
X22678928Y-20505500D01*
X22707500Y-20491214D01*
X22978928Y-20619786D02*
X22950357Y-20605500D01*
X22936071Y-20591214D01*
X22921786Y-20562643D01*
X22921786Y-20548357D01*
X22936071Y-20519786D01*
X22950357Y-20505500D01*
X22978928Y-20491214D01*
X23036071Y-20491214D01*
X23064643Y-20505500D01*
X23078928Y-20519786D01*
X23093214Y-20548357D01*
X23093214Y-20562643D01*
X23078928Y-20591214D01*
X23064643Y-20605500D01*
X23036071Y-20619786D01*
X22978928Y-20619786D01*
X22950357Y-20634072D01*
X22936071Y-20648357D01*
X22921786Y-20676929D01*
X22921786Y-20734072D01*
X22936071Y-20762643D01*
X22950357Y-20776929D01*
X22978928Y-20791214D01*
X23036071Y-20791214D01*
X23064643Y-20776929D01*
X23078928Y-20762643D01*
X23093214Y-20734072D01*
X23093214Y-20676929D01*
X23078928Y-20648357D01*
X23064643Y-20634072D01*
X23036071Y-20619786D01*
X23450357Y-20791214D02*
X23450357Y-20491214D01*
X23578928Y-20791214D02*
X23578928Y-20634072D01*
X23564643Y-20605500D01*
X23536071Y-20591214D01*
X23493214Y-20591214D01*
X23464643Y-20605500D01*
X23450357Y-20619786D01*
X23764643Y-20791214D02*
X23736071Y-20776929D01*
X23721786Y-20762643D01*
X23707500Y-20734072D01*
X23707500Y-20648357D01*
X23721786Y-20619786D01*
X23736071Y-20605500D01*
X23764643Y-20591214D01*
X23807500Y-20591214D01*
X23836071Y-20605500D01*
X23850357Y-20619786D01*
X23864643Y-20648357D01*
X23864643Y-20734072D01*
X23850357Y-20762643D01*
X23836071Y-20776929D01*
X23807500Y-20791214D01*
X23764643Y-20791214D01*
X24036071Y-20791214D02*
X24007500Y-20776929D01*
X23993214Y-20748357D01*
X23993214Y-20491214D01*
X24264643Y-20776929D02*
X24236071Y-20791214D01*
X24178928Y-20791214D01*
X24150357Y-20776929D01*
X24136071Y-20748357D01*
X24136071Y-20634072D01*
X24150357Y-20605500D01*
X24178928Y-20591214D01*
X24236071Y-20591214D01*
X24264643Y-20605500D01*
X24278928Y-20634072D01*
X24278928Y-20662643D01*
X24136071Y-20691214D01*
X24393214Y-20776929D02*
X24421786Y-20791214D01*
X24478928Y-20791214D01*
X24507500Y-20776929D01*
X24521786Y-20748357D01*
X24521786Y-20734072D01*
X24507500Y-20705500D01*
X24478928Y-20691214D01*
X24436071Y-20691214D01*
X24407500Y-20676929D01*
X24393214Y-20648357D01*
X24393214Y-20634072D01*
X24407500Y-20605500D01*
X24436071Y-20591214D01*
X24478928Y-20591214D01*
X24507500Y-20605500D01*
X24621786Y-20905500D02*
X24636071Y-20891214D01*
X24664643Y-20848357D01*
X24678928Y-20819786D01*
X24693214Y-20776929D01*
X24707500Y-20705500D01*
X24707500Y-20648357D01*
X24693214Y-20576929D01*
X24678928Y-20534072D01*
X24664643Y-20505500D01*
X24636071Y-20462643D01*
X24621786Y-20448357D01*
X25164643Y-20905500D02*
X25150357Y-20891214D01*
X25121786Y-20848357D01*
X25107500Y-20819786D01*
X25093214Y-20776929D01*
X25078928Y-20705500D01*
X25078928Y-20648357D01*
X25093214Y-20576929D01*
X25107500Y-20534072D01*
X25121786Y-20505500D01*
X25150357Y-20462643D01*
X25164643Y-20448357D01*
X25278928Y-20591214D02*
X25278928Y-20791214D01*
X25278928Y-20619786D02*
X25293214Y-20605500D01*
X25321786Y-20591214D01*
X25364643Y-20591214D01*
X25393214Y-20605500D01*
X25407500Y-20634072D01*
X25407500Y-20791214D01*
X25593214Y-20791214D02*
X25564643Y-20776929D01*
X25550357Y-20762643D01*
X25536071Y-20734072D01*
X25536071Y-20648357D01*
X25550357Y-20619786D01*
X25564643Y-20605500D01*
X25593214Y-20591214D01*
X25636071Y-20591214D01*
X25664643Y-20605500D01*
X25678928Y-20619786D01*
X25693214Y-20648357D01*
X25693214Y-20734072D01*
X25678928Y-20762643D01*
X25664643Y-20776929D01*
X25636071Y-20791214D01*
X25593214Y-20791214D01*
X25778928Y-20591214D02*
X25893214Y-20591214D01*
X25821786Y-20491214D02*
X25821786Y-20748357D01*
X25836071Y-20776929D01*
X25864643Y-20791214D01*
X25893214Y-20791214D01*
X26221786Y-20591214D02*
X26221786Y-20891214D01*
X26221786Y-20605500D02*
X26250357Y-20591214D01*
X26307500Y-20591214D01*
X26336071Y-20605500D01*
X26350357Y-20619786D01*
X26364643Y-20648357D01*
X26364643Y-20734072D01*
X26350357Y-20762643D01*
X26336071Y-20776929D01*
X26307500Y-20791214D01*
X26250357Y-20791214D01*
X26221786Y-20776929D01*
X26536071Y-20791214D02*
X26507500Y-20776929D01*
X26493214Y-20748357D01*
X26493214Y-20491214D01*
X26778928Y-20791214D02*
X26778928Y-20634072D01*
X26764643Y-20605500D01*
X26736071Y-20591214D01*
X26678928Y-20591214D01*
X26650357Y-20605500D01*
X26778928Y-20776929D02*
X26750357Y-20791214D01*
X26678928Y-20791214D01*
X26650357Y-20776929D01*
X26636071Y-20748357D01*
X26636071Y-20719786D01*
X26650357Y-20691214D01*
X26678928Y-20676929D01*
X26750357Y-20676929D01*
X26778928Y-20662643D01*
X26878928Y-20591214D02*
X26993214Y-20591214D01*
X26921786Y-20491214D02*
X26921786Y-20748357D01*
X26936071Y-20776929D01*
X26964643Y-20791214D01*
X26993214Y-20791214D01*
X27207500Y-20776929D02*
X27178928Y-20791214D01*
X27121786Y-20791214D01*
X27093214Y-20776929D01*
X27078928Y-20748357D01*
X27078928Y-20634072D01*
X27093214Y-20605500D01*
X27121786Y-20591214D01*
X27178928Y-20591214D01*
X27207500Y-20605500D01*
X27221786Y-20634072D01*
X27221786Y-20662643D01*
X27078928Y-20691214D01*
X27478928Y-20791214D02*
X27478928Y-20491214D01*
X27478928Y-20776929D02*
X27450357Y-20791214D01*
X27393214Y-20791214D01*
X27364643Y-20776929D01*
X27350357Y-20762643D01*
X27336071Y-20734072D01*
X27336071Y-20648357D01*
X27350357Y-20619786D01*
X27364643Y-20605500D01*
X27393214Y-20591214D01*
X27450357Y-20591214D01*
X27478928Y-20605500D01*
X27593214Y-20905500D02*
X27607500Y-20891214D01*
X27636071Y-20848357D01*
X27650357Y-20819786D01*
X27664643Y-20776929D01*
X27678928Y-20705500D01*
X27678928Y-20648357D01*
X27664643Y-20576929D01*
X27650357Y-20534072D01*
X27636071Y-20505500D01*
X27607500Y-20462643D01*
X27593214Y-20448357D01*
X16840100Y-21237900D02*
X16992500Y-21085500D01*
X16840100Y-20933100D01*
X16687700Y-21085500D01*
X16840100Y-21237900D01*
X17250357Y-20921214D02*
X17436071Y-20921214D01*
X17336071Y-21035500D01*
X17378928Y-21035500D01*
X17407500Y-21049786D01*
X17421786Y-21064072D01*
X17436071Y-21092643D01*
X17436071Y-21164072D01*
X17421786Y-21192643D01*
X17407500Y-21206929D01*
X17378928Y-21221214D01*
X17293214Y-21221214D01*
X17264643Y-21206929D01*
X17250357Y-21192643D01*
X17564643Y-21192643D02*
X17578928Y-21206929D01*
X17564643Y-21221214D01*
X17550357Y-21206929D01*
X17564643Y-21192643D01*
X17564643Y-21221214D01*
X17764643Y-20921214D02*
X17793214Y-20921214D01*
X17821786Y-20935500D01*
X17836071Y-20949786D01*
X17850357Y-20978357D01*
X17864643Y-21035500D01*
X17864643Y-21106929D01*
X17850357Y-21164072D01*
X17836071Y-21192643D01*
X17821786Y-21206929D01*
X17793214Y-21221214D01*
X17764643Y-21221214D01*
X17736071Y-21206929D01*
X17721786Y-21192643D01*
X17707500Y-21164072D01*
X17693214Y-21106929D01*
X17693214Y-21035500D01*
X17707500Y-20978357D01*
X17721786Y-20949786D01*
X17736071Y-20935500D01*
X17764643Y-20921214D01*
X18121786Y-21021214D02*
X18121786Y-21221214D01*
X18050357Y-20906929D02*
X17978928Y-21121214D01*
X18164643Y-21121214D01*
X18321786Y-21049786D02*
X18293214Y-21035500D01*
X18278928Y-21021214D01*
X18264643Y-20992643D01*
X18264643Y-20978357D01*
X18278928Y-20949786D01*
X18293214Y-20935500D01*
X18321786Y-20921214D01*
X18378928Y-20921214D01*
X18407500Y-20935500D01*
X18421786Y-20949786D01*
X18436071Y-20978357D01*
X18436071Y-20992643D01*
X18421786Y-21021214D01*
X18407500Y-21035500D01*
X18378928Y-21049786D01*
X18321786Y-21049786D01*
X18293214Y-21064072D01*
X18278928Y-21078357D01*
X18264643Y-21106929D01*
X18264643Y-21164072D01*
X18278928Y-21192643D01*
X18293214Y-21206929D01*
X18321786Y-21221214D01*
X18378928Y-21221214D01*
X18407500Y-21206929D01*
X18421786Y-21192643D01*
X18436071Y-21164072D01*
X18436071Y-21106929D01*
X18421786Y-21078357D01*
X18407500Y-21064072D01*
X18378928Y-21049786D01*
X18564643Y-21221214D02*
X18564643Y-21021214D01*
X18564643Y-21049786D02*
X18578928Y-21035500D01*
X18607500Y-21021214D01*
X18650357Y-21021214D01*
X18678928Y-21035500D01*
X18693214Y-21064072D01*
X18693214Y-21221214D01*
X18693214Y-21064072D02*
X18707500Y-21035500D01*
X18736071Y-21021214D01*
X18778928Y-21021214D01*
X18807500Y-21035500D01*
X18821786Y-21064072D01*
X18821786Y-21221214D01*
X18964643Y-21221214D02*
X18964643Y-21021214D01*
X18964643Y-21049786D02*
X18978928Y-21035500D01*
X19007500Y-21021214D01*
X19050357Y-21021214D01*
X19078928Y-21035500D01*
X19093214Y-21064072D01*
X19093214Y-21221214D01*
X19093214Y-21064072D02*
X19107500Y-21035500D01*
X19136071Y-21021214D01*
X19178928Y-21021214D01*
X19207500Y-21035500D01*
X19221786Y-21064072D01*
X19221786Y-21221214D01*
X19807500Y-20906929D02*
X19550357Y-21292643D01*
X20193214Y-20921214D02*
X20221786Y-20921214D01*
X20250357Y-20935500D01*
X20264643Y-20949786D01*
X20278928Y-20978357D01*
X20293214Y-21035500D01*
X20293214Y-21106929D01*
X20278928Y-21164072D01*
X20264643Y-21192643D01*
X20250357Y-21206929D01*
X20221786Y-21221214D01*
X20193214Y-21221214D01*
X20164643Y-21206929D01*
X20150357Y-21192643D01*
X20136071Y-21164072D01*
X20121786Y-21106929D01*
X20121786Y-21035500D01*
X20136071Y-20978357D01*
X20150357Y-20949786D01*
X20164643Y-20935500D01*
X20193214Y-20921214D01*
X20421786Y-21192643D02*
X20436071Y-21206929D01*
X20421786Y-21221214D01*
X20407500Y-21206929D01*
X20421786Y-21192643D01*
X20421786Y-21221214D01*
X20721786Y-21221214D02*
X20550357Y-21221214D01*
X20636071Y-21221214D02*
X20636071Y-20921214D01*
X20607500Y-20964072D01*
X20578928Y-20992643D01*
X20550357Y-21006929D01*
X20836071Y-20949786D02*
X20850357Y-20935500D01*
X20878928Y-20921214D01*
X20950357Y-20921214D01*
X20978928Y-20935500D01*
X20993214Y-20949786D01*
X21007500Y-20978357D01*
X21007500Y-21006929D01*
X20993214Y-21049786D01*
X20821786Y-21221214D01*
X21007500Y-21221214D01*
X21193214Y-20921214D02*
X21221786Y-20921214D01*
X21250357Y-20935500D01*
X21264643Y-20949786D01*
X21278928Y-20978357D01*
X21293214Y-21035500D01*
X21293214Y-21106929D01*
X21278928Y-21164072D01*
X21264643Y-21192643D01*
X21250357Y-21206929D01*
X21221786Y-21221214D01*
X21193214Y-21221214D01*
X21164643Y-21206929D01*
X21150357Y-21192643D01*
X21136071Y-21164072D01*
X21121786Y-21106929D01*
X21121786Y-21035500D01*
X21136071Y-20978357D01*
X21150357Y-20949786D01*
X21164643Y-20935500D01*
X21193214Y-20921214D01*
X21478928Y-20921214D02*
X21507500Y-20921214D01*
X21536071Y-20935500D01*
X21550357Y-20949786D01*
X21564643Y-20978357D01*
X21578928Y-21035500D01*
X21578928Y-21106929D01*
X21564643Y-21164072D01*
X21550357Y-21192643D01*
X21536071Y-21206929D01*
X21507500Y-21221214D01*
X21478928Y-21221214D01*
X21450357Y-21206929D01*
X21436071Y-21192643D01*
X21421786Y-21164072D01*
X21407500Y-21106929D01*
X21407500Y-21035500D01*
X21421786Y-20978357D01*
X21436071Y-20949786D01*
X21450357Y-20935500D01*
X21478928Y-20921214D01*
X21693214Y-20921214D02*
X21693214Y-20978357D01*
X21807500Y-20921214D02*
X21807500Y-20978357D01*
X22250357Y-21335500D02*
X22236071Y-21321214D01*
X22207500Y-21278357D01*
X22193214Y-21249786D01*
X22178928Y-21206929D01*
X22164643Y-21135500D01*
X22164643Y-21078357D01*
X22178928Y-21006929D01*
X22193214Y-20964072D01*
X22207500Y-20935500D01*
X22236071Y-20892643D01*
X22250357Y-20878357D01*
X22521786Y-21221214D02*
X22350357Y-21221214D01*
X22436071Y-21221214D02*
X22436071Y-20921214D01*
X22407500Y-20964072D01*
X22378928Y-20992643D01*
X22350357Y-21006929D01*
X22707500Y-20921214D02*
X22736071Y-20921214D01*
X22764643Y-20935500D01*
X22778928Y-20949786D01*
X22793214Y-20978357D01*
X22807500Y-21035500D01*
X22807500Y-21106929D01*
X22793214Y-21164072D01*
X22778928Y-21192643D01*
X22764643Y-21206929D01*
X22736071Y-21221214D01*
X22707500Y-21221214D01*
X22678928Y-21206929D01*
X22664643Y-21192643D01*
X22650357Y-21164072D01*
X22636071Y-21106929D01*
X22636071Y-21035500D01*
X22650357Y-20978357D01*
X22664643Y-20949786D01*
X22678928Y-20935500D01*
X22707500Y-20921214D01*
X23164643Y-21221214D02*
X23164643Y-20921214D01*
X23293214Y-21221214D02*
X23293214Y-21064072D01*
X23278928Y-21035500D01*
X23250357Y-21021214D01*
X23207500Y-21021214D01*
X23178928Y-21035500D01*
X23164643Y-21049786D01*
X23478928Y-21221214D02*
X23450357Y-21206929D01*
X23436071Y-21192643D01*
X23421786Y-21164072D01*
X23421786Y-21078357D01*
X23436071Y-21049786D01*
X23450357Y-21035500D01*
X23478928Y-21021214D01*
X23521786Y-21021214D01*
X23550357Y-21035500D01*
X23564643Y-21049786D01*
X23578928Y-21078357D01*
X23578928Y-21164072D01*
X23564643Y-21192643D01*
X23550357Y-21206929D01*
X23521786Y-21221214D01*
X23478928Y-21221214D01*
X23750357Y-21221214D02*
X23721786Y-21206929D01*
X23707500Y-21178357D01*
X23707500Y-20921214D01*
X23978928Y-21206929D02*
X23950357Y-21221214D01*
X23893214Y-21221214D01*
X23864643Y-21206929D01*
X23850357Y-21178357D01*
X23850357Y-21064072D01*
X23864643Y-21035500D01*
X23893214Y-21021214D01*
X23950357Y-21021214D01*
X23978928Y-21035500D01*
X23993214Y-21064072D01*
X23993214Y-21092643D01*
X23850357Y-21121214D01*
X24107500Y-21206929D02*
X24136071Y-21221214D01*
X24193214Y-21221214D01*
X24221786Y-21206929D01*
X24236071Y-21178357D01*
X24236071Y-21164072D01*
X24221786Y-21135500D01*
X24193214Y-21121214D01*
X24150357Y-21121214D01*
X24121786Y-21106929D01*
X24107500Y-21078357D01*
X24107500Y-21064072D01*
X24121786Y-21035500D01*
X24150357Y-21021214D01*
X24193214Y-21021214D01*
X24221786Y-21035500D01*
X24336071Y-21335500D02*
X24350357Y-21321214D01*
X24378928Y-21278357D01*
X24393214Y-21249786D01*
X24407500Y-21206929D01*
X24421786Y-21135500D01*
X24421786Y-21078357D01*
X24407500Y-21006929D01*
X24393214Y-20964072D01*
X24378928Y-20935500D01*
X24350357Y-20892643D01*
X24336071Y-20878357D01*
X24878928Y-21335500D02*
X24864643Y-21321214D01*
X24836071Y-21278357D01*
X24821786Y-21249786D01*
X24807500Y-21206929D01*
X24793214Y-21135500D01*
X24793214Y-21078357D01*
X24807500Y-21006929D01*
X24821786Y-20964072D01*
X24836071Y-20935500D01*
X24864643Y-20892643D01*
X24878928Y-20878357D01*
X24993214Y-21021214D02*
X24993214Y-21221214D01*
X24993214Y-21049786D02*
X25007500Y-21035500D01*
X25036071Y-21021214D01*
X25078928Y-21021214D01*
X25107500Y-21035500D01*
X25121786Y-21064072D01*
X25121786Y-21221214D01*
X25307500Y-21221214D02*
X25278928Y-21206929D01*
X25264643Y-21192643D01*
X25250357Y-21164072D01*
X25250357Y-21078357D01*
X25264643Y-21049786D01*
X25278928Y-21035500D01*
X25307500Y-21021214D01*
X25350357Y-21021214D01*
X25378928Y-21035500D01*
X25393214Y-21049786D01*
X25407500Y-21078357D01*
X25407500Y-21164072D01*
X25393214Y-21192643D01*
X25378928Y-21206929D01*
X25350357Y-21221214D01*
X25307500Y-21221214D01*
X25493214Y-21021214D02*
X25607500Y-21021214D01*
X25536071Y-20921214D02*
X25536071Y-21178357D01*
X25550357Y-21206929D01*
X25578928Y-21221214D01*
X25607500Y-21221214D01*
X25936071Y-21021214D02*
X25936071Y-21321214D01*
X25936071Y-21035500D02*
X25964643Y-21021214D01*
X26021786Y-21021214D01*
X26050357Y-21035500D01*
X26064643Y-21049786D01*
X26078928Y-21078357D01*
X26078928Y-21164072D01*
X26064643Y-21192643D01*
X26050357Y-21206929D01*
X26021786Y-21221214D01*
X25964643Y-21221214D01*
X25936071Y-21206929D01*
X26250357Y-21221214D02*
X26221786Y-21206929D01*
X26207500Y-21178357D01*
X26207500Y-20921214D01*
X26493214Y-21221214D02*
X26493214Y-21064072D01*
X26478928Y-21035500D01*
X26450357Y-21021214D01*
X26393214Y-21021214D01*
X26364643Y-21035500D01*
X26493214Y-21206929D02*
X26464643Y-21221214D01*
X26393214Y-21221214D01*
X26364643Y-21206929D01*
X26350357Y-21178357D01*
X26350357Y-21149786D01*
X26364643Y-21121214D01*
X26393214Y-21106929D01*
X26464643Y-21106929D01*
X26493214Y-21092643D01*
X26593214Y-21021214D02*
X26707500Y-21021214D01*
X26636071Y-20921214D02*
X26636071Y-21178357D01*
X26650357Y-21206929D01*
X26678928Y-21221214D01*
X26707500Y-21221214D01*
X26921786Y-21206929D02*
X26893214Y-21221214D01*
X26836071Y-21221214D01*
X26807500Y-21206929D01*
X26793214Y-21178357D01*
X26793214Y-21064072D01*
X26807500Y-21035500D01*
X26836071Y-21021214D01*
X26893214Y-21021214D01*
X26921786Y-21035500D01*
X26936071Y-21064072D01*
X26936071Y-21092643D01*
X26793214Y-21121214D01*
X27193214Y-21221214D02*
X27193214Y-20921214D01*
X27193214Y-21206929D02*
X27164643Y-21221214D01*
X27107500Y-21221214D01*
X27078928Y-21206929D01*
X27064643Y-21192643D01*
X27050357Y-21164072D01*
X27050357Y-21078357D01*
X27064643Y-21049786D01*
X27078928Y-21035500D01*
X27107500Y-21021214D01*
X27164643Y-21021214D01*
X27193214Y-21035500D01*
X27307500Y-21335500D02*
X27321786Y-21321214D01*
X27350357Y-21278357D01*
X27364643Y-21249786D01*
X27378928Y-21206929D01*
X27393214Y-21135500D01*
X27393214Y-21078357D01*
X27378928Y-21006929D01*
X27364643Y-20964072D01*
X27350357Y-20935500D01*
X27321786Y-20892643D01*
X27307500Y-20878357D01*
X16593720Y-21320910D02*
X16992500Y-21719690D01*
X16992500Y-21320910D02*
X16593720Y-21719690D01*
X16992500Y-21520300D02*
G75*
G03*
X16992500Y-21520300I-199390J0D01*
G01*
X17250357Y-21356014D02*
X17436071Y-21356014D01*
X17336071Y-21470300D01*
X17378928Y-21470300D01*
X17407500Y-21484586D01*
X17421786Y-21498872D01*
X17436071Y-21527443D01*
X17436071Y-21598872D01*
X17421786Y-21627443D01*
X17407500Y-21641729D01*
X17378928Y-21656014D01*
X17293214Y-21656014D01*
X17264643Y-21641729D01*
X17250357Y-21627443D01*
X17564643Y-21627443D02*
X17578928Y-21641729D01*
X17564643Y-21656014D01*
X17550357Y-21641729D01*
X17564643Y-21627443D01*
X17564643Y-21656014D01*
X17721786Y-21656014D02*
X17778928Y-21656014D01*
X17807500Y-21641729D01*
X17821786Y-21627443D01*
X17850357Y-21584586D01*
X17864643Y-21527443D01*
X17864643Y-21413157D01*
X17850357Y-21384586D01*
X17836071Y-21370300D01*
X17807500Y-21356014D01*
X17750357Y-21356014D01*
X17721786Y-21370300D01*
X17707500Y-21384586D01*
X17693214Y-21413157D01*
X17693214Y-21484586D01*
X17707500Y-21513157D01*
X17721786Y-21527443D01*
X17750357Y-21541729D01*
X17807500Y-21541729D01*
X17836071Y-21527443D01*
X17850357Y-21513157D01*
X17864643Y-21484586D01*
X18036071Y-21484586D02*
X18007500Y-21470300D01*
X17993214Y-21456014D01*
X17978928Y-21427443D01*
X17978928Y-21413157D01*
X17993214Y-21384586D01*
X18007500Y-21370300D01*
X18036071Y-21356014D01*
X18093214Y-21356014D01*
X18121786Y-21370300D01*
X18136071Y-21384586D01*
X18150357Y-21413157D01*
X18150357Y-21427443D01*
X18136071Y-21456014D01*
X18121786Y-21470300D01*
X18093214Y-21484586D01*
X18036071Y-21484586D01*
X18007500Y-21498872D01*
X17993214Y-21513157D01*
X17978928Y-21541729D01*
X17978928Y-21598872D01*
X17993214Y-21627443D01*
X18007500Y-21641729D01*
X18036071Y-21656014D01*
X18093214Y-21656014D01*
X18121786Y-21641729D01*
X18136071Y-21627443D01*
X18150357Y-21598872D01*
X18150357Y-21541729D01*
X18136071Y-21513157D01*
X18121786Y-21498872D01*
X18093214Y-21484586D01*
X18321786Y-21484586D02*
X18293214Y-21470300D01*
X18278928Y-21456014D01*
X18264643Y-21427443D01*
X18264643Y-21413157D01*
X18278928Y-21384586D01*
X18293214Y-21370300D01*
X18321786Y-21356014D01*
X18378928Y-21356014D01*
X18407500Y-21370300D01*
X18421786Y-21384586D01*
X18436071Y-21413157D01*
X18436071Y-21427443D01*
X18421786Y-21456014D01*
X18407500Y-21470300D01*
X18378928Y-21484586D01*
X18321786Y-21484586D01*
X18293214Y-21498872D01*
X18278928Y-21513157D01*
X18264643Y-21541729D01*
X18264643Y-21598872D01*
X18278928Y-21627443D01*
X18293214Y-21641729D01*
X18321786Y-21656014D01*
X18378928Y-21656014D01*
X18407500Y-21641729D01*
X18421786Y-21627443D01*
X18436071Y-21598872D01*
X18436071Y-21541729D01*
X18421786Y-21513157D01*
X18407500Y-21498872D01*
X18378928Y-21484586D01*
X18564643Y-21656014D02*
X18564643Y-21456014D01*
X18564643Y-21484586D02*
X18578928Y-21470300D01*
X18607500Y-21456014D01*
X18650357Y-21456014D01*
X18678928Y-21470300D01*
X18693214Y-21498872D01*
X18693214Y-21656014D01*
X18693214Y-21498872D02*
X18707500Y-21470300D01*
X18736071Y-21456014D01*
X18778928Y-21456014D01*
X18807500Y-21470300D01*
X18821786Y-21498872D01*
X18821786Y-21656014D01*
X18964643Y-21656014D02*
X18964643Y-21456014D01*
X18964643Y-21484586D02*
X18978928Y-21470300D01*
X19007500Y-21456014D01*
X19050357Y-21456014D01*
X19078928Y-21470300D01*
X19093214Y-21498872D01*
X19093214Y-21656014D01*
X19093214Y-21498872D02*
X19107500Y-21470300D01*
X19136071Y-21456014D01*
X19178928Y-21456014D01*
X19207500Y-21470300D01*
X19221786Y-21498872D01*
X19221786Y-21656014D01*
X19807500Y-21341729D02*
X19550357Y-21727443D01*
X20193214Y-21356014D02*
X20221786Y-21356014D01*
X20250357Y-21370300D01*
X20264643Y-21384586D01*
X20278928Y-21413157D01*
X20293214Y-21470300D01*
X20293214Y-21541729D01*
X20278928Y-21598872D01*
X20264643Y-21627443D01*
X20250357Y-21641729D01*
X20221786Y-21656014D01*
X20193214Y-21656014D01*
X20164643Y-21641729D01*
X20150357Y-21627443D01*
X20136071Y-21598872D01*
X20121786Y-21541729D01*
X20121786Y-21470300D01*
X20136071Y-21413157D01*
X20150357Y-21384586D01*
X20164643Y-21370300D01*
X20193214Y-21356014D01*
X20421786Y-21627443D02*
X20436071Y-21641729D01*
X20421786Y-21656014D01*
X20407500Y-21641729D01*
X20421786Y-21627443D01*
X20421786Y-21656014D01*
X20721786Y-21656014D02*
X20550357Y-21656014D01*
X20636071Y-21656014D02*
X20636071Y-21356014D01*
X20607500Y-21398872D01*
X20578928Y-21427443D01*
X20550357Y-21441729D01*
X20993214Y-21356014D02*
X20850357Y-21356014D01*
X20836071Y-21498872D01*
X20850357Y-21484586D01*
X20878928Y-21470300D01*
X20950357Y-21470300D01*
X20978928Y-21484586D01*
X20993214Y-21498872D01*
X21007500Y-21527443D01*
X21007500Y-21598872D01*
X20993214Y-21627443D01*
X20978928Y-21641729D01*
X20950357Y-21656014D01*
X20878928Y-21656014D01*
X20850357Y-21641729D01*
X20836071Y-21627443D01*
X21107500Y-21356014D02*
X21307500Y-21356014D01*
X21178928Y-21656014D01*
X21478928Y-21356014D02*
X21507500Y-21356014D01*
X21536071Y-21370300D01*
X21550357Y-21384586D01*
X21564643Y-21413157D01*
X21578928Y-21470300D01*
X21578928Y-21541729D01*
X21564643Y-21598872D01*
X21550357Y-21627443D01*
X21536071Y-21641729D01*
X21507500Y-21656014D01*
X21478928Y-21656014D01*
X21450357Y-21641729D01*
X21436071Y-21627443D01*
X21421786Y-21598872D01*
X21407500Y-21541729D01*
X21407500Y-21470300D01*
X21421786Y-21413157D01*
X21436071Y-21384586D01*
X21450357Y-21370300D01*
X21478928Y-21356014D01*
X21693214Y-21356014D02*
X21693214Y-21413157D01*
X21807500Y-21356014D02*
X21807500Y-21413157D01*
X22250357Y-21770300D02*
X22236071Y-21756014D01*
X22207500Y-21713157D01*
X22193214Y-21684586D01*
X22178928Y-21641729D01*
X22164643Y-21570300D01*
X22164643Y-21513157D01*
X22178928Y-21441729D01*
X22193214Y-21398872D01*
X22207500Y-21370300D01*
X22236071Y-21327443D01*
X22250357Y-21313157D01*
X22493214Y-21356014D02*
X22436071Y-21356014D01*
X22407500Y-21370300D01*
X22393214Y-21384586D01*
X22364643Y-21427443D01*
X22350357Y-21484586D01*
X22350357Y-21598872D01*
X22364643Y-21627443D01*
X22378928Y-21641729D01*
X22407500Y-21656014D01*
X22464643Y-21656014D01*
X22493214Y-21641729D01*
X22507500Y-21627443D01*
X22521786Y-21598872D01*
X22521786Y-21527443D01*
X22507500Y-21498872D01*
X22493214Y-21484586D01*
X22464643Y-21470300D01*
X22407500Y-21470300D01*
X22378928Y-21484586D01*
X22364643Y-21498872D01*
X22350357Y-21527443D01*
X22793214Y-21356014D02*
X22650357Y-21356014D01*
X22636071Y-21498872D01*
X22650357Y-21484586D01*
X22678928Y-21470300D01*
X22750357Y-21470300D01*
X22778928Y-21484586D01*
X22793214Y-21498872D01*
X22807500Y-21527443D01*
X22807500Y-21598872D01*
X22793214Y-21627443D01*
X22778928Y-21641729D01*
X22750357Y-21656014D01*
X22678928Y-21656014D01*
X22650357Y-21641729D01*
X22636071Y-21627443D01*
X23164643Y-21656014D02*
X23164643Y-21356014D01*
X23293214Y-21656014D02*
X23293214Y-21498872D01*
X23278928Y-21470300D01*
X23250357Y-21456014D01*
X23207500Y-21456014D01*
X23178928Y-21470300D01*
X23164643Y-21484586D01*
X23478928Y-21656014D02*
X23450357Y-21641729D01*
X23436071Y-21627443D01*
X23421786Y-21598872D01*
X23421786Y-21513157D01*
X23436071Y-21484586D01*
X23450357Y-21470300D01*
X23478928Y-21456014D01*
X23521786Y-21456014D01*
X23550357Y-21470300D01*
X23564643Y-21484586D01*
X23578928Y-21513157D01*
X23578928Y-21598872D01*
X23564643Y-21627443D01*
X23550357Y-21641729D01*
X23521786Y-21656014D01*
X23478928Y-21656014D01*
X23750357Y-21656014D02*
X23721786Y-21641729D01*
X23707500Y-21613157D01*
X23707500Y-21356014D01*
X23978928Y-21641729D02*
X23950357Y-21656014D01*
X23893214Y-21656014D01*
X23864643Y-21641729D01*
X23850357Y-21613157D01*
X23850357Y-21498872D01*
X23864643Y-21470300D01*
X23893214Y-21456014D01*
X23950357Y-21456014D01*
X23978928Y-21470300D01*
X23993214Y-21498872D01*
X23993214Y-21527443D01*
X23850357Y-21556014D01*
X24107500Y-21641729D02*
X24136071Y-21656014D01*
X24193214Y-21656014D01*
X24221786Y-21641729D01*
X24236071Y-21613157D01*
X24236071Y-21598872D01*
X24221786Y-21570300D01*
X24193214Y-21556014D01*
X24150357Y-21556014D01*
X24121786Y-21541729D01*
X24107500Y-21513157D01*
X24107500Y-21498872D01*
X24121786Y-21470300D01*
X24150357Y-21456014D01*
X24193214Y-21456014D01*
X24221786Y-21470300D01*
X24336071Y-21770300D02*
X24350357Y-21756014D01*
X24378928Y-21713157D01*
X24393214Y-21684586D01*
X24407500Y-21641729D01*
X24421786Y-21570300D01*
X24421786Y-21513157D01*
X24407500Y-21441729D01*
X24393214Y-21398872D01*
X24378928Y-21370300D01*
X24350357Y-21327443D01*
X24336071Y-21313157D01*
X24878928Y-21770300D02*
X24864643Y-21756014D01*
X24836071Y-21713157D01*
X24821786Y-21684586D01*
X24807500Y-21641729D01*
X24793214Y-21570300D01*
X24793214Y-21513157D01*
X24807500Y-21441729D01*
X24821786Y-21398872D01*
X24836071Y-21370300D01*
X24864643Y-21327443D01*
X24878928Y-21313157D01*
X24993214Y-21456014D02*
X24993214Y-21656014D01*
X24993214Y-21484586D02*
X25007500Y-21470300D01*
X25036071Y-21456014D01*
X25078928Y-21456014D01*
X25107500Y-21470300D01*
X25121786Y-21498872D01*
X25121786Y-21656014D01*
X25307500Y-21656014D02*
X25278928Y-21641729D01*
X25264643Y-21627443D01*
X25250357Y-21598872D01*
X25250357Y-21513157D01*
X25264643Y-21484586D01*
X25278928Y-21470300D01*
X25307500Y-21456014D01*
X25350357Y-21456014D01*
X25378928Y-21470300D01*
X25393214Y-21484586D01*
X25407500Y-21513157D01*
X25407500Y-21598872D01*
X25393214Y-21627443D01*
X25378928Y-21641729D01*
X25350357Y-21656014D01*
X25307500Y-21656014D01*
X25493214Y-21456014D02*
X25607500Y-21456014D01*
X25536071Y-21356014D02*
X25536071Y-21613157D01*
X25550357Y-21641729D01*
X25578928Y-21656014D01*
X25607500Y-21656014D01*
X25936071Y-21456014D02*
X25936071Y-21756014D01*
X25936071Y-21470300D02*
X25964643Y-21456014D01*
X26021786Y-21456014D01*
X26050357Y-21470300D01*
X26064643Y-21484586D01*
X26078928Y-21513157D01*
X26078928Y-21598872D01*
X26064643Y-21627443D01*
X26050357Y-21641729D01*
X26021786Y-21656014D01*
X25964643Y-21656014D01*
X25936071Y-21641729D01*
X26250357Y-21656014D02*
X26221786Y-21641729D01*
X26207500Y-21613157D01*
X26207500Y-21356014D01*
X26493214Y-21656014D02*
X26493214Y-21498872D01*
X26478928Y-21470300D01*
X26450357Y-21456014D01*
X26393214Y-21456014D01*
X26364643Y-21470300D01*
X26493214Y-21641729D02*
X26464643Y-21656014D01*
X26393214Y-21656014D01*
X26364643Y-21641729D01*
X26350357Y-21613157D01*
X26350357Y-21584586D01*
X26364643Y-21556014D01*
X26393214Y-21541729D01*
X26464643Y-21541729D01*
X26493214Y-21527443D01*
X26593214Y-21456014D02*
X26707500Y-21456014D01*
X26636071Y-21356014D02*
X26636071Y-21613157D01*
X26650357Y-21641729D01*
X26678928Y-21656014D01*
X26707500Y-21656014D01*
X26921786Y-21641729D02*
X26893214Y-21656014D01*
X26836071Y-21656014D01*
X26807500Y-21641729D01*
X26793214Y-21613157D01*
X26793214Y-21498872D01*
X26807500Y-21470300D01*
X26836071Y-21456014D01*
X26893214Y-21456014D01*
X26921786Y-21470300D01*
X26936071Y-21498872D01*
X26936071Y-21527443D01*
X26793214Y-21556014D01*
X27193214Y-21656014D02*
X27193214Y-21356014D01*
X27193214Y-21641729D02*
X27164643Y-21656014D01*
X27107500Y-21656014D01*
X27078928Y-21641729D01*
X27064643Y-21627443D01*
X27050357Y-21598872D01*
X27050357Y-21513157D01*
X27064643Y-21484586D01*
X27078928Y-21470300D01*
X27107500Y-21456014D01*
X27164643Y-21456014D01*
X27193214Y-21470300D01*
X27307500Y-21770300D02*
X27321786Y-21756014D01*
X27350357Y-21713157D01*
X27364643Y-21684586D01*
X27378928Y-21641729D01*
X27393214Y-21570300D01*
X27393214Y-21513157D01*
X27378928Y-21441729D01*
X27364643Y-21398872D01*
X27350357Y-21370300D01*
X27321786Y-21327443D01*
X27307500Y-21313157D01*
M02*
