G04 #@! TF.GenerationSoftware,KiCad,Pcbnew,(5.1.10)-1*
G04 #@! TF.CreationDate,2021-12-09T13:09:40+07:00*
G04 #@! TF.ProjectId,CK50,434b3530-2e6b-4696-9361-645f70636258,rev?*
G04 #@! TF.SameCoordinates,Original*
G04 #@! TF.FileFunction,Soldermask,Bot*
G04 #@! TF.FilePolarity,Negative*
%FSLAX46Y46*%
G04 Gerber Fmt 4.6, Leading zero omitted, Abs format (unit mm)*
G04 Created by KiCad (PCBNEW (5.1.10)-1) date 2021-12-09 13:09:40*
%MOMM*%
%LPD*%
G01*
G04 APERTURE LIST*
%ADD10C,4.387800*%
%ADD11C,3.448000*%
%ADD12C,2.150000*%
%ADD13C,3.400000*%
%ADD14C,2.686000*%
%ADD15C,2.152600*%
%ADD16C,2.600000*%
G04 APERTURE END LIST*
D10*
X324993000Y-176149000D03*
X301117000Y-176149000D03*
D11*
X324993000Y-160909000D03*
X301117000Y-160909000D03*
G36*
G01*
X308688000Y-171724000D02*
X308688000Y-174224000D01*
G75*
G02*
X308488000Y-174424000I-200000J0D01*
G01*
X305938000Y-174424000D01*
G75*
G02*
X305738000Y-174224000I0J200000D01*
G01*
X305738000Y-171724000D01*
G75*
G02*
X305938000Y-171524000I200000J0D01*
G01*
X308488000Y-171524000D01*
G75*
G02*
X308688000Y-171724000I0J-200000D01*
G01*
G37*
G36*
G01*
X321615000Y-169184000D02*
X321615000Y-171684000D01*
G75*
G02*
X321415000Y-171884000I-200000J0D01*
G01*
X318865000Y-171884000D01*
G75*
G02*
X318665000Y-171684000I0J200000D01*
G01*
X318665000Y-169184000D01*
G75*
G02*
X318865000Y-168984000I200000J0D01*
G01*
X321415000Y-168984000D01*
G75*
G02*
X321615000Y-169184000I0J-200000D01*
G01*
G37*
D12*
X307975000Y-167894000D03*
X318135000Y-167894000D03*
D13*
X316865000Y-170434000D03*
D10*
X313055000Y-167894000D03*
D13*
X310515000Y-172974000D03*
D10*
X372618000Y-176149000D03*
X348742000Y-176149000D03*
D11*
X372618000Y-160909000D03*
X348742000Y-160909000D03*
G36*
G01*
X356313000Y-171724000D02*
X356313000Y-174224000D01*
G75*
G02*
X356113000Y-174424000I-200000J0D01*
G01*
X353563000Y-174424000D01*
G75*
G02*
X353363000Y-174224000I0J200000D01*
G01*
X353363000Y-171724000D01*
G75*
G02*
X353563000Y-171524000I200000J0D01*
G01*
X356113000Y-171524000D01*
G75*
G02*
X356313000Y-171724000I0J-200000D01*
G01*
G37*
G36*
G01*
X369240000Y-169184000D02*
X369240000Y-171684000D01*
G75*
G02*
X369040000Y-171884000I-200000J0D01*
G01*
X366490000Y-171884000D01*
G75*
G02*
X366290000Y-171684000I0J200000D01*
G01*
X366290000Y-169184000D01*
G75*
G02*
X366490000Y-168984000I200000J0D01*
G01*
X369040000Y-168984000D01*
G75*
G02*
X369240000Y-169184000I0J-200000D01*
G01*
G37*
D12*
X355600000Y-167894000D03*
X365760000Y-167894000D03*
D13*
X364490000Y-170434000D03*
D10*
X360680000Y-167894000D03*
D13*
X358140000Y-172974000D03*
D10*
X343941400Y-176123600D03*
X367817400Y-176123600D03*
D11*
X343941400Y-160883600D03*
X367817400Y-160883600D03*
G36*
G01*
X360246400Y-164038600D02*
X360246400Y-161538600D01*
G75*
G02*
X360446400Y-161338600I200000J0D01*
G01*
X362996400Y-161338600D01*
G75*
G02*
X363196400Y-161538600I0J-200000D01*
G01*
X363196400Y-164038600D01*
G75*
G02*
X362996400Y-164238600I-200000J0D01*
G01*
X360446400Y-164238600D01*
G75*
G02*
X360246400Y-164038600I0J200000D01*
G01*
G37*
G36*
G01*
X347319400Y-166578600D02*
X347319400Y-164078600D01*
G75*
G02*
X347519400Y-163878600I200000J0D01*
G01*
X350069400Y-163878600D01*
G75*
G02*
X350269400Y-164078600I0J-200000D01*
G01*
X350269400Y-166578600D01*
G75*
G02*
X350069400Y-166778600I-200000J0D01*
G01*
X347519400Y-166778600D01*
G75*
G02*
X347319400Y-166578600I0J200000D01*
G01*
G37*
D12*
X360959400Y-167868600D03*
X350799400Y-167868600D03*
D13*
X352069400Y-165328600D03*
D10*
X355879400Y-167868600D03*
D13*
X358419400Y-162788600D03*
D10*
X296316400Y-176123600D03*
X320192400Y-176123600D03*
D11*
X296316400Y-160883600D03*
X320192400Y-160883600D03*
G36*
G01*
X312621400Y-164038600D02*
X312621400Y-161538600D01*
G75*
G02*
X312821400Y-161338600I200000J0D01*
G01*
X315371400Y-161338600D01*
G75*
G02*
X315571400Y-161538600I0J-200000D01*
G01*
X315571400Y-164038600D01*
G75*
G02*
X315371400Y-164238600I-200000J0D01*
G01*
X312821400Y-164238600D01*
G75*
G02*
X312621400Y-164038600I0J200000D01*
G01*
G37*
G36*
G01*
X299694400Y-166578600D02*
X299694400Y-164078600D01*
G75*
G02*
X299894400Y-163878600I200000J0D01*
G01*
X302444400Y-163878600D01*
G75*
G02*
X302644400Y-164078600I0J-200000D01*
G01*
X302644400Y-166578600D01*
G75*
G02*
X302444400Y-166778600I-200000J0D01*
G01*
X299894400Y-166778600D01*
G75*
G02*
X299694400Y-166578600I0J200000D01*
G01*
G37*
D12*
X313334400Y-167868600D03*
X303174400Y-167868600D03*
D13*
X304444400Y-165328600D03*
D10*
X308254400Y-167868600D03*
D13*
X310794400Y-162788600D03*
G36*
G01*
X332572000Y-173066000D02*
X332572000Y-171866000D01*
G75*
G02*
X332772000Y-171666000I200000J0D01*
G01*
X333972000Y-171666000D01*
G75*
G02*
X334172000Y-171866000I0J-200000D01*
G01*
X334172000Y-173066000D01*
G75*
G02*
X333972000Y-173266000I-200000J0D01*
G01*
X332772000Y-173266000D01*
G75*
G02*
X332572000Y-173066000I0J200000D01*
G01*
G37*
G36*
G01*
X335372000Y-173066000D02*
X335372000Y-171866000D01*
G75*
G02*
X335572000Y-171666000I200000J0D01*
G01*
X336772000Y-171666000D01*
G75*
G02*
X336972000Y-171866000I0J-200000D01*
G01*
X336972000Y-173066000D01*
G75*
G02*
X336772000Y-173266000I-200000J0D01*
G01*
X335572000Y-173266000D01*
G75*
G02*
X335372000Y-173066000I0J200000D01*
G01*
G37*
D10*
X277415344Y-176132984D03*
X391715344Y-176132984D03*
D11*
X277415344Y-160892984D03*
X391715344Y-160892984D03*
G36*
G01*
X338932344Y-164047984D02*
X338932344Y-161547984D01*
G75*
G02*
X339132344Y-161347984I200000J0D01*
G01*
X341682344Y-161347984D01*
G75*
G02*
X341882344Y-161547984I0J-200000D01*
G01*
X341882344Y-164047984D01*
G75*
G02*
X341682344Y-164247984I-200000J0D01*
G01*
X339132344Y-164247984D01*
G75*
G02*
X338932344Y-164047984I0J200000D01*
G01*
G37*
G36*
G01*
X326005344Y-166587984D02*
X326005344Y-164087984D01*
G75*
G02*
X326205344Y-163887984I200000J0D01*
G01*
X328755344Y-163887984D01*
G75*
G02*
X328955344Y-164087984I0J-200000D01*
G01*
X328955344Y-166587984D01*
G75*
G02*
X328755344Y-166787984I-200000J0D01*
G01*
X326205344Y-166787984D01*
G75*
G02*
X326005344Y-166587984I0J200000D01*
G01*
G37*
D12*
X339645344Y-167877984D03*
X329485344Y-167877984D03*
D13*
X330755344Y-165337984D03*
D10*
X334565344Y-167877984D03*
D13*
X337105344Y-162797984D03*
G36*
G01*
X395958800Y-164013200D02*
X395958800Y-161513200D01*
G75*
G02*
X396158800Y-161313200I200000J0D01*
G01*
X398708800Y-161313200D01*
G75*
G02*
X398908800Y-161513200I0J-200000D01*
G01*
X398908800Y-164013200D01*
G75*
G02*
X398708800Y-164213200I-200000J0D01*
G01*
X396158800Y-164213200D01*
G75*
G02*
X395958800Y-164013200I0J200000D01*
G01*
G37*
G36*
G01*
X383031800Y-166553200D02*
X383031800Y-164053200D01*
G75*
G02*
X383231800Y-163853200I200000J0D01*
G01*
X385781800Y-163853200D01*
G75*
G02*
X385981800Y-164053200I0J-200000D01*
G01*
X385981800Y-166553200D01*
G75*
G02*
X385781800Y-166753200I-200000J0D01*
G01*
X383231800Y-166753200D01*
G75*
G02*
X383031800Y-166553200I0J200000D01*
G01*
G37*
D12*
X396671800Y-167843200D03*
X386511800Y-167843200D03*
D13*
X387781800Y-165303200D03*
D10*
X391591800Y-167843200D03*
D13*
X394131800Y-162763200D03*
G36*
G01*
X282497000Y-164038600D02*
X282497000Y-161538600D01*
G75*
G02*
X282697000Y-161338600I200000J0D01*
G01*
X285247000Y-161338600D01*
G75*
G02*
X285447000Y-161538600I0J-200000D01*
G01*
X285447000Y-164038600D01*
G75*
G02*
X285247000Y-164238600I-200000J0D01*
G01*
X282697000Y-164238600D01*
G75*
G02*
X282497000Y-164038600I0J200000D01*
G01*
G37*
G36*
G01*
X269570000Y-166578600D02*
X269570000Y-164078600D01*
G75*
G02*
X269770000Y-163878600I200000J0D01*
G01*
X272320000Y-163878600D01*
G75*
G02*
X272520000Y-164078600I0J-200000D01*
G01*
X272520000Y-166578600D01*
G75*
G02*
X272320000Y-166778600I-200000J0D01*
G01*
X269770000Y-166778600D01*
G75*
G02*
X269570000Y-166578600I0J200000D01*
G01*
G37*
D12*
X283210000Y-167868600D03*
X273050000Y-167868600D03*
D13*
X274320000Y-165328600D03*
D10*
X278130000Y-167868600D03*
D13*
X280670000Y-162788600D03*
G36*
G01*
X253832000Y-173701000D02*
X253832000Y-172501000D01*
G75*
G02*
X254032000Y-172301000I200000J0D01*
G01*
X255232000Y-172301000D01*
G75*
G02*
X255432000Y-172501000I0J-200000D01*
G01*
X255432000Y-173701000D01*
G75*
G02*
X255232000Y-173901000I-200000J0D01*
G01*
X254032000Y-173901000D01*
G75*
G02*
X253832000Y-173701000I0J200000D01*
G01*
G37*
G36*
G01*
X256632000Y-173701000D02*
X256632000Y-172501000D01*
G75*
G02*
X256832000Y-172301000I200000J0D01*
G01*
X258032000Y-172301000D01*
G75*
G02*
X258232000Y-172501000I0J-200000D01*
G01*
X258232000Y-173701000D01*
G75*
G02*
X258032000Y-173901000I-200000J0D01*
G01*
X256832000Y-173901000D01*
G75*
G02*
X256632000Y-173701000I0J200000D01*
G01*
G37*
G36*
G01*
X260331312Y-164047984D02*
X260331312Y-161547984D01*
G75*
G02*
X260531312Y-161347984I200000J0D01*
G01*
X263081312Y-161347984D01*
G75*
G02*
X263281312Y-161547984I0J-200000D01*
G01*
X263281312Y-164047984D01*
G75*
G02*
X263081312Y-164247984I-200000J0D01*
G01*
X260531312Y-164247984D01*
G75*
G02*
X260331312Y-164047984I0J200000D01*
G01*
G37*
G36*
G01*
X247404312Y-166587984D02*
X247404312Y-164087984D01*
G75*
G02*
X247604312Y-163887984I200000J0D01*
G01*
X250154312Y-163887984D01*
G75*
G02*
X250354312Y-164087984I0J-200000D01*
G01*
X250354312Y-166587984D01*
G75*
G02*
X250154312Y-166787984I-200000J0D01*
G01*
X247604312Y-166787984D01*
G75*
G02*
X247404312Y-166587984I0J200000D01*
G01*
G37*
D12*
X261044312Y-167877984D03*
X250884312Y-167877984D03*
D13*
X252154312Y-165337984D03*
D10*
X255964312Y-167877984D03*
D13*
X258504312Y-162797984D03*
G36*
G01*
X375371000Y-154143000D02*
X375371000Y-152943000D01*
G75*
G02*
X375571000Y-152743000I200000J0D01*
G01*
X376771000Y-152743000D01*
G75*
G02*
X376971000Y-152943000I0J-200000D01*
G01*
X376971000Y-154143000D01*
G75*
G02*
X376771000Y-154343000I-200000J0D01*
G01*
X375571000Y-154343000D01*
G75*
G02*
X375371000Y-154143000I0J200000D01*
G01*
G37*
G36*
G01*
X378171000Y-154143000D02*
X378171000Y-152943000D01*
G75*
G02*
X378371000Y-152743000I200000J0D01*
G01*
X379571000Y-152743000D01*
G75*
G02*
X379771000Y-152943000I0J-200000D01*
G01*
X379771000Y-154143000D01*
G75*
G02*
X379571000Y-154343000I-200000J0D01*
G01*
X378371000Y-154343000D01*
G75*
G02*
X378171000Y-154143000I0J200000D01*
G01*
G37*
G36*
G01*
X381794808Y-144998000D02*
X381794808Y-142498000D01*
G75*
G02*
X381994808Y-142298000I200000J0D01*
G01*
X384544808Y-142298000D01*
G75*
G02*
X384744808Y-142498000I0J-200000D01*
G01*
X384744808Y-144998000D01*
G75*
G02*
X384544808Y-145198000I-200000J0D01*
G01*
X381994808Y-145198000D01*
G75*
G02*
X381794808Y-144998000I0J200000D01*
G01*
G37*
G36*
G01*
X368867808Y-147538000D02*
X368867808Y-145038000D01*
G75*
G02*
X369067808Y-144838000I200000J0D01*
G01*
X371617808Y-144838000D01*
G75*
G02*
X371817808Y-145038000I0J-200000D01*
G01*
X371817808Y-147538000D01*
G75*
G02*
X371617808Y-147738000I-200000J0D01*
G01*
X369067808Y-147738000D01*
G75*
G02*
X368867808Y-147538000I0J200000D01*
G01*
G37*
D12*
X382507808Y-148828000D03*
X372347808Y-148828000D03*
D13*
X373617808Y-146288000D03*
D10*
X377427808Y-148828000D03*
D13*
X379967808Y-143748000D03*
G36*
G01*
X356321000Y-154143000D02*
X356321000Y-152943000D01*
G75*
G02*
X356521000Y-152743000I200000J0D01*
G01*
X357721000Y-152743000D01*
G75*
G02*
X357921000Y-152943000I0J-200000D01*
G01*
X357921000Y-154143000D01*
G75*
G02*
X357721000Y-154343000I-200000J0D01*
G01*
X356521000Y-154343000D01*
G75*
G02*
X356321000Y-154143000I0J200000D01*
G01*
G37*
G36*
G01*
X359121000Y-154143000D02*
X359121000Y-152943000D01*
G75*
G02*
X359321000Y-152743000I200000J0D01*
G01*
X360521000Y-152743000D01*
G75*
G02*
X360721000Y-152943000I0J-200000D01*
G01*
X360721000Y-154143000D01*
G75*
G02*
X360521000Y-154343000I-200000J0D01*
G01*
X359321000Y-154343000D01*
G75*
G02*
X359121000Y-154143000I0J200000D01*
G01*
G37*
G36*
G01*
X337271000Y-154143000D02*
X337271000Y-152943000D01*
G75*
G02*
X337471000Y-152743000I200000J0D01*
G01*
X338671000Y-152743000D01*
G75*
G02*
X338871000Y-152943000I0J-200000D01*
G01*
X338871000Y-154143000D01*
G75*
G02*
X338671000Y-154343000I-200000J0D01*
G01*
X337471000Y-154343000D01*
G75*
G02*
X337271000Y-154143000I0J200000D01*
G01*
G37*
G36*
G01*
X340071000Y-154143000D02*
X340071000Y-152943000D01*
G75*
G02*
X340271000Y-152743000I200000J0D01*
G01*
X341471000Y-152743000D01*
G75*
G02*
X341671000Y-152943000I0J-200000D01*
G01*
X341671000Y-154143000D01*
G75*
G02*
X341471000Y-154343000I-200000J0D01*
G01*
X340271000Y-154343000D01*
G75*
G02*
X340071000Y-154143000I0J200000D01*
G01*
G37*
G36*
G01*
X362744824Y-144998000D02*
X362744824Y-142498000D01*
G75*
G02*
X362944824Y-142298000I200000J0D01*
G01*
X365494824Y-142298000D01*
G75*
G02*
X365694824Y-142498000I0J-200000D01*
G01*
X365694824Y-144998000D01*
G75*
G02*
X365494824Y-145198000I-200000J0D01*
G01*
X362944824Y-145198000D01*
G75*
G02*
X362744824Y-144998000I0J200000D01*
G01*
G37*
G36*
G01*
X349817824Y-147538000D02*
X349817824Y-145038000D01*
G75*
G02*
X350017824Y-144838000I200000J0D01*
G01*
X352567824Y-144838000D01*
G75*
G02*
X352767824Y-145038000I0J-200000D01*
G01*
X352767824Y-147538000D01*
G75*
G02*
X352567824Y-147738000I-200000J0D01*
G01*
X350017824Y-147738000D01*
G75*
G02*
X349817824Y-147538000I0J200000D01*
G01*
G37*
D12*
X363457824Y-148828000D03*
X353297824Y-148828000D03*
D13*
X354567824Y-146288000D03*
D10*
X358377824Y-148828000D03*
D13*
X360917824Y-143748000D03*
G36*
G01*
X343694840Y-144998000D02*
X343694840Y-142498000D01*
G75*
G02*
X343894840Y-142298000I200000J0D01*
G01*
X346444840Y-142298000D01*
G75*
G02*
X346644840Y-142498000I0J-200000D01*
G01*
X346644840Y-144998000D01*
G75*
G02*
X346444840Y-145198000I-200000J0D01*
G01*
X343894840Y-145198000D01*
G75*
G02*
X343694840Y-144998000I0J200000D01*
G01*
G37*
G36*
G01*
X330767840Y-147538000D02*
X330767840Y-145038000D01*
G75*
G02*
X330967840Y-144838000I200000J0D01*
G01*
X333517840Y-144838000D01*
G75*
G02*
X333717840Y-145038000I0J-200000D01*
G01*
X333717840Y-147538000D01*
G75*
G02*
X333517840Y-147738000I-200000J0D01*
G01*
X330967840Y-147738000D01*
G75*
G02*
X330767840Y-147538000I0J200000D01*
G01*
G37*
D12*
X344407840Y-148828000D03*
X334247840Y-148828000D03*
D13*
X335517840Y-146288000D03*
D10*
X339327840Y-148828000D03*
D13*
X341867840Y-143748000D03*
G36*
G01*
X365719000Y-135347000D02*
X365719000Y-134147000D01*
G75*
G02*
X365919000Y-133947000I200000J0D01*
G01*
X367119000Y-133947000D01*
G75*
G02*
X367319000Y-134147000I0J-200000D01*
G01*
X367319000Y-135347000D01*
G75*
G02*
X367119000Y-135547000I-200000J0D01*
G01*
X365919000Y-135547000D01*
G75*
G02*
X365719000Y-135347000I0J200000D01*
G01*
G37*
G36*
G01*
X368519000Y-135347000D02*
X368519000Y-134147000D01*
G75*
G02*
X368719000Y-133947000I200000J0D01*
G01*
X369919000Y-133947000D01*
G75*
G02*
X370119000Y-134147000I0J-200000D01*
G01*
X370119000Y-135347000D01*
G75*
G02*
X369919000Y-135547000I-200000J0D01*
G01*
X368719000Y-135547000D01*
G75*
G02*
X368519000Y-135347000I0J200000D01*
G01*
G37*
G36*
G01*
X346796000Y-135220000D02*
X346796000Y-134020000D01*
G75*
G02*
X346996000Y-133820000I200000J0D01*
G01*
X348196000Y-133820000D01*
G75*
G02*
X348396000Y-134020000I0J-200000D01*
G01*
X348396000Y-135220000D01*
G75*
G02*
X348196000Y-135420000I-200000J0D01*
G01*
X346996000Y-135420000D01*
G75*
G02*
X346796000Y-135220000I0J200000D01*
G01*
G37*
G36*
G01*
X349596000Y-135220000D02*
X349596000Y-134020000D01*
G75*
G02*
X349796000Y-133820000I200000J0D01*
G01*
X350996000Y-133820000D01*
G75*
G02*
X351196000Y-134020000I0J-200000D01*
G01*
X351196000Y-135220000D01*
G75*
G02*
X350996000Y-135420000I-200000J0D01*
G01*
X349796000Y-135420000D01*
G75*
G02*
X349596000Y-135220000I0J200000D01*
G01*
G37*
G36*
G01*
X372269816Y-125948016D02*
X372269816Y-123448016D01*
G75*
G02*
X372469816Y-123248016I200000J0D01*
G01*
X375019816Y-123248016D01*
G75*
G02*
X375219816Y-123448016I0J-200000D01*
G01*
X375219816Y-125948016D01*
G75*
G02*
X375019816Y-126148016I-200000J0D01*
G01*
X372469816Y-126148016D01*
G75*
G02*
X372269816Y-125948016I0J200000D01*
G01*
G37*
G36*
G01*
X359342816Y-128488016D02*
X359342816Y-125988016D01*
G75*
G02*
X359542816Y-125788016I200000J0D01*
G01*
X362092816Y-125788016D01*
G75*
G02*
X362292816Y-125988016I0J-200000D01*
G01*
X362292816Y-128488016D01*
G75*
G02*
X362092816Y-128688016I-200000J0D01*
G01*
X359542816Y-128688016D01*
G75*
G02*
X359342816Y-128488016I0J200000D01*
G01*
G37*
D12*
X372982816Y-129778016D03*
X362822816Y-129778016D03*
D13*
X364092816Y-127238016D03*
D10*
X367902816Y-129778016D03*
D13*
X370442816Y-124698016D03*
G36*
G01*
X353219832Y-125948016D02*
X353219832Y-123448016D01*
G75*
G02*
X353419832Y-123248016I200000J0D01*
G01*
X355969832Y-123248016D01*
G75*
G02*
X356169832Y-123448016I0J-200000D01*
G01*
X356169832Y-125948016D01*
G75*
G02*
X355969832Y-126148016I-200000J0D01*
G01*
X353419832Y-126148016D01*
G75*
G02*
X353219832Y-125948016I0J200000D01*
G01*
G37*
G36*
G01*
X340292832Y-128488016D02*
X340292832Y-125988016D01*
G75*
G02*
X340492832Y-125788016I200000J0D01*
G01*
X343042832Y-125788016D01*
G75*
G02*
X343242832Y-125988016I0J-200000D01*
G01*
X343242832Y-128488016D01*
G75*
G02*
X343042832Y-128688016I-200000J0D01*
G01*
X340492832Y-128688016D01*
G75*
G02*
X340292832Y-128488016I0J200000D01*
G01*
G37*
D12*
X353932832Y-129778016D03*
X343772832Y-129778016D03*
D13*
X345042832Y-127238016D03*
D10*
X348852832Y-129778016D03*
D13*
X351392832Y-124698016D03*
G36*
G01*
X327619000Y-135220000D02*
X327619000Y-134020000D01*
G75*
G02*
X327819000Y-133820000I200000J0D01*
G01*
X329019000Y-133820000D01*
G75*
G02*
X329219000Y-134020000I0J-200000D01*
G01*
X329219000Y-135220000D01*
G75*
G02*
X329019000Y-135420000I-200000J0D01*
G01*
X327819000Y-135420000D01*
G75*
G02*
X327619000Y-135220000I0J200000D01*
G01*
G37*
G36*
G01*
X330419000Y-135220000D02*
X330419000Y-134020000D01*
G75*
G02*
X330619000Y-133820000I200000J0D01*
G01*
X331819000Y-133820000D01*
G75*
G02*
X332019000Y-134020000I0J-200000D01*
G01*
X332019000Y-135220000D01*
G75*
G02*
X331819000Y-135420000I-200000J0D01*
G01*
X330619000Y-135420000D01*
G75*
G02*
X330419000Y-135220000I0J200000D01*
G01*
G37*
G36*
G01*
X334169848Y-125948016D02*
X334169848Y-123448016D01*
G75*
G02*
X334369848Y-123248016I200000J0D01*
G01*
X336919848Y-123248016D01*
G75*
G02*
X337119848Y-123448016I0J-200000D01*
G01*
X337119848Y-125948016D01*
G75*
G02*
X336919848Y-126148016I-200000J0D01*
G01*
X334369848Y-126148016D01*
G75*
G02*
X334169848Y-125948016I0J200000D01*
G01*
G37*
G36*
G01*
X321242848Y-128488016D02*
X321242848Y-125988016D01*
G75*
G02*
X321442848Y-125788016I200000J0D01*
G01*
X323992848Y-125788016D01*
G75*
G02*
X324192848Y-125988016I0J-200000D01*
G01*
X324192848Y-128488016D01*
G75*
G02*
X323992848Y-128688016I-200000J0D01*
G01*
X321442848Y-128688016D01*
G75*
G02*
X321242848Y-128488016I0J200000D01*
G01*
G37*
D12*
X334882848Y-129778016D03*
X324722848Y-129778016D03*
D13*
X325992848Y-127238016D03*
D10*
X329802848Y-129778016D03*
D13*
X332342848Y-124698016D03*
G36*
G01*
X308696000Y-135093000D02*
X308696000Y-133893000D01*
G75*
G02*
X308896000Y-133693000I200000J0D01*
G01*
X310096000Y-133693000D01*
G75*
G02*
X310296000Y-133893000I0J-200000D01*
G01*
X310296000Y-135093000D01*
G75*
G02*
X310096000Y-135293000I-200000J0D01*
G01*
X308896000Y-135293000D01*
G75*
G02*
X308696000Y-135093000I0J200000D01*
G01*
G37*
G36*
G01*
X311496000Y-135093000D02*
X311496000Y-133893000D01*
G75*
G02*
X311696000Y-133693000I200000J0D01*
G01*
X312896000Y-133693000D01*
G75*
G02*
X313096000Y-133893000I0J-200000D01*
G01*
X313096000Y-135093000D01*
G75*
G02*
X312896000Y-135293000I-200000J0D01*
G01*
X311696000Y-135293000D01*
G75*
G02*
X311496000Y-135093000I0J200000D01*
G01*
G37*
G36*
G01*
X318221000Y-154143000D02*
X318221000Y-152943000D01*
G75*
G02*
X318421000Y-152743000I200000J0D01*
G01*
X319621000Y-152743000D01*
G75*
G02*
X319821000Y-152943000I0J-200000D01*
G01*
X319821000Y-154143000D01*
G75*
G02*
X319621000Y-154343000I-200000J0D01*
G01*
X318421000Y-154343000D01*
G75*
G02*
X318221000Y-154143000I0J200000D01*
G01*
G37*
G36*
G01*
X321021000Y-154143000D02*
X321021000Y-152943000D01*
G75*
G02*
X321221000Y-152743000I200000J0D01*
G01*
X322421000Y-152743000D01*
G75*
G02*
X322621000Y-152943000I0J-200000D01*
G01*
X322621000Y-154143000D01*
G75*
G02*
X322421000Y-154343000I-200000J0D01*
G01*
X321221000Y-154343000D01*
G75*
G02*
X321021000Y-154143000I0J200000D01*
G01*
G37*
G36*
G01*
X299171000Y-154016000D02*
X299171000Y-152816000D01*
G75*
G02*
X299371000Y-152616000I200000J0D01*
G01*
X300571000Y-152616000D01*
G75*
G02*
X300771000Y-152816000I0J-200000D01*
G01*
X300771000Y-154016000D01*
G75*
G02*
X300571000Y-154216000I-200000J0D01*
G01*
X299371000Y-154216000D01*
G75*
G02*
X299171000Y-154016000I0J200000D01*
G01*
G37*
G36*
G01*
X301971000Y-154016000D02*
X301971000Y-152816000D01*
G75*
G02*
X302171000Y-152616000I200000J0D01*
G01*
X303371000Y-152616000D01*
G75*
G02*
X303571000Y-152816000I0J-200000D01*
G01*
X303571000Y-154016000D01*
G75*
G02*
X303371000Y-154216000I-200000J0D01*
G01*
X302171000Y-154216000D01*
G75*
G02*
X301971000Y-154016000I0J200000D01*
G01*
G37*
G36*
G01*
X315119864Y-125948016D02*
X315119864Y-123448016D01*
G75*
G02*
X315319864Y-123248016I200000J0D01*
G01*
X317869864Y-123248016D01*
G75*
G02*
X318069864Y-123448016I0J-200000D01*
G01*
X318069864Y-125948016D01*
G75*
G02*
X317869864Y-126148016I-200000J0D01*
G01*
X315319864Y-126148016D01*
G75*
G02*
X315119864Y-125948016I0J200000D01*
G01*
G37*
G36*
G01*
X302192864Y-128488016D02*
X302192864Y-125988016D01*
G75*
G02*
X302392864Y-125788016I200000J0D01*
G01*
X304942864Y-125788016D01*
G75*
G02*
X305142864Y-125988016I0J-200000D01*
G01*
X305142864Y-128488016D01*
G75*
G02*
X304942864Y-128688016I-200000J0D01*
G01*
X302392864Y-128688016D01*
G75*
G02*
X302192864Y-128488016I0J200000D01*
G01*
G37*
D12*
X315832864Y-129778016D03*
X305672864Y-129778016D03*
D13*
X306942864Y-127238016D03*
D10*
X310752864Y-129778016D03*
D13*
X313292864Y-124698016D03*
G36*
G01*
X324644856Y-144998000D02*
X324644856Y-142498000D01*
G75*
G02*
X324844856Y-142298000I200000J0D01*
G01*
X327394856Y-142298000D01*
G75*
G02*
X327594856Y-142498000I0J-200000D01*
G01*
X327594856Y-144998000D01*
G75*
G02*
X327394856Y-145198000I-200000J0D01*
G01*
X324844856Y-145198000D01*
G75*
G02*
X324644856Y-144998000I0J200000D01*
G01*
G37*
G36*
G01*
X311717856Y-147538000D02*
X311717856Y-145038000D01*
G75*
G02*
X311917856Y-144838000I200000J0D01*
G01*
X314467856Y-144838000D01*
G75*
G02*
X314667856Y-145038000I0J-200000D01*
G01*
X314667856Y-147538000D01*
G75*
G02*
X314467856Y-147738000I-200000J0D01*
G01*
X311917856Y-147738000D01*
G75*
G02*
X311717856Y-147538000I0J200000D01*
G01*
G37*
D12*
X325357856Y-148828000D03*
X315197856Y-148828000D03*
D13*
X316467856Y-146288000D03*
D10*
X320277856Y-148828000D03*
D13*
X322817856Y-143748000D03*
G36*
G01*
X305594872Y-144998000D02*
X305594872Y-142498000D01*
G75*
G02*
X305794872Y-142298000I200000J0D01*
G01*
X308344872Y-142298000D01*
G75*
G02*
X308544872Y-142498000I0J-200000D01*
G01*
X308544872Y-144998000D01*
G75*
G02*
X308344872Y-145198000I-200000J0D01*
G01*
X305794872Y-145198000D01*
G75*
G02*
X305594872Y-144998000I0J200000D01*
G01*
G37*
G36*
G01*
X292667872Y-147538000D02*
X292667872Y-145038000D01*
G75*
G02*
X292867872Y-144838000I200000J0D01*
G01*
X295417872Y-144838000D01*
G75*
G02*
X295617872Y-145038000I0J-200000D01*
G01*
X295617872Y-147538000D01*
G75*
G02*
X295417872Y-147738000I-200000J0D01*
G01*
X292867872Y-147738000D01*
G75*
G02*
X292667872Y-147538000I0J200000D01*
G01*
G37*
D12*
X306307872Y-148828000D03*
X296147872Y-148828000D03*
D13*
X297417872Y-146288000D03*
D10*
X301227872Y-148828000D03*
D13*
X303767872Y-143748000D03*
G36*
G01*
X394421000Y-154270000D02*
X394421000Y-153070000D01*
G75*
G02*
X394621000Y-152870000I200000J0D01*
G01*
X395821000Y-152870000D01*
G75*
G02*
X396021000Y-153070000I0J-200000D01*
G01*
X396021000Y-154270000D01*
G75*
G02*
X395821000Y-154470000I-200000J0D01*
G01*
X394621000Y-154470000D01*
G75*
G02*
X394421000Y-154270000I0J200000D01*
G01*
G37*
G36*
G01*
X397221000Y-154270000D02*
X397221000Y-153070000D01*
G75*
G02*
X397421000Y-152870000I200000J0D01*
G01*
X398621000Y-152870000D01*
G75*
G02*
X398821000Y-153070000I0J-200000D01*
G01*
X398821000Y-154270000D01*
G75*
G02*
X398621000Y-154470000I-200000J0D01*
G01*
X397421000Y-154470000D01*
G75*
G02*
X397221000Y-154270000I0J200000D01*
G01*
G37*
G36*
G01*
X384896000Y-135474000D02*
X384896000Y-134274000D01*
G75*
G02*
X385096000Y-134074000I200000J0D01*
G01*
X386296000Y-134074000D01*
G75*
G02*
X386496000Y-134274000I0J-200000D01*
G01*
X386496000Y-135474000D01*
G75*
G02*
X386296000Y-135674000I-200000J0D01*
G01*
X385096000Y-135674000D01*
G75*
G02*
X384896000Y-135474000I0J200000D01*
G01*
G37*
G36*
G01*
X387696000Y-135474000D02*
X387696000Y-134274000D01*
G75*
G02*
X387896000Y-134074000I200000J0D01*
G01*
X389096000Y-134074000D01*
G75*
G02*
X389296000Y-134274000I0J-200000D01*
G01*
X389296000Y-135474000D01*
G75*
G02*
X389096000Y-135674000I-200000J0D01*
G01*
X387896000Y-135674000D01*
G75*
G02*
X387696000Y-135474000I0J200000D01*
G01*
G37*
G36*
G01*
X400844792Y-144998000D02*
X400844792Y-142498000D01*
G75*
G02*
X401044792Y-142298000I200000J0D01*
G01*
X403594792Y-142298000D01*
G75*
G02*
X403794792Y-142498000I0J-200000D01*
G01*
X403794792Y-144998000D01*
G75*
G02*
X403594792Y-145198000I-200000J0D01*
G01*
X401044792Y-145198000D01*
G75*
G02*
X400844792Y-144998000I0J200000D01*
G01*
G37*
G36*
G01*
X387917792Y-147538000D02*
X387917792Y-145038000D01*
G75*
G02*
X388117792Y-144838000I200000J0D01*
G01*
X390667792Y-144838000D01*
G75*
G02*
X390867792Y-145038000I0J-200000D01*
G01*
X390867792Y-147538000D01*
G75*
G02*
X390667792Y-147738000I-200000J0D01*
G01*
X388117792Y-147738000D01*
G75*
G02*
X387917792Y-147538000I0J200000D01*
G01*
G37*
D12*
X401557792Y-148828000D03*
X391397792Y-148828000D03*
D13*
X392667792Y-146288000D03*
D10*
X396477792Y-148828000D03*
D13*
X399017792Y-143748000D03*
G36*
G01*
X391319800Y-125948016D02*
X391319800Y-123448016D01*
G75*
G02*
X391519800Y-123248016I200000J0D01*
G01*
X394069800Y-123248016D01*
G75*
G02*
X394269800Y-123448016I0J-200000D01*
G01*
X394269800Y-125948016D01*
G75*
G02*
X394069800Y-126148016I-200000J0D01*
G01*
X391519800Y-126148016D01*
G75*
G02*
X391319800Y-125948016I0J200000D01*
G01*
G37*
G36*
G01*
X378392800Y-128488016D02*
X378392800Y-125988016D01*
G75*
G02*
X378592800Y-125788016I200000J0D01*
G01*
X381142800Y-125788016D01*
G75*
G02*
X381342800Y-125988016I0J-200000D01*
G01*
X381342800Y-128488016D01*
G75*
G02*
X381142800Y-128688016I-200000J0D01*
G01*
X378592800Y-128688016D01*
G75*
G02*
X378392800Y-128488016I0J200000D01*
G01*
G37*
D12*
X392032800Y-129778016D03*
X381872800Y-129778016D03*
D13*
X383142800Y-127238016D03*
D10*
X386952800Y-129778016D03*
D13*
X389492800Y-124698016D03*
G36*
G01*
X403819000Y-135347000D02*
X403819000Y-134147000D01*
G75*
G02*
X404019000Y-133947000I200000J0D01*
G01*
X405219000Y-133947000D01*
G75*
G02*
X405419000Y-134147000I0J-200000D01*
G01*
X405419000Y-135347000D01*
G75*
G02*
X405219000Y-135547000I-200000J0D01*
G01*
X404019000Y-135547000D01*
G75*
G02*
X403819000Y-135347000I0J200000D01*
G01*
G37*
G36*
G01*
X406619000Y-135347000D02*
X406619000Y-134147000D01*
G75*
G02*
X406819000Y-133947000I200000J0D01*
G01*
X408019000Y-133947000D01*
G75*
G02*
X408219000Y-134147000I0J-200000D01*
G01*
X408219000Y-135347000D01*
G75*
G02*
X408019000Y-135547000I-200000J0D01*
G01*
X406819000Y-135547000D01*
G75*
G02*
X406619000Y-135347000I0J200000D01*
G01*
G37*
G36*
G01*
X410369784Y-125948016D02*
X410369784Y-123448016D01*
G75*
G02*
X410569784Y-123248016I200000J0D01*
G01*
X413119784Y-123248016D01*
G75*
G02*
X413319784Y-123448016I0J-200000D01*
G01*
X413319784Y-125948016D01*
G75*
G02*
X413119784Y-126148016I-200000J0D01*
G01*
X410569784Y-126148016D01*
G75*
G02*
X410369784Y-125948016I0J200000D01*
G01*
G37*
G36*
G01*
X397442784Y-128488016D02*
X397442784Y-125988016D01*
G75*
G02*
X397642784Y-125788016I200000J0D01*
G01*
X400192784Y-125788016D01*
G75*
G02*
X400392784Y-125988016I0J-200000D01*
G01*
X400392784Y-128488016D01*
G75*
G02*
X400192784Y-128688016I-200000J0D01*
G01*
X397642784Y-128688016D01*
G75*
G02*
X397442784Y-128488016I0J200000D01*
G01*
G37*
D12*
X411082784Y-129778016D03*
X400922784Y-129778016D03*
D13*
X402192784Y-127238016D03*
D10*
X406002784Y-129778016D03*
D13*
X408542784Y-124698016D03*
G36*
G01*
X423250000Y-135347000D02*
X423250000Y-134147000D01*
G75*
G02*
X423450000Y-133947000I200000J0D01*
G01*
X424650000Y-133947000D01*
G75*
G02*
X424850000Y-134147000I0J-200000D01*
G01*
X424850000Y-135347000D01*
G75*
G02*
X424650000Y-135547000I-200000J0D01*
G01*
X423450000Y-135547000D01*
G75*
G02*
X423250000Y-135347000I0J200000D01*
G01*
G37*
G36*
G01*
X426050000Y-135347000D02*
X426050000Y-134147000D01*
G75*
G02*
X426250000Y-133947000I200000J0D01*
G01*
X427450000Y-133947000D01*
G75*
G02*
X427650000Y-134147000I0J-200000D01*
G01*
X427650000Y-135347000D01*
G75*
G02*
X427450000Y-135547000I-200000J0D01*
G01*
X426250000Y-135547000D01*
G75*
G02*
X426050000Y-135347000I0J200000D01*
G01*
G37*
G36*
G01*
X429419768Y-125948016D02*
X429419768Y-123448016D01*
G75*
G02*
X429619768Y-123248016I200000J0D01*
G01*
X432169768Y-123248016D01*
G75*
G02*
X432369768Y-123448016I0J-200000D01*
G01*
X432369768Y-125948016D01*
G75*
G02*
X432169768Y-126148016I-200000J0D01*
G01*
X429619768Y-126148016D01*
G75*
G02*
X429419768Y-125948016I0J200000D01*
G01*
G37*
G36*
G01*
X416492768Y-128488016D02*
X416492768Y-125988016D01*
G75*
G02*
X416692768Y-125788016I200000J0D01*
G01*
X419242768Y-125788016D01*
G75*
G02*
X419442768Y-125988016I0J-200000D01*
G01*
X419442768Y-128488016D01*
G75*
G02*
X419242768Y-128688016I-200000J0D01*
G01*
X416692768Y-128688016D01*
G75*
G02*
X416492768Y-128488016I0J200000D01*
G01*
G37*
D12*
X430132768Y-129778016D03*
X419972768Y-129778016D03*
D13*
X421242768Y-127238016D03*
D10*
X425052768Y-129778016D03*
D13*
X427592768Y-124698016D03*
G36*
G01*
X419894776Y-144998000D02*
X419894776Y-142498000D01*
G75*
G02*
X420094776Y-142298000I200000J0D01*
G01*
X422644776Y-142298000D01*
G75*
G02*
X422844776Y-142498000I0J-200000D01*
G01*
X422844776Y-144998000D01*
G75*
G02*
X422644776Y-145198000I-200000J0D01*
G01*
X420094776Y-145198000D01*
G75*
G02*
X419894776Y-144998000I0J200000D01*
G01*
G37*
G36*
G01*
X406967776Y-147538000D02*
X406967776Y-145038000D01*
G75*
G02*
X407167776Y-144838000I200000J0D01*
G01*
X409717776Y-144838000D01*
G75*
G02*
X409917776Y-145038000I0J-200000D01*
G01*
X409917776Y-147538000D01*
G75*
G02*
X409717776Y-147738000I-200000J0D01*
G01*
X407167776Y-147738000D01*
G75*
G02*
X406967776Y-147538000I0J200000D01*
G01*
G37*
D12*
X420607776Y-148828000D03*
X410447776Y-148828000D03*
D13*
X411717776Y-146288000D03*
D10*
X415527776Y-148828000D03*
D13*
X418067776Y-143748000D03*
G36*
G01*
X413471000Y-154270000D02*
X413471000Y-153070000D01*
G75*
G02*
X413671000Y-152870000I200000J0D01*
G01*
X414871000Y-152870000D01*
G75*
G02*
X415071000Y-153070000I0J-200000D01*
G01*
X415071000Y-154270000D01*
G75*
G02*
X414871000Y-154470000I-200000J0D01*
G01*
X413671000Y-154470000D01*
G75*
G02*
X413471000Y-154270000I0J200000D01*
G01*
G37*
G36*
G01*
X416271000Y-154270000D02*
X416271000Y-153070000D01*
G75*
G02*
X416471000Y-152870000I200000J0D01*
G01*
X417671000Y-152870000D01*
G75*
G02*
X417871000Y-153070000I0J-200000D01*
G01*
X417871000Y-154270000D01*
G75*
G02*
X417671000Y-154470000I-200000J0D01*
G01*
X416471000Y-154470000D01*
G75*
G02*
X416271000Y-154270000I0J200000D01*
G01*
G37*
G36*
G01*
X417513528Y-164047984D02*
X417513528Y-161547984D01*
G75*
G02*
X417713528Y-161347984I200000J0D01*
G01*
X420263528Y-161347984D01*
G75*
G02*
X420463528Y-161547984I0J-200000D01*
G01*
X420463528Y-164047984D01*
G75*
G02*
X420263528Y-164247984I-200000J0D01*
G01*
X417713528Y-164247984D01*
G75*
G02*
X417513528Y-164047984I0J200000D01*
G01*
G37*
G36*
G01*
X404586528Y-166587984D02*
X404586528Y-164087984D01*
G75*
G02*
X404786528Y-163887984I200000J0D01*
G01*
X407336528Y-163887984D01*
G75*
G02*
X407536528Y-164087984I0J-200000D01*
G01*
X407536528Y-166587984D01*
G75*
G02*
X407336528Y-166787984I-200000J0D01*
G01*
X404786528Y-166787984D01*
G75*
G02*
X404586528Y-166587984I0J200000D01*
G01*
G37*
D12*
X418226528Y-167877984D03*
X408066528Y-167877984D03*
D13*
X409336528Y-165337984D03*
D10*
X413146528Y-167877984D03*
D13*
X415686528Y-162797984D03*
G36*
G01*
X411312000Y-173447000D02*
X411312000Y-172247000D01*
G75*
G02*
X411512000Y-172047000I200000J0D01*
G01*
X412712000Y-172047000D01*
G75*
G02*
X412912000Y-172247000I0J-200000D01*
G01*
X412912000Y-173447000D01*
G75*
G02*
X412712000Y-173647000I-200000J0D01*
G01*
X411512000Y-173647000D01*
G75*
G02*
X411312000Y-173447000I0J200000D01*
G01*
G37*
G36*
G01*
X414112000Y-173447000D02*
X414112000Y-172247000D01*
G75*
G02*
X414312000Y-172047000I200000J0D01*
G01*
X415512000Y-172047000D01*
G75*
G02*
X415712000Y-172247000I0J-200000D01*
G01*
X415712000Y-173447000D01*
G75*
G02*
X415512000Y-173647000I-200000J0D01*
G01*
X414312000Y-173647000D01*
G75*
G02*
X414112000Y-173447000I0J200000D01*
G01*
G37*
G36*
G01*
X432394000Y-173320000D02*
X432394000Y-172120000D01*
G75*
G02*
X432594000Y-171920000I200000J0D01*
G01*
X433794000Y-171920000D01*
G75*
G02*
X433994000Y-172120000I0J-200000D01*
G01*
X433994000Y-173320000D01*
G75*
G02*
X433794000Y-173520000I-200000J0D01*
G01*
X432594000Y-173520000D01*
G75*
G02*
X432394000Y-173320000I0J200000D01*
G01*
G37*
G36*
G01*
X435194000Y-173320000D02*
X435194000Y-172120000D01*
G75*
G02*
X435394000Y-171920000I200000J0D01*
G01*
X436594000Y-171920000D01*
G75*
G02*
X436794000Y-172120000I0J-200000D01*
G01*
X436794000Y-173320000D01*
G75*
G02*
X436594000Y-173520000I-200000J0D01*
G01*
X435394000Y-173520000D01*
G75*
G02*
X435194000Y-173320000I0J200000D01*
G01*
G37*
G36*
G01*
X438944760Y-164047984D02*
X438944760Y-161547984D01*
G75*
G02*
X439144760Y-161347984I200000J0D01*
G01*
X441694760Y-161347984D01*
G75*
G02*
X441894760Y-161547984I0J-200000D01*
G01*
X441894760Y-164047984D01*
G75*
G02*
X441694760Y-164247984I-200000J0D01*
G01*
X439144760Y-164247984D01*
G75*
G02*
X438944760Y-164047984I0J200000D01*
G01*
G37*
G36*
G01*
X426017760Y-166587984D02*
X426017760Y-164087984D01*
G75*
G02*
X426217760Y-163887984I200000J0D01*
G01*
X428767760Y-163887984D01*
G75*
G02*
X428967760Y-164087984I0J-200000D01*
G01*
X428967760Y-166587984D01*
G75*
G02*
X428767760Y-166787984I-200000J0D01*
G01*
X426217760Y-166787984D01*
G75*
G02*
X426017760Y-166587984I0J200000D01*
G01*
G37*
D12*
X439657760Y-167877984D03*
X429497760Y-167877984D03*
D13*
X430767760Y-165337984D03*
D10*
X434577760Y-167877984D03*
D13*
X437117760Y-162797984D03*
G36*
G01*
X380200000Y-116170000D02*
X380200000Y-114970000D01*
G75*
G02*
X380400000Y-114770000I200000J0D01*
G01*
X381600000Y-114770000D01*
G75*
G02*
X381800000Y-114970000I0J-200000D01*
G01*
X381800000Y-116170000D01*
G75*
G02*
X381600000Y-116370000I-200000J0D01*
G01*
X380400000Y-116370000D01*
G75*
G02*
X380200000Y-116170000I0J200000D01*
G01*
G37*
G36*
G01*
X383000000Y-116170000D02*
X383000000Y-114970000D01*
G75*
G02*
X383200000Y-114770000I200000J0D01*
G01*
X384400000Y-114770000D01*
G75*
G02*
X384600000Y-114970000I0J-200000D01*
G01*
X384600000Y-116170000D01*
G75*
G02*
X384400000Y-116370000I-200000J0D01*
G01*
X383200000Y-116370000D01*
G75*
G02*
X383000000Y-116170000I0J200000D01*
G01*
G37*
G36*
G01*
X386557304Y-106898032D02*
X386557304Y-104398032D01*
G75*
G02*
X386757304Y-104198032I200000J0D01*
G01*
X389307304Y-104198032D01*
G75*
G02*
X389507304Y-104398032I0J-200000D01*
G01*
X389507304Y-106898032D01*
G75*
G02*
X389307304Y-107098032I-200000J0D01*
G01*
X386757304Y-107098032D01*
G75*
G02*
X386557304Y-106898032I0J200000D01*
G01*
G37*
G36*
G01*
X373630304Y-109438032D02*
X373630304Y-106938032D01*
G75*
G02*
X373830304Y-106738032I200000J0D01*
G01*
X376380304Y-106738032D01*
G75*
G02*
X376580304Y-106938032I0J-200000D01*
G01*
X376580304Y-109438032D01*
G75*
G02*
X376380304Y-109638032I-200000J0D01*
G01*
X373830304Y-109638032D01*
G75*
G02*
X373630304Y-109438032I0J200000D01*
G01*
G37*
D12*
X387270304Y-110728032D03*
X377110304Y-110728032D03*
D13*
X378380304Y-108188032D03*
D10*
X382190304Y-110728032D03*
D13*
X384730304Y-105648032D03*
G36*
G01*
X434680000Y-154400000D02*
X434680000Y-153200000D01*
G75*
G02*
X434880000Y-153000000I200000J0D01*
G01*
X436080000Y-153000000D01*
G75*
G02*
X436280000Y-153200000I0J-200000D01*
G01*
X436280000Y-154400000D01*
G75*
G02*
X436080000Y-154600000I-200000J0D01*
G01*
X434880000Y-154600000D01*
G75*
G02*
X434680000Y-154400000I0J200000D01*
G01*
G37*
G36*
G01*
X437480000Y-154400000D02*
X437480000Y-153200000D01*
G75*
G02*
X437680000Y-153000000I200000J0D01*
G01*
X438880000Y-153000000D01*
G75*
G02*
X439080000Y-153200000I0J-200000D01*
G01*
X439080000Y-154400000D01*
G75*
G02*
X438880000Y-154600000I-200000J0D01*
G01*
X437680000Y-154600000D01*
G75*
G02*
X437480000Y-154400000I0J200000D01*
G01*
G37*
G36*
G01*
X441326008Y-144998000D02*
X441326008Y-142498000D01*
G75*
G02*
X441526008Y-142298000I200000J0D01*
G01*
X444076008Y-142298000D01*
G75*
G02*
X444276008Y-142498000I0J-200000D01*
G01*
X444276008Y-144998000D01*
G75*
G02*
X444076008Y-145198000I-200000J0D01*
G01*
X441526008Y-145198000D01*
G75*
G02*
X441326008Y-144998000I0J200000D01*
G01*
G37*
G36*
G01*
X428399008Y-147538000D02*
X428399008Y-145038000D01*
G75*
G02*
X428599008Y-144838000I200000J0D01*
G01*
X431149008Y-144838000D01*
G75*
G02*
X431349008Y-145038000I0J-200000D01*
G01*
X431349008Y-147538000D01*
G75*
G02*
X431149008Y-147738000I-200000J0D01*
G01*
X428599008Y-147738000D01*
G75*
G02*
X428399008Y-147538000I0J200000D01*
G01*
G37*
D12*
X442039008Y-148828000D03*
X431879008Y-148828000D03*
D13*
X433149008Y-146288000D03*
D10*
X436959008Y-148828000D03*
D13*
X439499008Y-143748000D03*
G36*
G01*
X456270000Y-154270000D02*
X456270000Y-153070000D01*
G75*
G02*
X456470000Y-152870000I200000J0D01*
G01*
X457670000Y-152870000D01*
G75*
G02*
X457870000Y-153070000I0J-200000D01*
G01*
X457870000Y-154270000D01*
G75*
G02*
X457670000Y-154470000I-200000J0D01*
G01*
X456470000Y-154470000D01*
G75*
G02*
X456270000Y-154270000I0J200000D01*
G01*
G37*
G36*
G01*
X459070000Y-154270000D02*
X459070000Y-153070000D01*
G75*
G02*
X459270000Y-152870000I200000J0D01*
G01*
X460470000Y-152870000D01*
G75*
G02*
X460670000Y-153070000I0J-200000D01*
G01*
X460670000Y-154270000D01*
G75*
G02*
X460470000Y-154470000I-200000J0D01*
G01*
X459270000Y-154470000D01*
G75*
G02*
X459070000Y-154270000I0J200000D01*
G01*
G37*
G36*
G01*
X462757240Y-144998000D02*
X462757240Y-142498000D01*
G75*
G02*
X462957240Y-142298000I200000J0D01*
G01*
X465507240Y-142298000D01*
G75*
G02*
X465707240Y-142498000I0J-200000D01*
G01*
X465707240Y-144998000D01*
G75*
G02*
X465507240Y-145198000I-200000J0D01*
G01*
X462957240Y-145198000D01*
G75*
G02*
X462757240Y-144998000I0J200000D01*
G01*
G37*
G36*
G01*
X449830240Y-147538000D02*
X449830240Y-145038000D01*
G75*
G02*
X450030240Y-144838000I200000J0D01*
G01*
X452580240Y-144838000D01*
G75*
G02*
X452780240Y-145038000I0J-200000D01*
G01*
X452780240Y-147538000D01*
G75*
G02*
X452580240Y-147738000I-200000J0D01*
G01*
X450030240Y-147738000D01*
G75*
G02*
X449830240Y-147538000I0J200000D01*
G01*
G37*
D12*
X463470240Y-148828000D03*
X453310240Y-148828000D03*
D13*
X454580240Y-146288000D03*
D10*
X458390240Y-148828000D03*
D13*
X460930240Y-143748000D03*
G36*
G01*
X459953000Y-131537000D02*
X459953000Y-130337000D01*
G75*
G02*
X460153000Y-130137000I200000J0D01*
G01*
X461353000Y-130137000D01*
G75*
G02*
X461553000Y-130337000I0J-200000D01*
G01*
X461553000Y-131537000D01*
G75*
G02*
X461353000Y-131737000I-200000J0D01*
G01*
X460153000Y-131737000D01*
G75*
G02*
X459953000Y-131537000I0J200000D01*
G01*
G37*
G36*
G01*
X462753000Y-131537000D02*
X462753000Y-130337000D01*
G75*
G02*
X462953000Y-130137000I200000J0D01*
G01*
X464153000Y-130137000D01*
G75*
G02*
X464353000Y-130337000I0J-200000D01*
G01*
X464353000Y-131537000D01*
G75*
G02*
X464153000Y-131737000I-200000J0D01*
G01*
X462953000Y-131737000D01*
G75*
G02*
X462753000Y-131537000I0J200000D01*
G01*
G37*
G36*
G01*
X455613496Y-125948016D02*
X455613496Y-123448016D01*
G75*
G02*
X455813496Y-123248016I200000J0D01*
G01*
X458363496Y-123248016D01*
G75*
G02*
X458563496Y-123448016I0J-200000D01*
G01*
X458563496Y-125948016D01*
G75*
G02*
X458363496Y-126148016I-200000J0D01*
G01*
X455813496Y-126148016D01*
G75*
G02*
X455613496Y-125948016I0J200000D01*
G01*
G37*
G36*
G01*
X442686496Y-128488016D02*
X442686496Y-125988016D01*
G75*
G02*
X442886496Y-125788016I200000J0D01*
G01*
X445436496Y-125788016D01*
G75*
G02*
X445636496Y-125988016I0J-200000D01*
G01*
X445636496Y-128488016D01*
G75*
G02*
X445436496Y-128688016I-200000J0D01*
G01*
X442886496Y-128688016D01*
G75*
G02*
X442686496Y-128488016I0J200000D01*
G01*
G37*
D12*
X456326496Y-129778016D03*
X446166496Y-129778016D03*
D13*
X447436496Y-127238016D03*
D10*
X451246496Y-129778016D03*
D13*
X453786496Y-124698016D03*
G36*
G01*
X437220000Y-116170000D02*
X437220000Y-114970000D01*
G75*
G02*
X437420000Y-114770000I200000J0D01*
G01*
X438620000Y-114770000D01*
G75*
G02*
X438820000Y-114970000I0J-200000D01*
G01*
X438820000Y-116170000D01*
G75*
G02*
X438620000Y-116370000I-200000J0D01*
G01*
X437420000Y-116370000D01*
G75*
G02*
X437220000Y-116170000I0J200000D01*
G01*
G37*
G36*
G01*
X440020000Y-116170000D02*
X440020000Y-114970000D01*
G75*
G02*
X440220000Y-114770000I200000J0D01*
G01*
X441420000Y-114770000D01*
G75*
G02*
X441620000Y-114970000I0J-200000D01*
G01*
X441620000Y-116170000D01*
G75*
G02*
X441420000Y-116370000I-200000J0D01*
G01*
X440220000Y-116370000D01*
G75*
G02*
X440020000Y-116170000I0J200000D01*
G01*
G37*
G36*
G01*
X462757240Y-106898032D02*
X462757240Y-104398032D01*
G75*
G02*
X462957240Y-104198032I200000J0D01*
G01*
X465507240Y-104198032D01*
G75*
G02*
X465707240Y-104398032I0J-200000D01*
G01*
X465707240Y-106898032D01*
G75*
G02*
X465507240Y-107098032I-200000J0D01*
G01*
X462957240Y-107098032D01*
G75*
G02*
X462757240Y-106898032I0J200000D01*
G01*
G37*
G36*
G01*
X449830240Y-109438032D02*
X449830240Y-106938032D01*
G75*
G02*
X450030240Y-106738032I200000J0D01*
G01*
X452580240Y-106738032D01*
G75*
G02*
X452780240Y-106938032I0J-200000D01*
G01*
X452780240Y-109438032D01*
G75*
G02*
X452580240Y-109638032I-200000J0D01*
G01*
X450030240Y-109638032D01*
G75*
G02*
X449830240Y-109438032I0J200000D01*
G01*
G37*
D12*
X463470240Y-110728032D03*
X453310240Y-110728032D03*
D13*
X454580240Y-108188032D03*
D10*
X458390240Y-110728032D03*
D13*
X460930240Y-105648032D03*
G36*
G01*
X443707256Y-106898032D02*
X443707256Y-104398032D01*
G75*
G02*
X443907256Y-104198032I200000J0D01*
G01*
X446457256Y-104198032D01*
G75*
G02*
X446657256Y-104398032I0J-200000D01*
G01*
X446657256Y-106898032D01*
G75*
G02*
X446457256Y-107098032I-200000J0D01*
G01*
X443907256Y-107098032D01*
G75*
G02*
X443707256Y-106898032I0J200000D01*
G01*
G37*
G36*
G01*
X430780256Y-109438032D02*
X430780256Y-106938032D01*
G75*
G02*
X430980256Y-106738032I200000J0D01*
G01*
X433530256Y-106738032D01*
G75*
G02*
X433730256Y-106938032I0J-200000D01*
G01*
X433730256Y-109438032D01*
G75*
G02*
X433530256Y-109638032I-200000J0D01*
G01*
X430980256Y-109638032D01*
G75*
G02*
X430780256Y-109438032I0J200000D01*
G01*
G37*
D12*
X444420256Y-110728032D03*
X434260256Y-110728032D03*
D13*
X435530256Y-108188032D03*
D10*
X439340256Y-110728032D03*
D13*
X441880256Y-105648032D03*
G36*
G01*
X456270000Y-117440000D02*
X456270000Y-116240000D01*
G75*
G02*
X456470000Y-116040000I200000J0D01*
G01*
X457670000Y-116040000D01*
G75*
G02*
X457870000Y-116240000I0J-200000D01*
G01*
X457870000Y-117440000D01*
G75*
G02*
X457670000Y-117640000I-200000J0D01*
G01*
X456470000Y-117640000D01*
G75*
G02*
X456270000Y-117440000I0J200000D01*
G01*
G37*
G36*
G01*
X459070000Y-117440000D02*
X459070000Y-116240000D01*
G75*
G02*
X459270000Y-116040000I200000J0D01*
G01*
X460470000Y-116040000D01*
G75*
G02*
X460670000Y-116240000I0J-200000D01*
G01*
X460670000Y-117440000D01*
G75*
G02*
X460470000Y-117640000I-200000J0D01*
G01*
X459270000Y-117640000D01*
G75*
G02*
X459070000Y-117440000I0J200000D01*
G01*
G37*
G36*
G01*
X418170000Y-116170000D02*
X418170000Y-114970000D01*
G75*
G02*
X418370000Y-114770000I200000J0D01*
G01*
X419570000Y-114770000D01*
G75*
G02*
X419770000Y-114970000I0J-200000D01*
G01*
X419770000Y-116170000D01*
G75*
G02*
X419570000Y-116370000I-200000J0D01*
G01*
X418370000Y-116370000D01*
G75*
G02*
X418170000Y-116170000I0J200000D01*
G01*
G37*
G36*
G01*
X420970000Y-116170000D02*
X420970000Y-114970000D01*
G75*
G02*
X421170000Y-114770000I200000J0D01*
G01*
X422370000Y-114770000D01*
G75*
G02*
X422570000Y-114970000I0J-200000D01*
G01*
X422570000Y-116170000D01*
G75*
G02*
X422370000Y-116370000I-200000J0D01*
G01*
X421170000Y-116370000D01*
G75*
G02*
X420970000Y-116170000I0J200000D01*
G01*
G37*
G36*
G01*
X399120000Y-116170000D02*
X399120000Y-114970000D01*
G75*
G02*
X399320000Y-114770000I200000J0D01*
G01*
X400520000Y-114770000D01*
G75*
G02*
X400720000Y-114970000I0J-200000D01*
G01*
X400720000Y-116170000D01*
G75*
G02*
X400520000Y-116370000I-200000J0D01*
G01*
X399320000Y-116370000D01*
G75*
G02*
X399120000Y-116170000I0J200000D01*
G01*
G37*
G36*
G01*
X401920000Y-116170000D02*
X401920000Y-114970000D01*
G75*
G02*
X402120000Y-114770000I200000J0D01*
G01*
X403320000Y-114770000D01*
G75*
G02*
X403520000Y-114970000I0J-200000D01*
G01*
X403520000Y-116170000D01*
G75*
G02*
X403320000Y-116370000I-200000J0D01*
G01*
X402120000Y-116370000D01*
G75*
G02*
X401920000Y-116170000I0J200000D01*
G01*
G37*
G36*
G01*
X424657272Y-106898032D02*
X424657272Y-104398032D01*
G75*
G02*
X424857272Y-104198032I200000J0D01*
G01*
X427407272Y-104198032D01*
G75*
G02*
X427607272Y-104398032I0J-200000D01*
G01*
X427607272Y-106898032D01*
G75*
G02*
X427407272Y-107098032I-200000J0D01*
G01*
X424857272Y-107098032D01*
G75*
G02*
X424657272Y-106898032I0J200000D01*
G01*
G37*
G36*
G01*
X411730272Y-109438032D02*
X411730272Y-106938032D01*
G75*
G02*
X411930272Y-106738032I200000J0D01*
G01*
X414480272Y-106738032D01*
G75*
G02*
X414680272Y-106938032I0J-200000D01*
G01*
X414680272Y-109438032D01*
G75*
G02*
X414480272Y-109638032I-200000J0D01*
G01*
X411930272Y-109638032D01*
G75*
G02*
X411730272Y-109438032I0J200000D01*
G01*
G37*
D12*
X425370272Y-110728032D03*
X415210272Y-110728032D03*
D13*
X416480272Y-108188032D03*
D10*
X420290272Y-110728032D03*
D13*
X422830272Y-105648032D03*
G36*
G01*
X405607288Y-106898032D02*
X405607288Y-104398032D01*
G75*
G02*
X405807288Y-104198032I200000J0D01*
G01*
X408357288Y-104198032D01*
G75*
G02*
X408557288Y-104398032I0J-200000D01*
G01*
X408557288Y-106898032D01*
G75*
G02*
X408357288Y-107098032I-200000J0D01*
G01*
X405807288Y-107098032D01*
G75*
G02*
X405607288Y-106898032I0J200000D01*
G01*
G37*
G36*
G01*
X392680288Y-109438032D02*
X392680288Y-106938032D01*
G75*
G02*
X392880288Y-106738032I200000J0D01*
G01*
X395430288Y-106738032D01*
G75*
G02*
X395630288Y-106938032I0J-200000D01*
G01*
X395630288Y-109438032D01*
G75*
G02*
X395430288Y-109638032I-200000J0D01*
G01*
X392880288Y-109638032D01*
G75*
G02*
X392680288Y-109438032I0J200000D01*
G01*
G37*
D12*
X406320288Y-110728032D03*
X396160288Y-110728032D03*
D13*
X397430288Y-108188032D03*
D10*
X401240288Y-110728032D03*
D13*
X403780288Y-105648032D03*
G36*
G01*
X279740000Y-154270000D02*
X279740000Y-153070000D01*
G75*
G02*
X279940000Y-152870000I200000J0D01*
G01*
X281140000Y-152870000D01*
G75*
G02*
X281340000Y-153070000I0J-200000D01*
G01*
X281340000Y-154270000D01*
G75*
G02*
X281140000Y-154470000I-200000J0D01*
G01*
X279940000Y-154470000D01*
G75*
G02*
X279740000Y-154270000I0J200000D01*
G01*
G37*
G36*
G01*
X282540000Y-154270000D02*
X282540000Y-153070000D01*
G75*
G02*
X282740000Y-152870000I200000J0D01*
G01*
X283940000Y-152870000D01*
G75*
G02*
X284140000Y-153070000I0J-200000D01*
G01*
X284140000Y-154270000D01*
G75*
G02*
X283940000Y-154470000I-200000J0D01*
G01*
X282740000Y-154470000D01*
G75*
G02*
X282540000Y-154270000I0J200000D01*
G01*
G37*
G36*
G01*
X289900000Y-135220000D02*
X289900000Y-134020000D01*
G75*
G02*
X290100000Y-133820000I200000J0D01*
G01*
X291300000Y-133820000D01*
G75*
G02*
X291500000Y-134020000I0J-200000D01*
G01*
X291500000Y-135220000D01*
G75*
G02*
X291300000Y-135420000I-200000J0D01*
G01*
X290100000Y-135420000D01*
G75*
G02*
X289900000Y-135220000I0J200000D01*
G01*
G37*
G36*
G01*
X292700000Y-135220000D02*
X292700000Y-134020000D01*
G75*
G02*
X292900000Y-133820000I200000J0D01*
G01*
X294100000Y-133820000D01*
G75*
G02*
X294300000Y-134020000I0J-200000D01*
G01*
X294300000Y-135220000D01*
G75*
G02*
X294100000Y-135420000I-200000J0D01*
G01*
X292900000Y-135420000D01*
G75*
G02*
X292700000Y-135220000I0J200000D01*
G01*
G37*
G36*
G01*
X296069880Y-125948016D02*
X296069880Y-123448016D01*
G75*
G02*
X296269880Y-123248016I200000J0D01*
G01*
X298819880Y-123248016D01*
G75*
G02*
X299019880Y-123448016I0J-200000D01*
G01*
X299019880Y-125948016D01*
G75*
G02*
X298819880Y-126148016I-200000J0D01*
G01*
X296269880Y-126148016D01*
G75*
G02*
X296069880Y-125948016I0J200000D01*
G01*
G37*
G36*
G01*
X283142880Y-128488016D02*
X283142880Y-125988016D01*
G75*
G02*
X283342880Y-125788016I200000J0D01*
G01*
X285892880Y-125788016D01*
G75*
G02*
X286092880Y-125988016I0J-200000D01*
G01*
X286092880Y-128488016D01*
G75*
G02*
X285892880Y-128688016I-200000J0D01*
G01*
X283342880Y-128688016D01*
G75*
G02*
X283142880Y-128488016I0J200000D01*
G01*
G37*
D12*
X296782880Y-129778016D03*
X286622880Y-129778016D03*
D13*
X287892880Y-127238016D03*
D10*
X291702880Y-129778016D03*
D13*
X294242880Y-124698016D03*
G36*
G01*
X260690000Y-154270000D02*
X260690000Y-153070000D01*
G75*
G02*
X260890000Y-152870000I200000J0D01*
G01*
X262090000Y-152870000D01*
G75*
G02*
X262290000Y-153070000I0J-200000D01*
G01*
X262290000Y-154270000D01*
G75*
G02*
X262090000Y-154470000I-200000J0D01*
G01*
X260890000Y-154470000D01*
G75*
G02*
X260690000Y-154270000I0J200000D01*
G01*
G37*
G36*
G01*
X263490000Y-154270000D02*
X263490000Y-153070000D01*
G75*
G02*
X263690000Y-152870000I200000J0D01*
G01*
X264890000Y-152870000D01*
G75*
G02*
X265090000Y-153070000I0J-200000D01*
G01*
X265090000Y-154270000D01*
G75*
G02*
X264890000Y-154470000I-200000J0D01*
G01*
X263690000Y-154470000D01*
G75*
G02*
X263490000Y-154270000I0J200000D01*
G01*
G37*
G36*
G01*
X286544888Y-144998000D02*
X286544888Y-142498000D01*
G75*
G02*
X286744888Y-142298000I200000J0D01*
G01*
X289294888Y-142298000D01*
G75*
G02*
X289494888Y-142498000I0J-200000D01*
G01*
X289494888Y-144998000D01*
G75*
G02*
X289294888Y-145198000I-200000J0D01*
G01*
X286744888Y-145198000D01*
G75*
G02*
X286544888Y-144998000I0J200000D01*
G01*
G37*
G36*
G01*
X273617888Y-147538000D02*
X273617888Y-145038000D01*
G75*
G02*
X273817888Y-144838000I200000J0D01*
G01*
X276367888Y-144838000D01*
G75*
G02*
X276567888Y-145038000I0J-200000D01*
G01*
X276567888Y-147538000D01*
G75*
G02*
X276367888Y-147738000I-200000J0D01*
G01*
X273817888Y-147738000D01*
G75*
G02*
X273617888Y-147538000I0J200000D01*
G01*
G37*
D12*
X287257888Y-148828000D03*
X277097888Y-148828000D03*
D13*
X278367888Y-146288000D03*
D10*
X282177888Y-148828000D03*
D13*
X284717888Y-143748000D03*
G36*
G01*
X267494904Y-144998000D02*
X267494904Y-142498000D01*
G75*
G02*
X267694904Y-142298000I200000J0D01*
G01*
X270244904Y-142298000D01*
G75*
G02*
X270444904Y-142498000I0J-200000D01*
G01*
X270444904Y-144998000D01*
G75*
G02*
X270244904Y-145198000I-200000J0D01*
G01*
X267694904Y-145198000D01*
G75*
G02*
X267494904Y-144998000I0J200000D01*
G01*
G37*
G36*
G01*
X254567904Y-147538000D02*
X254567904Y-145038000D01*
G75*
G02*
X254767904Y-144838000I200000J0D01*
G01*
X257317904Y-144838000D01*
G75*
G02*
X257517904Y-145038000I0J-200000D01*
G01*
X257517904Y-147538000D01*
G75*
G02*
X257317904Y-147738000I-200000J0D01*
G01*
X254767904Y-147738000D01*
G75*
G02*
X254567904Y-147538000I0J200000D01*
G01*
G37*
D12*
X268207904Y-148828000D03*
X258047904Y-148828000D03*
D13*
X259317904Y-146288000D03*
D10*
X263127904Y-148828000D03*
D13*
X265667904Y-143748000D03*
D14*
X327580352Y-105648032D03*
X321230352Y-108188032D03*
G36*
G01*
X361020000Y-116170000D02*
X361020000Y-114970000D01*
G75*
G02*
X361220000Y-114770000I200000J0D01*
G01*
X362420000Y-114770000D01*
G75*
G02*
X362620000Y-114970000I0J-200000D01*
G01*
X362620000Y-116170000D01*
G75*
G02*
X362420000Y-116370000I-200000J0D01*
G01*
X361220000Y-116370000D01*
G75*
G02*
X361020000Y-116170000I0J200000D01*
G01*
G37*
G36*
G01*
X363820000Y-116170000D02*
X363820000Y-114970000D01*
G75*
G02*
X364020000Y-114770000I200000J0D01*
G01*
X365220000Y-114770000D01*
G75*
G02*
X365420000Y-114970000I0J-200000D01*
G01*
X365420000Y-116170000D01*
G75*
G02*
X365220000Y-116370000I-200000J0D01*
G01*
X364020000Y-116370000D01*
G75*
G02*
X363820000Y-116170000I0J200000D01*
G01*
G37*
G36*
G01*
X367507320Y-106898032D02*
X367507320Y-104398032D01*
G75*
G02*
X367707320Y-104198032I200000J0D01*
G01*
X370257320Y-104198032D01*
G75*
G02*
X370457320Y-104398032I0J-200000D01*
G01*
X370457320Y-106898032D01*
G75*
G02*
X370257320Y-107098032I-200000J0D01*
G01*
X367707320Y-107098032D01*
G75*
G02*
X367507320Y-106898032I0J200000D01*
G01*
G37*
G36*
G01*
X354580320Y-109438032D02*
X354580320Y-106938032D01*
G75*
G02*
X354780320Y-106738032I200000J0D01*
G01*
X357330320Y-106738032D01*
G75*
G02*
X357530320Y-106938032I0J-200000D01*
G01*
X357530320Y-109438032D01*
G75*
G02*
X357330320Y-109638032I-200000J0D01*
G01*
X354780320Y-109638032D01*
G75*
G02*
X354580320Y-109438032I0J200000D01*
G01*
G37*
D12*
X368220320Y-110728032D03*
X358060320Y-110728032D03*
D13*
X359330320Y-108188032D03*
D10*
X363140320Y-110728032D03*
D13*
X365680320Y-105648032D03*
G36*
G01*
X341970000Y-116170000D02*
X341970000Y-114970000D01*
G75*
G02*
X342170000Y-114770000I200000J0D01*
G01*
X343370000Y-114770000D01*
G75*
G02*
X343570000Y-114970000I0J-200000D01*
G01*
X343570000Y-116170000D01*
G75*
G02*
X343370000Y-116370000I-200000J0D01*
G01*
X342170000Y-116370000D01*
G75*
G02*
X341970000Y-116170000I0J200000D01*
G01*
G37*
G36*
G01*
X344770000Y-116170000D02*
X344770000Y-114970000D01*
G75*
G02*
X344970000Y-114770000I200000J0D01*
G01*
X346170000Y-114770000D01*
G75*
G02*
X346370000Y-114970000I0J-200000D01*
G01*
X346370000Y-116170000D01*
G75*
G02*
X346170000Y-116370000I-200000J0D01*
G01*
X344970000Y-116370000D01*
G75*
G02*
X344770000Y-116170000I0J200000D01*
G01*
G37*
G36*
G01*
X348457336Y-106898032D02*
X348457336Y-104398032D01*
G75*
G02*
X348657336Y-104198032I200000J0D01*
G01*
X351207336Y-104198032D01*
G75*
G02*
X351407336Y-104398032I0J-200000D01*
G01*
X351407336Y-106898032D01*
G75*
G02*
X351207336Y-107098032I-200000J0D01*
G01*
X348657336Y-107098032D01*
G75*
G02*
X348457336Y-106898032I0J200000D01*
G01*
G37*
G36*
G01*
X335530336Y-109438032D02*
X335530336Y-106938032D01*
G75*
G02*
X335730336Y-106738032I200000J0D01*
G01*
X338280336Y-106738032D01*
G75*
G02*
X338480336Y-106938032I0J-200000D01*
G01*
X338480336Y-109438032D01*
G75*
G02*
X338280336Y-109638032I-200000J0D01*
G01*
X335730336Y-109638032D01*
G75*
G02*
X335530336Y-109438032I0J200000D01*
G01*
G37*
D12*
X349170336Y-110728032D03*
X339010336Y-110728032D03*
D13*
X340280336Y-108188032D03*
D10*
X344090336Y-110728032D03*
D13*
X346630336Y-105648032D03*
G36*
G01*
X334680000Y-110700000D02*
X335880000Y-110700000D01*
G75*
G02*
X336080000Y-110900000I0J-200000D01*
G01*
X336080000Y-112100000D01*
G75*
G02*
X335880000Y-112300000I-200000J0D01*
G01*
X334680000Y-112300000D01*
G75*
G02*
X334480000Y-112100000I0J200000D01*
G01*
X334480000Y-110900000D01*
G75*
G02*
X334680000Y-110700000I200000J0D01*
G01*
G37*
G36*
G01*
X334680000Y-113500000D02*
X335880000Y-113500000D01*
G75*
G02*
X336080000Y-113700000I0J-200000D01*
G01*
X336080000Y-114900000D01*
G75*
G02*
X335880000Y-115100000I-200000J0D01*
G01*
X334680000Y-115100000D01*
G75*
G02*
X334480000Y-114900000I0J200000D01*
G01*
X334480000Y-113700000D01*
G75*
G02*
X334680000Y-113500000I200000J0D01*
G01*
G37*
G36*
G01*
X303870000Y-116170000D02*
X303870000Y-114970000D01*
G75*
G02*
X304070000Y-114770000I200000J0D01*
G01*
X305270000Y-114770000D01*
G75*
G02*
X305470000Y-114970000I0J-200000D01*
G01*
X305470000Y-116170000D01*
G75*
G02*
X305270000Y-116370000I-200000J0D01*
G01*
X304070000Y-116370000D01*
G75*
G02*
X303870000Y-116170000I0J200000D01*
G01*
G37*
G36*
G01*
X306670000Y-116170000D02*
X306670000Y-114970000D01*
G75*
G02*
X306870000Y-114770000I200000J0D01*
G01*
X308070000Y-114770000D01*
G75*
G02*
X308270000Y-114970000I0J-200000D01*
G01*
X308270000Y-116170000D01*
G75*
G02*
X308070000Y-116370000I-200000J0D01*
G01*
X306870000Y-116370000D01*
G75*
G02*
X306670000Y-116170000I0J200000D01*
G01*
G37*
G36*
G01*
X310357368Y-106898032D02*
X310357368Y-104398032D01*
G75*
G02*
X310557368Y-104198032I200000J0D01*
G01*
X313107368Y-104198032D01*
G75*
G02*
X313307368Y-104398032I0J-200000D01*
G01*
X313307368Y-106898032D01*
G75*
G02*
X313107368Y-107098032I-200000J0D01*
G01*
X310557368Y-107098032D01*
G75*
G02*
X310357368Y-106898032I0J200000D01*
G01*
G37*
G36*
G01*
X297430368Y-109438032D02*
X297430368Y-106938032D01*
G75*
G02*
X297630368Y-106738032I200000J0D01*
G01*
X300180368Y-106738032D01*
G75*
G02*
X300380368Y-106938032I0J-200000D01*
G01*
X300380368Y-109438032D01*
G75*
G02*
X300180368Y-109638032I-200000J0D01*
G01*
X297630368Y-109638032D01*
G75*
G02*
X297430368Y-109438032I0J200000D01*
G01*
G37*
D12*
X311070368Y-110728032D03*
X300910368Y-110728032D03*
D13*
X302180368Y-108188032D03*
D10*
X305990368Y-110728032D03*
D13*
X308530368Y-105648032D03*
G36*
G01*
X291307384Y-106898032D02*
X291307384Y-104398032D01*
G75*
G02*
X291507384Y-104198032I200000J0D01*
G01*
X294057384Y-104198032D01*
G75*
G02*
X294257384Y-104398032I0J-200000D01*
G01*
X294257384Y-106898032D01*
G75*
G02*
X294057384Y-107098032I-200000J0D01*
G01*
X291507384Y-107098032D01*
G75*
G02*
X291307384Y-106898032I0J200000D01*
G01*
G37*
G36*
G01*
X278380384Y-109438032D02*
X278380384Y-106938032D01*
G75*
G02*
X278580384Y-106738032I200000J0D01*
G01*
X281130384Y-106738032D01*
G75*
G02*
X281330384Y-106938032I0J-200000D01*
G01*
X281330384Y-109438032D01*
G75*
G02*
X281130384Y-109638032I-200000J0D01*
G01*
X278580384Y-109638032D01*
G75*
G02*
X278380384Y-109438032I0J200000D01*
G01*
G37*
D12*
X292020384Y-110728032D03*
X281860384Y-110728032D03*
D13*
X283130384Y-108188032D03*
D10*
X286940384Y-110728032D03*
D13*
X289480384Y-105648032D03*
G36*
G01*
X265770000Y-116300000D02*
X265770000Y-115100000D01*
G75*
G02*
X265970000Y-114900000I200000J0D01*
G01*
X267170000Y-114900000D01*
G75*
G02*
X267370000Y-115100000I0J-200000D01*
G01*
X267370000Y-116300000D01*
G75*
G02*
X267170000Y-116500000I-200000J0D01*
G01*
X265970000Y-116500000D01*
G75*
G02*
X265770000Y-116300000I0J200000D01*
G01*
G37*
G36*
G01*
X268570000Y-116300000D02*
X268570000Y-115100000D01*
G75*
G02*
X268770000Y-114900000I200000J0D01*
G01*
X269970000Y-114900000D01*
G75*
G02*
X270170000Y-115100000I0J-200000D01*
G01*
X270170000Y-116300000D01*
G75*
G02*
X269970000Y-116500000I-200000J0D01*
G01*
X268770000Y-116500000D01*
G75*
G02*
X268570000Y-116300000I0J200000D01*
G01*
G37*
G36*
G01*
X284820000Y-116170000D02*
X284820000Y-114970000D01*
G75*
G02*
X285020000Y-114770000I200000J0D01*
G01*
X286220000Y-114770000D01*
G75*
G02*
X286420000Y-114970000I0J-200000D01*
G01*
X286420000Y-116170000D01*
G75*
G02*
X286220000Y-116370000I-200000J0D01*
G01*
X285020000Y-116370000D01*
G75*
G02*
X284820000Y-116170000I0J200000D01*
G01*
G37*
G36*
G01*
X287620000Y-116170000D02*
X287620000Y-114970000D01*
G75*
G02*
X287820000Y-114770000I200000J0D01*
G01*
X289020000Y-114770000D01*
G75*
G02*
X289220000Y-114970000I0J-200000D01*
G01*
X289220000Y-116170000D01*
G75*
G02*
X289020000Y-116370000I-200000J0D01*
G01*
X287820000Y-116370000D01*
G75*
G02*
X287620000Y-116170000I0J200000D01*
G01*
G37*
G36*
G01*
X270850000Y-135220000D02*
X270850000Y-134020000D01*
G75*
G02*
X271050000Y-133820000I200000J0D01*
G01*
X272250000Y-133820000D01*
G75*
G02*
X272450000Y-134020000I0J-200000D01*
G01*
X272450000Y-135220000D01*
G75*
G02*
X272250000Y-135420000I-200000J0D01*
G01*
X271050000Y-135420000D01*
G75*
G02*
X270850000Y-135220000I0J200000D01*
G01*
G37*
G36*
G01*
X273650000Y-135220000D02*
X273650000Y-134020000D01*
G75*
G02*
X273850000Y-133820000I200000J0D01*
G01*
X275050000Y-133820000D01*
G75*
G02*
X275250000Y-134020000I0J-200000D01*
G01*
X275250000Y-135220000D01*
G75*
G02*
X275050000Y-135420000I-200000J0D01*
G01*
X273850000Y-135420000D01*
G75*
G02*
X273650000Y-135220000I0J200000D01*
G01*
G37*
G36*
G01*
X251800000Y-135220000D02*
X251800000Y-134020000D01*
G75*
G02*
X252000000Y-133820000I200000J0D01*
G01*
X253200000Y-133820000D01*
G75*
G02*
X253400000Y-134020000I0J-200000D01*
G01*
X253400000Y-135220000D01*
G75*
G02*
X253200000Y-135420000I-200000J0D01*
G01*
X252000000Y-135420000D01*
G75*
G02*
X251800000Y-135220000I0J200000D01*
G01*
G37*
G36*
G01*
X254600000Y-135220000D02*
X254600000Y-134020000D01*
G75*
G02*
X254800000Y-133820000I200000J0D01*
G01*
X256000000Y-133820000D01*
G75*
G02*
X256200000Y-134020000I0J-200000D01*
G01*
X256200000Y-135220000D01*
G75*
G02*
X256000000Y-135420000I-200000J0D01*
G01*
X254800000Y-135420000D01*
G75*
G02*
X254600000Y-135220000I0J200000D01*
G01*
G37*
G36*
G01*
X277019896Y-125948016D02*
X277019896Y-123448016D01*
G75*
G02*
X277219896Y-123248016I200000J0D01*
G01*
X279769896Y-123248016D01*
G75*
G02*
X279969896Y-123448016I0J-200000D01*
G01*
X279969896Y-125948016D01*
G75*
G02*
X279769896Y-126148016I-200000J0D01*
G01*
X277219896Y-126148016D01*
G75*
G02*
X277019896Y-125948016I0J200000D01*
G01*
G37*
G36*
G01*
X264092896Y-128488016D02*
X264092896Y-125988016D01*
G75*
G02*
X264292896Y-125788016I200000J0D01*
G01*
X266842896Y-125788016D01*
G75*
G02*
X267042896Y-125988016I0J-200000D01*
G01*
X267042896Y-128488016D01*
G75*
G02*
X266842896Y-128688016I-200000J0D01*
G01*
X264292896Y-128688016D01*
G75*
G02*
X264092896Y-128488016I0J200000D01*
G01*
G37*
D12*
X277732896Y-129778016D03*
X267572896Y-129778016D03*
D13*
X268842896Y-127238016D03*
D10*
X272652896Y-129778016D03*
D13*
X275192896Y-124698016D03*
G36*
G01*
X257969912Y-125948016D02*
X257969912Y-123448016D01*
G75*
G02*
X258169912Y-123248016I200000J0D01*
G01*
X260719912Y-123248016D01*
G75*
G02*
X260919912Y-123448016I0J-200000D01*
G01*
X260919912Y-125948016D01*
G75*
G02*
X260719912Y-126148016I-200000J0D01*
G01*
X258169912Y-126148016D01*
G75*
G02*
X257969912Y-125948016I0J200000D01*
G01*
G37*
G36*
G01*
X245042912Y-128488016D02*
X245042912Y-125988016D01*
G75*
G02*
X245242912Y-125788016I200000J0D01*
G01*
X247792912Y-125788016D01*
G75*
G02*
X247992912Y-125988016I0J-200000D01*
G01*
X247992912Y-128488016D01*
G75*
G02*
X247792912Y-128688016I-200000J0D01*
G01*
X245242912Y-128688016D01*
G75*
G02*
X245042912Y-128488016I0J200000D01*
G01*
G37*
D12*
X258682912Y-129778016D03*
X248522912Y-129778016D03*
D13*
X249792912Y-127238016D03*
D10*
X253602912Y-129778016D03*
D13*
X256142912Y-124698016D03*
G36*
G01*
X272257400Y-106898032D02*
X272257400Y-104398032D01*
G75*
G02*
X272457400Y-104198032I200000J0D01*
G01*
X275007400Y-104198032D01*
G75*
G02*
X275207400Y-104398032I0J-200000D01*
G01*
X275207400Y-106898032D01*
G75*
G02*
X275007400Y-107098032I-200000J0D01*
G01*
X272457400Y-107098032D01*
G75*
G02*
X272257400Y-106898032I0J200000D01*
G01*
G37*
G36*
G01*
X259330400Y-109438032D02*
X259330400Y-106938032D01*
G75*
G02*
X259530400Y-106738032I200000J0D01*
G01*
X262080400Y-106738032D01*
G75*
G02*
X262280400Y-106938032I0J-200000D01*
G01*
X262280400Y-109438032D01*
G75*
G02*
X262080400Y-109638032I-200000J0D01*
G01*
X259530400Y-109638032D01*
G75*
G02*
X259330400Y-109438032I0J200000D01*
G01*
G37*
D12*
X272970400Y-110728032D03*
X262810400Y-110728032D03*
D13*
X264080400Y-108188032D03*
D10*
X267890400Y-110728032D03*
D13*
X270430400Y-105648032D03*
G36*
G01*
X246720000Y-116170000D02*
X246720000Y-114970000D01*
G75*
G02*
X246920000Y-114770000I200000J0D01*
G01*
X248120000Y-114770000D01*
G75*
G02*
X248320000Y-114970000I0J-200000D01*
G01*
X248320000Y-116170000D01*
G75*
G02*
X248120000Y-116370000I-200000J0D01*
G01*
X246920000Y-116370000D01*
G75*
G02*
X246720000Y-116170000I0J200000D01*
G01*
G37*
G36*
G01*
X249520000Y-116170000D02*
X249520000Y-114970000D01*
G75*
G02*
X249720000Y-114770000I200000J0D01*
G01*
X250920000Y-114770000D01*
G75*
G02*
X251120000Y-114970000I0J-200000D01*
G01*
X251120000Y-116170000D01*
G75*
G02*
X250920000Y-116370000I-200000J0D01*
G01*
X249720000Y-116370000D01*
G75*
G02*
X249520000Y-116170000I0J200000D01*
G01*
G37*
G36*
G01*
X253207416Y-106898032D02*
X253207416Y-104398032D01*
G75*
G02*
X253407416Y-104198032I200000J0D01*
G01*
X255957416Y-104198032D01*
G75*
G02*
X256157416Y-104398032I0J-200000D01*
G01*
X256157416Y-106898032D01*
G75*
G02*
X255957416Y-107098032I-200000J0D01*
G01*
X253407416Y-107098032D01*
G75*
G02*
X253207416Y-106898032I0J200000D01*
G01*
G37*
G36*
G01*
X240280416Y-109438032D02*
X240280416Y-106938032D01*
G75*
G02*
X240480416Y-106738032I200000J0D01*
G01*
X243030416Y-106738032D01*
G75*
G02*
X243230416Y-106938032I0J-200000D01*
G01*
X243230416Y-109438032D01*
G75*
G02*
X243030416Y-109638032I-200000J0D01*
G01*
X240480416Y-109638032D01*
G75*
G02*
X240280416Y-109438032I0J200000D01*
G01*
G37*
D12*
X253920416Y-110728032D03*
X243760416Y-110728032D03*
D13*
X245030416Y-108188032D03*
D10*
X248840416Y-110728032D03*
D13*
X251380416Y-105648032D03*
G36*
G01*
X241640000Y-154270000D02*
X241640000Y-153070000D01*
G75*
G02*
X241840000Y-152870000I200000J0D01*
G01*
X243040000Y-152870000D01*
G75*
G02*
X243240000Y-153070000I0J-200000D01*
G01*
X243240000Y-154270000D01*
G75*
G02*
X243040000Y-154470000I-200000J0D01*
G01*
X241840000Y-154470000D01*
G75*
G02*
X241640000Y-154270000I0J200000D01*
G01*
G37*
G36*
G01*
X244440000Y-154270000D02*
X244440000Y-153070000D01*
G75*
G02*
X244640000Y-152870000I200000J0D01*
G01*
X245840000Y-152870000D01*
G75*
G02*
X246040000Y-153070000I0J-200000D01*
G01*
X246040000Y-154270000D01*
G75*
G02*
X245840000Y-154470000I-200000J0D01*
G01*
X244640000Y-154470000D01*
G75*
G02*
X244440000Y-154270000I0J200000D01*
G01*
G37*
G36*
G01*
X248444920Y-144998000D02*
X248444920Y-142498000D01*
G75*
G02*
X248644920Y-142298000I200000J0D01*
G01*
X251194920Y-142298000D01*
G75*
G02*
X251394920Y-142498000I0J-200000D01*
G01*
X251394920Y-144998000D01*
G75*
G02*
X251194920Y-145198000I-200000J0D01*
G01*
X248644920Y-145198000D01*
G75*
G02*
X248444920Y-144998000I0J200000D01*
G01*
G37*
G36*
G01*
X235517920Y-147538000D02*
X235517920Y-145038000D01*
G75*
G02*
X235717920Y-144838000I200000J0D01*
G01*
X238267920Y-144838000D01*
G75*
G02*
X238467920Y-145038000I0J-200000D01*
G01*
X238467920Y-147538000D01*
G75*
G02*
X238267920Y-147738000I-200000J0D01*
G01*
X235717920Y-147738000D01*
G75*
G02*
X235517920Y-147538000I0J200000D01*
G01*
G37*
D12*
X249157920Y-148828000D03*
X238997920Y-148828000D03*
D13*
X240267920Y-146288000D03*
D10*
X244077920Y-148828000D03*
D13*
X246617920Y-143748000D03*
G36*
G01*
X232750000Y-135220000D02*
X232750000Y-134020000D01*
G75*
G02*
X232950000Y-133820000I200000J0D01*
G01*
X234150000Y-133820000D01*
G75*
G02*
X234350000Y-134020000I0J-200000D01*
G01*
X234350000Y-135220000D01*
G75*
G02*
X234150000Y-135420000I-200000J0D01*
G01*
X232950000Y-135420000D01*
G75*
G02*
X232750000Y-135220000I0J200000D01*
G01*
G37*
G36*
G01*
X235550000Y-135220000D02*
X235550000Y-134020000D01*
G75*
G02*
X235750000Y-133820000I200000J0D01*
G01*
X236950000Y-133820000D01*
G75*
G02*
X237150000Y-134020000I0J-200000D01*
G01*
X237150000Y-135220000D01*
G75*
G02*
X236950000Y-135420000I-200000J0D01*
G01*
X235750000Y-135420000D01*
G75*
G02*
X235550000Y-135220000I0J200000D01*
G01*
G37*
G36*
G01*
X238919928Y-125948016D02*
X238919928Y-123448016D01*
G75*
G02*
X239119928Y-123248016I200000J0D01*
G01*
X241669928Y-123248016D01*
G75*
G02*
X241869928Y-123448016I0J-200000D01*
G01*
X241869928Y-125948016D01*
G75*
G02*
X241669928Y-126148016I-200000J0D01*
G01*
X239119928Y-126148016D01*
G75*
G02*
X238919928Y-125948016I0J200000D01*
G01*
G37*
G36*
G01*
X225992928Y-128488016D02*
X225992928Y-125988016D01*
G75*
G02*
X226192928Y-125788016I200000J0D01*
G01*
X228742928Y-125788016D01*
G75*
G02*
X228942928Y-125988016I0J-200000D01*
G01*
X228942928Y-128488016D01*
G75*
G02*
X228742928Y-128688016I-200000J0D01*
G01*
X226192928Y-128688016D01*
G75*
G02*
X225992928Y-128488016I0J200000D01*
G01*
G37*
D12*
X239632928Y-129778016D03*
X229472928Y-129778016D03*
D13*
X230742928Y-127238016D03*
D10*
X234552928Y-129778016D03*
D13*
X237092928Y-124698016D03*
G36*
G01*
X227670000Y-116170000D02*
X227670000Y-114970000D01*
G75*
G02*
X227870000Y-114770000I200000J0D01*
G01*
X229070000Y-114770000D01*
G75*
G02*
X229270000Y-114970000I0J-200000D01*
G01*
X229270000Y-116170000D01*
G75*
G02*
X229070000Y-116370000I-200000J0D01*
G01*
X227870000Y-116370000D01*
G75*
G02*
X227670000Y-116170000I0J200000D01*
G01*
G37*
G36*
G01*
X230470000Y-116170000D02*
X230470000Y-114970000D01*
G75*
G02*
X230670000Y-114770000I200000J0D01*
G01*
X231870000Y-114770000D01*
G75*
G02*
X232070000Y-114970000I0J-200000D01*
G01*
X232070000Y-116170000D01*
G75*
G02*
X231870000Y-116370000I-200000J0D01*
G01*
X230670000Y-116370000D01*
G75*
G02*
X230470000Y-116170000I0J200000D01*
G01*
G37*
G36*
G01*
X234157432Y-106898032D02*
X234157432Y-104398032D01*
G75*
G02*
X234357432Y-104198032I200000J0D01*
G01*
X236907432Y-104198032D01*
G75*
G02*
X237107432Y-104398032I0J-200000D01*
G01*
X237107432Y-106898032D01*
G75*
G02*
X236907432Y-107098032I-200000J0D01*
G01*
X234357432Y-107098032D01*
G75*
G02*
X234157432Y-106898032I0J200000D01*
G01*
G37*
G36*
G01*
X221230432Y-109438032D02*
X221230432Y-106938032D01*
G75*
G02*
X221430432Y-106738032I200000J0D01*
G01*
X223980432Y-106738032D01*
G75*
G02*
X224180432Y-106938032I0J-200000D01*
G01*
X224180432Y-109438032D01*
G75*
G02*
X223980432Y-109638032I-200000J0D01*
G01*
X221430432Y-109638032D01*
G75*
G02*
X221230432Y-109438032I0J200000D01*
G01*
G37*
D12*
X234870432Y-110728032D03*
X224710432Y-110728032D03*
D13*
X225980432Y-108188032D03*
D10*
X229790432Y-110728032D03*
D13*
X232330432Y-105648032D03*
G36*
G01*
X232750000Y-173320000D02*
X232750000Y-172120000D01*
G75*
G02*
X232950000Y-171920000I200000J0D01*
G01*
X234150000Y-171920000D01*
G75*
G02*
X234350000Y-172120000I0J-200000D01*
G01*
X234350000Y-173320000D01*
G75*
G02*
X234150000Y-173520000I-200000J0D01*
G01*
X232950000Y-173520000D01*
G75*
G02*
X232750000Y-173320000I0J200000D01*
G01*
G37*
G36*
G01*
X235550000Y-173320000D02*
X235550000Y-172120000D01*
G75*
G02*
X235750000Y-171920000I200000J0D01*
G01*
X236950000Y-171920000D01*
G75*
G02*
X237150000Y-172120000I0J-200000D01*
G01*
X237150000Y-173320000D01*
G75*
G02*
X236950000Y-173520000I-200000J0D01*
G01*
X235750000Y-173520000D01*
G75*
G02*
X235550000Y-173320000I0J200000D01*
G01*
G37*
G36*
G01*
X238919928Y-164047984D02*
X238919928Y-161547984D01*
G75*
G02*
X239119928Y-161347984I200000J0D01*
G01*
X241669928Y-161347984D01*
G75*
G02*
X241869928Y-161547984I0J-200000D01*
G01*
X241869928Y-164047984D01*
G75*
G02*
X241669928Y-164247984I-200000J0D01*
G01*
X239119928Y-164247984D01*
G75*
G02*
X238919928Y-164047984I0J200000D01*
G01*
G37*
G36*
G01*
X225992928Y-166587984D02*
X225992928Y-164087984D01*
G75*
G02*
X226192928Y-163887984I200000J0D01*
G01*
X228742928Y-163887984D01*
G75*
G02*
X228942928Y-164087984I0J-200000D01*
G01*
X228942928Y-166587984D01*
G75*
G02*
X228742928Y-166787984I-200000J0D01*
G01*
X226192928Y-166787984D01*
G75*
G02*
X225992928Y-166587984I0J200000D01*
G01*
G37*
D12*
X239632928Y-167877984D03*
X229472928Y-167877984D03*
D13*
X230742928Y-165337984D03*
D10*
X234552928Y-167877984D03*
D13*
X237092928Y-162797984D03*
G36*
G01*
X227670000Y-151730000D02*
X227670000Y-150530000D01*
G75*
G02*
X227870000Y-150330000I200000J0D01*
G01*
X229070000Y-150330000D01*
G75*
G02*
X229270000Y-150530000I0J-200000D01*
G01*
X229270000Y-151730000D01*
G75*
G02*
X229070000Y-151930000I-200000J0D01*
G01*
X227870000Y-151930000D01*
G75*
G02*
X227670000Y-151730000I0J200000D01*
G01*
G37*
G36*
G01*
X230470000Y-151730000D02*
X230470000Y-150530000D01*
G75*
G02*
X230670000Y-150330000I200000J0D01*
G01*
X231870000Y-150330000D01*
G75*
G02*
X232070000Y-150530000I0J-200000D01*
G01*
X232070000Y-151730000D01*
G75*
G02*
X231870000Y-151930000I-200000J0D01*
G01*
X230670000Y-151930000D01*
G75*
G02*
X230470000Y-151730000I0J200000D01*
G01*
G37*
G36*
G01*
X222251192Y-144998000D02*
X222251192Y-142498000D01*
G75*
G02*
X222451192Y-142298000I200000J0D01*
G01*
X225001192Y-142298000D01*
G75*
G02*
X225201192Y-142498000I0J-200000D01*
G01*
X225201192Y-144998000D01*
G75*
G02*
X225001192Y-145198000I-200000J0D01*
G01*
X222451192Y-145198000D01*
G75*
G02*
X222251192Y-144998000I0J200000D01*
G01*
G37*
G36*
G01*
X209324192Y-147538000D02*
X209324192Y-145038000D01*
G75*
G02*
X209524192Y-144838000I200000J0D01*
G01*
X212074192Y-144838000D01*
G75*
G02*
X212274192Y-145038000I0J-200000D01*
G01*
X212274192Y-147538000D01*
G75*
G02*
X212074192Y-147738000I-200000J0D01*
G01*
X209524192Y-147738000D01*
G75*
G02*
X209324192Y-147538000I0J200000D01*
G01*
G37*
D12*
X222964192Y-148828000D03*
X212804192Y-148828000D03*
D13*
X214074192Y-146288000D03*
D10*
X217884192Y-148828000D03*
D13*
X220424192Y-143748000D03*
G36*
G01*
X211160000Y-135220000D02*
X211160000Y-134020000D01*
G75*
G02*
X211360000Y-133820000I200000J0D01*
G01*
X212560000Y-133820000D01*
G75*
G02*
X212760000Y-134020000I0J-200000D01*
G01*
X212760000Y-135220000D01*
G75*
G02*
X212560000Y-135420000I-200000J0D01*
G01*
X211360000Y-135420000D01*
G75*
G02*
X211160000Y-135220000I0J200000D01*
G01*
G37*
G36*
G01*
X213960000Y-135220000D02*
X213960000Y-134020000D01*
G75*
G02*
X214160000Y-133820000I200000J0D01*
G01*
X215360000Y-133820000D01*
G75*
G02*
X215560000Y-134020000I0J-200000D01*
G01*
X215560000Y-135220000D01*
G75*
G02*
X215360000Y-135420000I-200000J0D01*
G01*
X214160000Y-135420000D01*
G75*
G02*
X213960000Y-135220000I0J200000D01*
G01*
G37*
G36*
G01*
X217488696Y-125948016D02*
X217488696Y-123448016D01*
G75*
G02*
X217688696Y-123248016I200000J0D01*
G01*
X220238696Y-123248016D01*
G75*
G02*
X220438696Y-123448016I0J-200000D01*
G01*
X220438696Y-125948016D01*
G75*
G02*
X220238696Y-126148016I-200000J0D01*
G01*
X217688696Y-126148016D01*
G75*
G02*
X217488696Y-125948016I0J200000D01*
G01*
G37*
G36*
G01*
X204561696Y-128488016D02*
X204561696Y-125988016D01*
G75*
G02*
X204761696Y-125788016I200000J0D01*
G01*
X207311696Y-125788016D01*
G75*
G02*
X207511696Y-125988016I0J-200000D01*
G01*
X207511696Y-128488016D01*
G75*
G02*
X207311696Y-128688016I-200000J0D01*
G01*
X204761696Y-128688016D01*
G75*
G02*
X204561696Y-128488016I0J200000D01*
G01*
G37*
D12*
X218201696Y-129778016D03*
X208041696Y-129778016D03*
D13*
X209311696Y-127238016D03*
D10*
X213121696Y-129778016D03*
D13*
X215661696Y-124698016D03*
G36*
G01*
X208620000Y-116170000D02*
X208620000Y-114970000D01*
G75*
G02*
X208820000Y-114770000I200000J0D01*
G01*
X210020000Y-114770000D01*
G75*
G02*
X210220000Y-114970000I0J-200000D01*
G01*
X210220000Y-116170000D01*
G75*
G02*
X210020000Y-116370000I-200000J0D01*
G01*
X208820000Y-116370000D01*
G75*
G02*
X208620000Y-116170000I0J200000D01*
G01*
G37*
G36*
G01*
X211420000Y-116170000D02*
X211420000Y-114970000D01*
G75*
G02*
X211620000Y-114770000I200000J0D01*
G01*
X212820000Y-114770000D01*
G75*
G02*
X213020000Y-114970000I0J-200000D01*
G01*
X213020000Y-116170000D01*
G75*
G02*
X212820000Y-116370000I-200000J0D01*
G01*
X211620000Y-116370000D01*
G75*
G02*
X211420000Y-116170000I0J200000D01*
G01*
G37*
G36*
G01*
X215107448Y-106898032D02*
X215107448Y-104398032D01*
G75*
G02*
X215307448Y-104198032I200000J0D01*
G01*
X217857448Y-104198032D01*
G75*
G02*
X218057448Y-104398032I0J-200000D01*
G01*
X218057448Y-106898032D01*
G75*
G02*
X217857448Y-107098032I-200000J0D01*
G01*
X215307448Y-107098032D01*
G75*
G02*
X215107448Y-106898032I0J200000D01*
G01*
G37*
G36*
G01*
X202180448Y-109438032D02*
X202180448Y-106938032D01*
G75*
G02*
X202380448Y-106738032I200000J0D01*
G01*
X204930448Y-106738032D01*
G75*
G02*
X205130448Y-106938032I0J-200000D01*
G01*
X205130448Y-109438032D01*
G75*
G02*
X204930448Y-109638032I-200000J0D01*
G01*
X202380448Y-109638032D01*
G75*
G02*
X202180448Y-109438032I0J200000D01*
G01*
G37*
D12*
X215820448Y-110728032D03*
X205660448Y-110728032D03*
D13*
X206930448Y-108188032D03*
D10*
X210740448Y-110728032D03*
D13*
X213280448Y-105648032D03*
G36*
G01*
X184490000Y-173320000D02*
X184490000Y-172120000D01*
G75*
G02*
X184690000Y-171920000I200000J0D01*
G01*
X185890000Y-171920000D01*
G75*
G02*
X186090000Y-172120000I0J-200000D01*
G01*
X186090000Y-173320000D01*
G75*
G02*
X185890000Y-173520000I-200000J0D01*
G01*
X184690000Y-173520000D01*
G75*
G02*
X184490000Y-173320000I0J200000D01*
G01*
G37*
G36*
G01*
X187290000Y-173320000D02*
X187290000Y-172120000D01*
G75*
G02*
X187490000Y-171920000I200000J0D01*
G01*
X188690000Y-171920000D01*
G75*
G02*
X188890000Y-172120000I0J-200000D01*
G01*
X188890000Y-173320000D01*
G75*
G02*
X188690000Y-173520000I-200000J0D01*
G01*
X187490000Y-173520000D01*
G75*
G02*
X187290000Y-173320000I0J200000D01*
G01*
G37*
G36*
G01*
X191314816Y-164047984D02*
X191314816Y-161547984D01*
G75*
G02*
X191514816Y-161347984I200000J0D01*
G01*
X194064816Y-161347984D01*
G75*
G02*
X194264816Y-161547984I0J-200000D01*
G01*
X194264816Y-164047984D01*
G75*
G02*
X194064816Y-164247984I-200000J0D01*
G01*
X191514816Y-164247984D01*
G75*
G02*
X191314816Y-164047984I0J200000D01*
G01*
G37*
G36*
G01*
X178387816Y-166587984D02*
X178387816Y-164087984D01*
G75*
G02*
X178587816Y-163887984I200000J0D01*
G01*
X181137816Y-163887984D01*
G75*
G02*
X181337816Y-164087984I0J-200000D01*
G01*
X181337816Y-166587984D01*
G75*
G02*
X181137816Y-166787984I-200000J0D01*
G01*
X178587816Y-166787984D01*
G75*
G02*
X178387816Y-166587984I0J200000D01*
G01*
G37*
D12*
X192027816Y-167877984D03*
X181867816Y-167877984D03*
D13*
X183137816Y-165337984D03*
D10*
X186947816Y-167877984D03*
D13*
X189487816Y-162797984D03*
G36*
G01*
X191294968Y-144998000D02*
X191294968Y-142498000D01*
G75*
G02*
X191494968Y-142298000I200000J0D01*
G01*
X194044968Y-142298000D01*
G75*
G02*
X194244968Y-142498000I0J-200000D01*
G01*
X194244968Y-144998000D01*
G75*
G02*
X194044968Y-145198000I-200000J0D01*
G01*
X191494968Y-145198000D01*
G75*
G02*
X191294968Y-144998000I0J200000D01*
G01*
G37*
G36*
G01*
X178367968Y-147538000D02*
X178367968Y-145038000D01*
G75*
G02*
X178567968Y-144838000I200000J0D01*
G01*
X181117968Y-144838000D01*
G75*
G02*
X181317968Y-145038000I0J-200000D01*
G01*
X181317968Y-147538000D01*
G75*
G02*
X181117968Y-147738000I-200000J0D01*
G01*
X178567968Y-147738000D01*
G75*
G02*
X178367968Y-147538000I0J200000D01*
G01*
G37*
D12*
X192007968Y-148828000D03*
X181847968Y-148828000D03*
D13*
X183117968Y-146288000D03*
D10*
X186927968Y-148828000D03*
D13*
X189467968Y-143748000D03*
G36*
G01*
X184490000Y-154270000D02*
X184490000Y-153070000D01*
G75*
G02*
X184690000Y-152870000I200000J0D01*
G01*
X185890000Y-152870000D01*
G75*
G02*
X186090000Y-153070000I0J-200000D01*
G01*
X186090000Y-154270000D01*
G75*
G02*
X185890000Y-154470000I-200000J0D01*
G01*
X184690000Y-154470000D01*
G75*
G02*
X184490000Y-154270000I0J200000D01*
G01*
G37*
G36*
G01*
X187290000Y-154270000D02*
X187290000Y-153070000D01*
G75*
G02*
X187490000Y-152870000I200000J0D01*
G01*
X188690000Y-152870000D01*
G75*
G02*
X188890000Y-153070000I0J-200000D01*
G01*
X188890000Y-154270000D01*
G75*
G02*
X188690000Y-154470000I-200000J0D01*
G01*
X187490000Y-154470000D01*
G75*
G02*
X187290000Y-154270000I0J200000D01*
G01*
G37*
G36*
G01*
X191294968Y-125948016D02*
X191294968Y-123448016D01*
G75*
G02*
X191494968Y-123248016I200000J0D01*
G01*
X194044968Y-123248016D01*
G75*
G02*
X194244968Y-123448016I0J-200000D01*
G01*
X194244968Y-125948016D01*
G75*
G02*
X194044968Y-126148016I-200000J0D01*
G01*
X191494968Y-126148016D01*
G75*
G02*
X191294968Y-125948016I0J200000D01*
G01*
G37*
G36*
G01*
X178367968Y-128488016D02*
X178367968Y-125988016D01*
G75*
G02*
X178567968Y-125788016I200000J0D01*
G01*
X181117968Y-125788016D01*
G75*
G02*
X181317968Y-125988016I0J-200000D01*
G01*
X181317968Y-128488016D01*
G75*
G02*
X181117968Y-128688016I-200000J0D01*
G01*
X178567968Y-128688016D01*
G75*
G02*
X178367968Y-128488016I0J200000D01*
G01*
G37*
D12*
X192007968Y-129778016D03*
X181847968Y-129778016D03*
D13*
X183117968Y-127238016D03*
D10*
X186927968Y-129778016D03*
D13*
X189467968Y-124698016D03*
G36*
G01*
X184620000Y-135220000D02*
X184620000Y-134020000D01*
G75*
G02*
X184820000Y-133820000I200000J0D01*
G01*
X186020000Y-133820000D01*
G75*
G02*
X186220000Y-134020000I0J-200000D01*
G01*
X186220000Y-135220000D01*
G75*
G02*
X186020000Y-135420000I-200000J0D01*
G01*
X184820000Y-135420000D01*
G75*
G02*
X184620000Y-135220000I0J200000D01*
G01*
G37*
G36*
G01*
X187420000Y-135220000D02*
X187420000Y-134020000D01*
G75*
G02*
X187620000Y-133820000I200000J0D01*
G01*
X188820000Y-133820000D01*
G75*
G02*
X189020000Y-134020000I0J-200000D01*
G01*
X189020000Y-135220000D01*
G75*
G02*
X188820000Y-135420000I-200000J0D01*
G01*
X187620000Y-135420000D01*
G75*
G02*
X187420000Y-135220000I0J200000D01*
G01*
G37*
G36*
G01*
X184620000Y-116170000D02*
X184620000Y-114970000D01*
G75*
G02*
X184820000Y-114770000I200000J0D01*
G01*
X186020000Y-114770000D01*
G75*
G02*
X186220000Y-114970000I0J-200000D01*
G01*
X186220000Y-116170000D01*
G75*
G02*
X186020000Y-116370000I-200000J0D01*
G01*
X184820000Y-116370000D01*
G75*
G02*
X184620000Y-116170000I0J200000D01*
G01*
G37*
G36*
G01*
X187420000Y-116170000D02*
X187420000Y-114970000D01*
G75*
G02*
X187620000Y-114770000I200000J0D01*
G01*
X188820000Y-114770000D01*
G75*
G02*
X189020000Y-114970000I0J-200000D01*
G01*
X189020000Y-116170000D01*
G75*
G02*
X188820000Y-116370000I-200000J0D01*
G01*
X187620000Y-116370000D01*
G75*
G02*
X187420000Y-116170000I0J200000D01*
G01*
G37*
G36*
G01*
X191295125Y-106898125D02*
X191295125Y-104398125D01*
G75*
G02*
X191495125Y-104198125I200000J0D01*
G01*
X194045125Y-104198125D01*
G75*
G02*
X194245125Y-104398125I0J-200000D01*
G01*
X194245125Y-106898125D01*
G75*
G02*
X194045125Y-107098125I-200000J0D01*
G01*
X191495125Y-107098125D01*
G75*
G02*
X191295125Y-106898125I0J200000D01*
G01*
G37*
G36*
G01*
X178368125Y-109438125D02*
X178368125Y-106938125D01*
G75*
G02*
X178568125Y-106738125I200000J0D01*
G01*
X181118125Y-106738125D01*
G75*
G02*
X181318125Y-106938125I0J-200000D01*
G01*
X181318125Y-109438125D01*
G75*
G02*
X181118125Y-109638125I-200000J0D01*
G01*
X178568125Y-109638125D01*
G75*
G02*
X178368125Y-109438125I0J200000D01*
G01*
G37*
D12*
X192008125Y-110728125D03*
X181848125Y-110728125D03*
D13*
X183118125Y-108188125D03*
D10*
X186928125Y-110728125D03*
D13*
X189468125Y-105648125D03*
D15*
X332638400Y-93248480D03*
X317398400Y-121188480D03*
X332638400Y-95788480D03*
X332638400Y-98328480D03*
X332638400Y-100868480D03*
X332638400Y-103408480D03*
X332638400Y-105948480D03*
X332638400Y-108488480D03*
X332638400Y-111028480D03*
X332638400Y-113568480D03*
X332638400Y-116108480D03*
X332638400Y-118648480D03*
X332638400Y-121188480D03*
X317398400Y-118648480D03*
X317398400Y-116108480D03*
X317398400Y-113568480D03*
X317398400Y-111028480D03*
X317398400Y-108488480D03*
X317398400Y-105948480D03*
X317398400Y-103408480D03*
X317398400Y-100868480D03*
X317398400Y-98328480D03*
X317398400Y-95788480D03*
G36*
G01*
X316522100Y-92172180D02*
X318274700Y-92172180D01*
G75*
G02*
X318474700Y-92372180I0J-200000D01*
G01*
X318474700Y-94124780D01*
G75*
G02*
X318274700Y-94324780I-200000J0D01*
G01*
X316522100Y-94324780D01*
G75*
G02*
X316322100Y-94124780I0J200000D01*
G01*
X316322100Y-92372180D01*
G75*
G02*
X316522100Y-92172180I200000J0D01*
G01*
G37*
D16*
X382168400Y-120180100D03*
X451243700Y-139230100D03*
X377405900Y-160629600D03*
X244055900Y-158280100D03*
X210731100Y-120167400D03*
X310743600Y-139230100D03*
M02*
